<svg xmlns="http://www.w3.org/2000/svg" width="494.667" height="280" version="1.0" viewBox="0 0 371 210"><path d="M34.2 7c.3 5.4.2 5.6-3.6 3.9-5.8-2.7-10.6 2-10.6 10.4 0 6.2 2.9 9.7 7.9 9.7 2 0 4.3-.6 5-1.3 1.1-1 1.4-1 1.8 0 .3.7 1.1 1.3 1.9 1.3 1.1 0 1.4-2.7 1.4-14.5C38 2.4 37.9 2 35.9 2c-1.9 0-2.1.5-1.7 5zm-2.4 7.6c1.7 1.2 2.2 2.5 2.2 6.3 0 2.6-.5 5.2-1.2 5.9-1.7 1.7-5.4 1.5-7.2-.4-2.3-2.3-2.1-8.9.4-11.4 2.4-2.4 2.9-2.4 5.8-.4zm13.4-9.9c.5 2.6 3.8 2.9 3.8.4 0-1.5-.6-2.1-2.1-2.1-1.4 0-1.9.5-1.7 1.7zm14 6.4c-3.2 1.2-1.7 3.2 1.9 2.4 4.3-1 6.9.2 6.9 3.1 0 2.2-.4 2.4-4.5 2.4-7.1 0-11.2 6.1-6.9 10.4 1.8 1.9 8.5 2.1 10.3.3 1.1-1 1.4-1 1.8 0 .3.7 1.1 1.3 1.9 1.3 1.1 0 1.4-1.9 1.4-8.9 0-8.2-.2-9.1-2.2-10.5-2.5-1.8-7-2-10.6-.5zM68 23.3c0 3.1-1.8 4.7-5.1 4.7-3.2 0-4.3-1.2-3.4-3.9.6-2 2.2-2.8 6.3-3 1.7-.1 2.2.4 2.2 2.2zm16.2-11.7c-1.2.8-2.2 1-2.2.5 0-.6-.9-1.1-2-1.1-1.9 0-2 .7-2 10s.1 10 2 10c1.8 0 2-.7 2-5.9 0-7.6 1.3-10.9 4.5-11.7 4.4-1.1 5.5.9 5.5 9.7 0 7.2.2 7.9 2 7.9s2-.7 2-8.5c0-7.2-.3-8.8-2-10.5-2.4-2.4-6.7-2.6-9.8-.4zm20.3.8c-2.9 2.9-3.2 5.2-.9 8.4 1.3 1.9 1.3 2.6.3 3.8-1 1.2-1 2-.1 3.5 1 1.5.8 2-.8 2.9-2.7 1.4-2.7 6.6-.1 8 2.6 1.4 10.7 1.3 13.4-.1 2.9-1.5 3.7-2.8 3.7-6 0-3.6-1.8-4.9-7.1-4.9-2.7 0-5.1-.6-5.8-1.3-1.4-1.8-.4-2.7 2.9-2.7 1.5 0 4-1 5.5-2.2 2.2-1.7 2.6-2.7 2.2-5.4-.5-2.7-.2-3.3 1.6-3.8 3.2-.8 1.9-1.3-5.5-2.1-6.3-.6-6.9-.5-9.3 1.9zm9 4.6c0 3.2-.3 3.5-3.2 3.8-2.4.2-3.3-.1-3.8-1.7-.3-1.2-.3-3 0-4.2.5-1.6 1.4-1.9 3.8-1.7 2.9.3 3.2.6 3.2 3.8zm2.5 15.5c1.7 2.1-.2 4.3-4.5 5.1-5.5 1-9.4-2.3-6.3-5.4 1.7-1.7 9.3-1.5 10.8.3zm13.4-21.6c-5.1 2.2-7 10.1-3.9 16 1.7 3.3 3.3 4.1 8.6 4.1 6.4 0 9.8-5 8.6-12.7-.4-2-1.5-4.5-2.5-5.5-2.1-2.2-7.8-3.1-10.8-1.9zM137 15c3.8 3.8 1.6 13-3.2 13-3.5 0-5.8-2.9-5.8-7.2 0-4 2.7-7.8 5.5-7.8.8 0 2.4.9 3.5 2zm-92.2 8.7c-.3 12.4-.4 12.8-2.5 13.1-3.5.5-2.9 3.2.6 3.2 5.4 0 6.1-1.8 6.1-16.1 0-12.2-.1-12.9-2-12.9-1.8 0-2 .8-2.2 12.7zm175.7 28.7c-9.8 2.5-17.2 7.9-21 15.5-2.8 5.6-3.1 16.5-.6 23.8 1.2 3.4 2.1 6.4 2.1 6.5 0 .2-15 .3-33.3.3h-33.2v-31l6-.1c3.3-.1 13.3-.2 22.3-.3L179 67V53h-62v97H91.3l-4.8-7.2c-6.3-9.4-16.5-26.5-16.5-27.5 0-.4 2-1.9 4.4-3.2 6-3.1 11.4-8.6 14-14.1 1.6-3.5 2-6.5 2.1-13.6 0-8.1-.3-9.6-3-14.9-3.7-7.3-9.3-11.7-18.1-14.5-5.8-1.7-9.3-2-28.5-2H19v112h17v-46h17.8l8.8 14.2c4.8 7.9 11.1 18 14 22.5 5.2 8.1 11.3 14.7 14.6 15.8.9.3 4.8-1 8.7-3l7.1-3.5h72v-16h-45l.2-17.8.3-17.7 44.2-.2 44.2-.2 8.8 4.3c12.6 6.2 16.3 10.4 16.3 18.5 0 4.6-3.2 9.7-7.8 12.4-6.9 4-25 2.9-38.3-2.3-2.7-1.1-5.2-2-5.5-2-.3 0-.4 3.7-.2 8.3l.3 8.2 7 2.4c6.1 2.1 8.8 2.5 21.5 2.5 14.2.1 14.6 0 21.1-3.1 13.2-6.1 19-14.4 19.1-27.1.1-9.5-1.8-14.6-7.5-20.9-4.9-5.3-7.1-6.6-26.8-15.6-13-6-18.1-12.5-16.5-20.9.7-4 5.7-9.5 9.5-10.6 5.8-1.6 17.4-.6 26 2.2 8.5 2.9 10 2.7 10.1-1.2 0-1 4.9-1.2 23.8-1l23.7.3V165H325V66.9l16 .3 16 .3V53.1l-57.2-.5c-31.5-.3-61.1-.7-65.8-1-5.2-.3-10.4 0-13.5.8zM321 54.3l33.5.2.3 5.2.3 5.3-4.5.1c-2.6.1-5 .3-5.6.4-.5.1-5.7.3-11.5.4L323 66v97h-14v-48.1c0-26.5-.2-48.4-.5-48.7-.2-.3-11.4-.4-24.7-.3-21 .1-24.5.4-25.5 1.8-1.1 1.5-1.7 1.4-7.4-.2-3.4-.9-7.1-1.8-8.3-2-1.2-.2-4-.6-6.2-.9-5.4-.8-14.2.9-17.4 3.3-4.1 3-6.3 7.8-6.2 13.2.2 9.8 3.2 12.6 24.2 22.6 16.1 7.7 20.8 11.2 24.1 18 3.2 6.6 3.2 18 0 24.6-2.9 6.1-9.8 12.1-17 14.8-10.5 3.9-31.9 3.5-43.3-1-2.6-1-2.8-1.4-2.8-7.2 0-5.4.2-6.1 1.8-5.6 12.7 4.2 16.4 4.9 25.7 5.1 8.9.1 10.6-.2 14.9-2.4 6.1-3.1 8.7-6.4 9.3-12.3 1.1-9.7-2.9-14.8-17.7-22.2l-9-4.5h-45.5l-45.5.1V151l22.3.2 22.2.3.3 5.7.3 5.8h-70.4l-6.8 3.5c-3.8 1.9-7.3 3.5-7.7 3.5-2.4 0-17.2-17.7-17.2-20.5 0-.3-1.7-3.2-3.8-6.3-2.1-3.1-6.5-10-9.7-15.4-6.6-10.9-6.4-10.8-19.6-10.8H34v46.1l-6.5-.3-6.6-.3V110c0-28.9 0-53.3.1-54.4 0-1.8.9-1.8 20.8-1.3 22.2.5 27.8 1.6 35.4 6.3 8.2 5.2 12.5 15.1 11.6 26.8-.9 10.4-6 17.8-16.6 23.8l-5.2 3 3.6 6.7c2.1 3.6 7.4 12.1 11.8 18.8l8.1 12.3H119l.2-48.8.3-48.7h57v11l-22.2.3-22.3.2v35l36.5-.1c20.1 0 36.5-.2 36.5-.5 0-.2-1.2-2.7-2.6-5.4-3.2-6.1-4.2-15.9-2.4-22.5 2.3-8.3 11.2-16.2 20.7-18.4 2.1-.5 18-.6 35.3-.4 17.3.3 46.6.6 65 .6z"/><path d="M34 86.6v20.7l12.3-.5c12.9-.5 18-1.9 22.6-6.1 5.8-5.3 7.7-15.7 4.2-23.2-4-8.8-10.6-11.5-27.6-11.5H34v20.6zm20.3-18.7c9.2 1.2 13.7 3.7 16.5 9.1 4.8 9.4 1.6 20.4-7.2 24.9-4.1 2.1-6.6 2.5-16.2 2.9l-11.4.5V67h5.8c3.1.1 8.7.5 12.5.9zm101.3 114.3c-.9 1.2-1.6 3.1-1.6 4.1 0 .9-.7 2-1.5 2.3-.8.4-1.5 1-1.5 1.5s.7.9 1.5.9c1.2 0 1.5 1.7 1.5 9 0 8.3.1 9 2 9s2-.7 2-9c0-8.9 0-9 2.5-9 1.6 0 2.5-.6 2.5-1.5s-.9-1.5-2.5-1.5c-1.4 0-2.5-.4-2.5-.9 0-2.7 1.5-4.1 4.1-4.1 1.9 0 2.9-.5 2.9-1.5 0-2.6-7.5-2-9.4.7zM338 194.5c0 13.7.1 14.5 1.9 14.5 1.6 0 2-.8 2.3-4.2.4-5.8 2.6-5.9 6.3-.3 2.1 3.2 3.7 4.5 5.3 4.5 2.3 0 2.3-.1-1-4.5-1.8-2.5-3.7-5.2-4.2-5.9-.7-1 .2-2.7 2.9-6 3-3.8 3.4-4.6 1.9-4.6-1 0-4 2.1-6.6 4.7l-4.8 4.7v-8.7c0-8-.2-8.7-2-8.7-1.9 0-2 .7-2 14.5zm-170 4c0 9.8.1 10.5 2 10.5 1.8 0 2-.7 2-6.6 0-7.8 1-10 5-10.9 1.6-.4 3-1.3 3-2.1 0-1.9-4.4-1.8-6 .1-.7.8-1.6 1.5-2.1 1.5s-.9-.7-.9-1.5-.7-1.5-1.5-1.5c-1.2 0-1.5 1.8-1.5 10.5zm19.3-9.8c-.7.2-1.3 1.1-1.3 1.9 0 1.1.9 1.3 4.2.8 3.3-.6 4.4-.4 5.5 1.1 2.1 2.9 1.6 3.4-3.8 4.1-7.9 1.1-10.9 5.1-7.3 10.2 1.8 2.6 6.9 3 9.9.8 1.7-1.2 2.1-1.2 3.1.2 2.2 3 2.9.3 2.4-8.7-.4-6.7-.9-9.4-2-10.1-1.6-1-8.6-1.2-10.7-.3zm9.1 11.1c.3.4-.1 1.9-.7 3.3-1.8 3.4-7.1 3.5-7.5 0-.2-1.3.2-2.8 1-3.2 1.7-1.1 6.5-1.2 7.2-.1zm10.6-1.2c0 9.5.2 10.5 1.8 10.2 1.4-.3 1.8-1.6 2-7.8.3-8.1 1.2-10 4.8-10 3.3 0 4.4 2.8 4.4 10.9 0 6.4.2 7.1 2 7.1s2-.7 2-7.1c0-8.1 1.1-10.9 4.3-10.9 3.8 0 4.7 1.9 4.7 10.2 0 7.1.2 7.8 2 7.8s2-.7 2-8.3c0-9.9-1.4-12.7-6.3-12.7-1.8 0-4.2.6-5.3 1.4-1.7 1.2-2.2 1.2-3.9 0-2.3-1.7-5.9-1.8-8.8-.3-1.6.9-2.2.9-2.5 0-.2-.6-1-1.1-1.8-1.1-1.1 0-1.4 2.1-1.4 10.6zm39.3-9.1c-5.3 3.7-4.8 15.1.7 18 4.7 2.4 13 1.8 13-1 0-.8-1.4-1.1-4.8-.7-5.3.5-8.2-1.3-8.2-4.9 0-1.7.8-1.9 7-1.9h7l-.7-3.3c-1.3-6.9-8.5-10.1-14-6.2zm8.5 2.7c2.5 2.5 1.3 3.8-3.3 3.8-3 0-4.5-.4-4.5-1.3 0-1.9 2.1-3.7 4.5-3.7 1.2 0 2.6.5 3.3 1.2zm9.2-3.2c0 .6 1.2 5.3 2.7 10.5 2.3 8.3 2.9 9.5 4.9 9.5 1.9 0 2.5-1.1 4.5-8.6 1.3-4.9 2.5-8 2.9-7.2.4.7 1.5 4.6 2.5 8.5 1.5 6.5 2 7.3 4.1 7.3 1.8 0 2.5-.8 3.3-3.8.6-2 1.9-6.7 3-10.5 1.9-6.6 1.9-6.7.1-6.7-1.5 0-2.3 1.3-3.5 5.7-.9 3.2-2 6.9-2.4 8.3l-.8 2.5-.7-3c-2.7-11.2-3.7-13.5-5.9-13.5-1.9 0-2.5 1-4.1 6.7-2.8 10.1-3.1 10.1-5.1 1.4-1.5-6.5-2.2-8.1-3.7-8.1-1 0-1.8.5-1.8 1zm35.5 1.5c-2.1 2-2.5 3.4-2.5 8 0 4.8.4 6 2.6 8 3.1 2.9 8.7 3.3 12.1 1 3.3-2.3 4.8-7.9 3.4-12.6-1.4-4.7-4.4-6.9-9.4-6.9-2.7 0-4.5.7-6.2 2.5zm8.9 1.1c2.4.9 3.9 6.6 2.6 10-2.9 7.5-10 5.3-10-3.1 0-6 2.8-8.7 7.4-6.9zm12.6 6.9c0 9.8.1 10.5 2 10.5 1.8 0 2-.7 2-6.9 0-6.3.2-7.1 2.6-9 1.5-1.2 3.3-2.1 4-2.1.8 0 1.4-.7 1.4-1.5 0-1.9-3-1.9-5.6 0-2.5 1.9-3.4 1.9-3.4 0 0-.8-.7-1.5-1.5-1.5-1.2 0-1.5 1.8-1.5 10.5z"/></svg>