<svg id="Layer_1" data-name="Layer 1" xmlns="http://www.w3.org/2000/svg" viewBox="0 0 14.18 13.04">
  <path d="M7.82,5.92c0,2.78-1.69,4.26-3.75,4.26S.43,8.52,.43,6.07C.43,3.51,2.03,1.83,4.19,1.83s3.63,1.69,3.63,4.09Zm-6.27,.13c0,1.73,.94,3.27,2.58,3.27s2.59-1.52,2.59-3.36c0-1.61-.84-3.29-2.58-3.29s-2.59,1.6-2.59,3.37Z"/>
  <path d="M9.04,8.77c.47,.29,1.15,.53,1.87,.53,1.07,0,1.69-.56,1.69-1.38,0-.76-.43-1.19-1.52-1.61-1.32-.47-2.13-1.15-2.13-2.29,0-1.26,1.04-2.2,2.61-2.2,.83,0,1.43,.19,1.79,.4l-.29,.85c-.26-.14-.8-.38-1.54-.38-1.1,0-1.52,.66-1.52,1.21,0,.76,.49,1.13,1.61,1.56,1.37,.53,2.06,1.19,2.06,2.37,0,1.25-.92,2.33-2.83,2.33-.78,0-1.63-.23-2.06-.52l.26-.88Z"/>
  <style>
      path { fill: #000; }
      @media (prefers-color-scheme: dark) {
          path { fill: #FFF; }
      }
  </style>
</svg>