<?xml version="1.0" encoding="UTF-8"?>
<svg id="Layer_1" data-name="Layer 1" xmlns="http://www.w3.org/2000/svg" viewBox="0 0 195.25 192">
  <defs>
    <style>
    .cls-1 { 
      fill: #000;
      fillrule:evenodd;
     }
    @media (prefers-color-scheme: dark) {
      .cls-1 { fill: #FFF; }
    }
    .cls-2 { fill: #000; }
    @media (prefers-color-scheme: dark) {
      .cls-2 { fill: #FFF; }
    }
    </style>
  </defs>
  <path class="cls-1" d="M97.71,0C43.68,0,0,44,0,98.43c0,43.51,27.99,80.34,66.81,93.38,4.85,.98,6.63-2.12,6.63-4.72,0-2.28-.16-10.1-.16-18.25-27.18,5.87-32.84-11.73-32.84-11.73-4.37-11.41-10.84-14.34-10.84-14.34-8.9-6.03,.65-6.03,.65-6.03,9.87,.65,15.05,10.1,15.05,10.1,8.73,14.99,22.81,10.76,28.47,8.15,.81-6.36,3.4-10.76,6.15-13.2-21.68-2.28-44.49-10.76-44.49-48.57,0-10.76,3.88-19.56,10.03-26.4-.97-2.44-4.37-12.55,.97-26.08,0,0,8.25-2.61,26.85,10.1,7.96-2.15,16.18-3.25,24.43-3.26,8.25,0,16.66,1.14,24.43,3.26,18.6-12.71,26.85-10.1,26.85-10.1,5.34,13.53,1.94,23.63,.97,26.08,6.31,6.84,10.03,15.64,10.03,26.4,0,37.81-22.81,46.12-44.65,48.57,3.56,3.1,6.63,8.96,6.63,18.25,0,13.2-.16,23.79-.16,27.05,0,2.61,1.78,5.71,6.63,4.73,38.82-13.04,66.81-49.87,66.81-93.38C195.41,44,151.58,0,97.71,0Z"/>
  <g>
    <path class="cls-2" d="M69.95,94.25h-7.57c-.2,0-.35,.16-.35,.35v3.7c0,.2,.16,.35,.35,.35h2.95v4.6s-.66,.23-2.5,.23c-2.16,0-5.18-.79-5.18-7.43s3.14-7.52,6.1-7.52c2.56,0,3.66,.45,4.36,.67,.22,.07,.42-.15,.42-.35l.84-3.57c0-.09-.03-.2-.14-.28-.28-.2-2.02-1.17-6.41-1.17-5.05,0-10.23,2.15-10.23,12.48s5.93,11.87,10.93,11.87c4.14,0,6.65-1.77,6.65-1.77,.1-.06,.11-.2,.11-.27v-11.54c0-.2-.16-.35-.35-.35Z"/>
    <path class="cls-2" d="M108.94,85.06c0-.2-.16-.36-.35-.36h-4.26c-.19,0-.35,.16-.35,.36,0,0,0,8.23,0,8.23h-6.64v-8.23c0-.2-.16-.36-.35-.36h-4.26c-.19,0-.35,.16-.35,.36v22.29c0,.2,.16,.36,.35,.36h4.26c.19,0,.35-.16,.35-.36v-9.54h6.64s-.01,9.54-.01,9.54c0,.2,.16,.36,.35,.36h4.27c.2,0,.35-.16,.35-.36v-22.29Z"/>
    <g>
      <path class="cls-2" d="M77.99,87.99c0-1.53-1.23-2.77-2.75-2.77s-2.75,1.24-2.75,2.77,1.23,2.78,2.75,2.78,2.75-1.24,2.75-2.78Z"/>
      <path class="cls-2" d="M77.68,102.65v-10.29c0-.2-.16-.36-.35-.36h-4.25c-.19,0-.37,.2-.37,.4v14.74c0,.43,.27,.56,.62,.56h3.83c.42,0,.52-.21,.52-.57v-4.49Z"/>
    </g>
    <path class="cls-2" d="M125.14,92.04h-4.23c-.19,0-.35,.16-.35,.36v10.93s-1.07,.79-2.6,.79-1.93-.69-1.93-2.18v-9.53c0-.2-.16-.36-.35-.36h-4.29c-.19,0-.35,.16-.35,.36v10.25c0,4.43,2.47,5.52,5.87,5.52,2.79,0,5.04-1.54,5.04-1.54,0,0,.11,.81,.16,.91,.05,.1,.17,.19,.31,.19h2.73c.19-.01,.35-.17,.35-.37v-14.97c0-.2-.16-.36-.35-.36Z"/>
    <path class="cls-2" d="M136.69,91.54c-2.4,0-4.03,1.07-4.03,1.07v-7.55c0-.2-.16-.36-.35-.36h-4.27c-.19,0-.35,.16-.35,.36v22.29c0,.2,.16,.36,.35,.36h2.96c.13,0,.23-.07,.31-.19,.07-.12,.18-1.03,.18-1.03,0,0,1.75,1.66,5.05,1.66,3.88,0,6.11-1.97,6.11-8.84s-3.56-7.77-5.96-7.77Zm-1.67,12.56c-1.47-.04-2.46-.71-2.46-.71v-7.06s.98-.6,2.19-.71c1.52-.14,2.99,.32,2.99,3.96,0,3.83-.66,4.59-2.71,4.52Z"/>
    <path class="cls-2" d="M89.93,92.01h-3.2s0-4.22,0-4.22c0-.16-.08-.24-.27-.24h-4.36c-.17,0-.26,.07-.26,.24v4.36s-2.18,.53-2.33,.57c-.15,.04-.26,.18-.26,.34v2.74c0,.2,.16,.36,.35,.36h2.23v6.6c0,4.9,3.44,5.38,5.76,5.38,1.06,0,2.33-.34,2.54-.42,.13-.05,.2-.18,.2-.32v-3.02c0-.2-.16-.36-.35-.36s-.66,.08-1.15,.08c-1.57,0-2.1-.73-2.1-1.67s0-6.27,0-6.27h3.2c.19,0,.35-.16,.35-.36v-3.43c0-.2-.16-.36-.35-.36Z"/>
  </g>
</svg>