<svg xmlns="http://www.w3.org/2000/svg" id="Layer_1" data-name="Layer 1" viewBox="0 0 987.66 410.99"><defs><style>.cls-1{fill:#c01c2d}.cls-2{fill:#6d8bc7}.cls-3{fill:#94aac4}</style></defs><path id="path1008-3" d="M530.7 296.66c0-9.33-1.85-16.67-5.55-22.02-3.7-5.34-8.99-8.02-15.85-8.02s-12.19 2.67-15.95 8.02c-3.77 5.35-5.65 12.69-5.65 22.02s1.88 16.74 5.65 22.22c3.77 5.48 9.09 8.22 15.95 8.22s12.15-2.74 15.85-8.22c3.7-5.48 5.55-12.89 5.55-22.22Zm30.69 0c0 8.39-1.21 16.07-3.63 23.04-2.42 6.97-5.92 12.92-10.5 17.86-4.58 4.94-10.07 8.76-16.46 11.47-6.39 2.71-13.57 4.06-21.51 4.06s-14.91-1.35-21.3-4.06c-6.4-2.71-11.88-6.53-16.46-11.47s-8.15-10.89-10.7-17.86c-2.56-6.97-3.84-14.65-3.84-23.04s1.31-16.03 3.94-22.93c2.62-6.9 6.26-12.79 10.9-17.66 4.64-4.87 10.16-8.66 16.56-11.36 6.39-2.71 13.36-4.06 20.9-4.06s14.71 1.35 21.1 4.06c6.39 2.71 11.88 6.49 16.46 11.36 4.57 4.87 8.14 10.76 10.7 17.66 2.56 6.9 3.84 14.55 3.84 22.93" class="cls-2" vector-effect="non-scaling-stroke"/><path id="path1010-4" d="M615.72 352.29c-8.75-.14-15.85-1.08-21.3-2.84-5.45-1.75-9.76-4.23-12.93-7.41-3.16-3.18-5.32-7.03-6.46-11.57-1.15-4.53-1.72-9.64-1.72-15.32v-96.97l30.09-25.42v116.29c0 2.71.2 5.14.6 7.31.41 2.17 1.18 3.99 2.32 5.48 1.14 1.49 2.79 2.71 4.95 3.65 2.15.95 5.05 1.56 8.68 1.82l-4.24 24.96" class="cls-2" vector-effect="non-scaling-stroke"/><path id="path1012-1" d="M694.48 296.66c0-9.33-1.85-16.67-5.55-22.02-3.7-5.34-8.98-8.02-15.85-8.02s-12.19 2.67-15.95 8.02c-3.77 5.35-5.65 12.69-5.65 22.02s1.88 16.74 5.65 22.22c3.77 5.48 9.09 8.22 15.95 8.22s12.15-2.74 15.85-8.22c3.7-5.48 5.55-12.89 5.55-22.22Zm30.69 0c0 8.39-1.21 16.07-3.63 23.04-2.43 6.97-5.93 12.92-10.5 17.86-4.58 4.94-10.07 8.76-16.46 11.47-6.4 2.71-13.57 4.06-21.51 4.06s-14.91-1.35-21.31-4.06c-6.39-2.71-11.88-6.53-16.46-11.47s-8.14-10.89-10.7-17.86c-2.56-6.97-3.84-14.65-3.84-23.04s1.31-16.03 3.94-22.93c2.63-6.9 6.26-12.79 10.91-17.66 4.64-4.87 10.17-8.66 16.56-11.36 6.39-2.71 13.36-4.06 20.9-4.06s14.71 1.35 21.1 4.06c6.39 2.71 11.88 6.49 16.46 11.36 4.58 4.87 8.14 10.76 10.7 17.66 2.55 6.9 3.83 14.55 3.83 22.93" class="cls-2" vector-effect="non-scaling-stroke"/><path id="path1014-6" d="M884.8 350.26h-30.09V243.5h30.09v106.76Zm2.83-137.61c0 5.55-1.79 9.91-5.35 13.09-3.57 3.18-7.77 4.77-12.62 4.77s-9.05-1.59-12.62-4.77c-3.57-3.18-5.35-7.54-5.35-13.09s1.78-9.91 5.35-13.09c3.57-3.18 7.77-4.77 12.62-4.77s9.05 1.59 12.62 4.77c3.57 3.18 5.35 7.54 5.35 13.09" class="cls-3" vector-effect="non-scaling-stroke"/><path id="path1020-4" d="M843.82 204.82h-31.38l-34.46 83.53-34.48-83.53H711l27.94 60.69-.17-.25 38.64 85.02 52.36-114.94 14.05-30.52" class="cls-3" vector-effect="non-scaling-stroke"/><path id="path1022-3" d="M369.57 263.8v-53.78h-.03v-5l-31.47 14.97v130.69h31.5v-86.87" class="cls-2" vector-effect="non-scaling-stroke"/><path id="path1024-1" d="m411.23 219.98-.03 43.82h-32.17v27.19h32.17v59.67h31.5V205.01l-31.47 14.97" class="cls-2" vector-effect="non-scaling-stroke"/><path id="path1069" d="M900.51 341.93c0-7.14.61-10.16 2.81-13.78 4.27-7.06 19.31-27.28 32.65-43.89 6.58-8.2 11.97-15.26 11.97-15.7s-10.09-.8-22.43-.8h-22.43v-24.35h83.3v20.75l-10.03 11.09c-17.94 19.85-39.96 47.58-39.96 50.32 0 .63 11.51 1.14 25.63 1.14h25.63v24.35H900.5v-9.14Z" class="cls-3" vector-effect="non-scaling-stroke"/><path id="path992" d="m.04 250.83 73.73 121.76 9.5-12.5-64.89-107.15-18.34-2.11" class="cls-1" vector-effect="non-scaling-stroke"/><path id="path994" d="M27.24 242.37 0 250.79l66.52 7.65-33.06-3.8 57.6 95.13 61.86-81.4h.02l57.88 142.62.82-28.5-50.63-124.74-133.76-15.37ZM.01 250.8l73.73 121.76 9.5-12.5-64.89-107.15L.01 250.8Z" class="cls-3" vector-effect="non-scaling-stroke"/><path id="path1000" d="M217.3 183.57 55.69 233.55l113.7 13.07 43.03 106.03 4.87-169.07Z" class="cls-2" vector-effect="non-scaling-stroke"/><path id="path5211" d="M401.17 160.1 327.44 38.34l-9.5 12.5L382.82 158l18.34 2.11" class="cls-1" vector-effect="non-scaling-stroke"/><path id="path5213" d="m190.4 0-.82 28.5 50.63 124.74 133.77 15.37 27.24-8.42-67.62-7.77 34.16 3.92-57.6-95.13-61.85 81.4h-.02L190.4 0Zm137.08 38.42-9.5 12.5 64.88 107.16 18.34 2.1-73.73-121.76Z" class="cls-3" vector-effect="non-scaling-stroke"/><path id="path5219" d="m188.79 58.28-4.87 169.07 161.6-49.97-113.7-13.07-43.03-106.03Z" class="cls-2" vector-effect="non-scaling-stroke"/></svg>