<svg xmlns="http://www.w3.org/2000/svg" xml:space="preserve" width="117.021" height="117.021" viewBox="0 0 117.021 117.021"><path d="M475.148-37.258h216v239h-216z" style="opacity:.53480003;fill:none;fill-opacity:1;stroke:none;stroke-width:1.41732287;stroke-linecap:round" transform="translate(-807.083 449.662) scale(1.33333)"/><path d="m609.576 290.918 10.93-25.227 2.144 2.144-9.619 22.202-3.455.881" style="fill:#c01c2d;fill-opacity:1;fill-rule:nonzero;stroke:none;stroke-width:.02316593" transform="scale(1.46694 -1.46694) rotate(7.8 2795.966 -4341.464)"/><path d="m615.007 291.821-5.433-.9 12.53-3.2-6.227 1.59 8.539-19.71 13.963 13.963h.003l7.352-28.804.902 5.432-6.432 25.194zm-5.43-.902 10.929-25.228 2.143 2.144-9.618 22.202z" style="fill:#94aac4;fill-opacity:1;fill-rule:nonzero;stroke:none;stroke-width:.02316593" transform="scale(1.46694 -1.46694) rotate(7.8 2795.966 -4341.464)"/><path d="m652.927 298.108-32.231-5.343 21.417-5.47 5.467-21.414z" style="fill:#444b59;fill-opacity:1;fill-rule:nonzero;stroke:none;stroke-width:.02316593" transform="scale(1.46694 -1.46694) rotate(7.8 2795.966 -4341.464)"/><path d="m696.277 305.298-10.93 25.227-2.143-2.144 9.619-22.201 3.454-.882" style="fill:#c01c2d;fill-opacity:1;fill-rule:nonzero;stroke:none;stroke-width:.02316593" transform="scale(1.46694 -1.46694) rotate(7.8 2854.723 -4392.72)"/><path d="m660.119 341.457-.901-5.433 6.43-25.194 25.198-6.435 5.433.9-12.737 3.254 6.434-1.643-8.538 19.709-13.963-13.963-.003.001zm25.229-10.932-2.144-2.144 9.618-22.201 3.455-.882z" style="fill:#94aac4;fill-opacity:1;fill-rule:nonzero;stroke:none;stroke-width:.02316593" transform="scale(1.46694 -1.46694) rotate(7.8 2854.723 -4392.72)"/><path d="m658.274 330.336-5.347-32.228 32.23 5.344-21.417 5.47z" style="fill:#444b59;fill-opacity:1;fill-rule:nonzero;stroke:none;stroke-width:.02316593" transform="scale(1.46694 -1.46694) rotate(7.8 2854.723 -4392.72)"/></svg>