<svg xmlns="http://www.w3.org/2000/svg" xml:space="preserve" style="enable-background:new 0 0 362.8 411.4" viewBox="0 0 362.8 411.4"><path d="M33.8-100.6h23v22.8H78v-22.8h23v69H78v-23H57v23H33.8m97.6-46h-20.3v-23h63.7v23h-20.4v46h-23m53.5-69H209l14.8 24.3 14.8-24.3h24.1v69h-23v-34.2L223.6-41l-16.1-24.8v34.2h-22.6m89.2-69h23v46.2h32.6v22.8h-55.6"/><path d="M33 370.4 0 0h362.8l-33 370.2-148.7 41.2" style="fill:#e44d26"/><path d="M181.4 379.9V30.4h148.3l-28.3 316" style="fill:#f16529"/><path d="M67.4 75.7h114v45.4h-64.2l4.2 46.5h60v45.3H79.8m2 22.8h45.6l3.2 36.3 50.8 13.6V333l-93.2-26" style="fill:#ebebeb"/><path d="M295 75.7H181.2v45.4h109.6m-4.1 46.5H181.2V213h56l-5.3 59-50.7 13.6v47.2l93-25.8" style="fill:#fff"/></svg>