<svg xmlns="http://www.w3.org/2000/svg" data-name="Layer 1" viewBox="0 0 310.62 311.59"><path d="M193.63 214.35c-2.8 4.48-6.16 8.4-9.52 12.32l-63.28 63.28C91.77 319 47.76 318.24 20.59 291.07c-27.84-27.84-27.43-71.7 1.12-100.24l63.28-63.28c32.6-32.62 89.97-26.65 112 17.36 1.12 2.24.56 4.48-1.12 6.16-7.42 7.42-15.66 11.29-25.76 8.4-2.24-.56-4.48-2.24-6.16-3.92-11.41-17.11-38.7-21.22-55.44-4.48l-63.84 63.28c-14.84 14.84-16.57 37.2-1.12 52.63 15.07 15.07 38.46 14.34 52.64-1.11l53.76-53.77c14.46 4.52 30.16 4.96 43.68 2.25Zm96.88-193.76c-27.84-27.84-71.7-27.43-100.24 1.12l-63.84 63.28c-3.92 3.92-6.72 7.84-9.52 12.32 16.21-3.24 29.18-1.48 43.12 2.24l53.77-53.76c14.98-14.99 37.32-16.45 52.63-1.12 15.07 15.07 14.34 38.46-1.11 52.64l-63.29 63.28c-17.27 17.29-44.21 11.82-55.43-5.04-1.68-2.24-3.36-3.36-6.16-3.92-10.07-2.88-18.32.96-25.76 8.4-1.68 1.68-2.24 4.48-1.12 6.16 18.86 37.71 69.09 54.11 112 17.37l63.28-63.28c25.71-25.71 31.58-68.63 1.68-99.69Z" style="fill:currentColor"/></svg>