<svg xmlns="http://www.w3.org/2000/svg" xml:space="preserve" style="enable-background:new 0 0 29.6 64" viewBox="0 0 29.6 64"><path d="m14.6.2 1.7 3.2c.4.6.8 1.1 1.3 1.6 1.4 1.4 2.8 2.9 4 4.5 2.9 3.8 4.8 8 6.2 12.6.8 2.8 1.3 5.6 1.3 8.5.1 8.6-2.8 16.1-8.8 22.2-1 1-2 1.9-3.1 2.7-.6 0-.9-.5-1.1-.9-.5-.8-.7-1.6-.9-2.5-.2-1-.3-2.1-.3-3.2v-.5S14.4.4 14.6.2z" style="fill:#599636"/><path d="M14.6.1c-.1-.1-.1 0-.2 0 0 .7-.2 1.3-.6 1.9-.4.6-1 1-1.5 1.5-3.1 2.7-5.5 5.9-7.5 9.6C2.2 18 .8 23.2.5 28.7c-.2 2 .6 9 1.3 11 1.7 5.4 4.8 9.9 8.8 13.8 1 .9 2 1.8 3.1 2.7.3 0 .3-.3.4-.5.1-.4.2-.9.3-1.4l.7-5.2-.5-49z" style="fill:#6cac48"/><path d="M16.3 57.7c.1-.8.5-1.5.9-2.1-.4-.2-.7-.5-1-.9-.2-.3-.4-.8-.5-1.2-.5-1.5-.6-3-.7-4.5v-.9c-.2.1-.2 1.3-.2 1.5-.1 1.6-.3 3.2-.6 4.7-.1.6-.2 1.3-.6 1.8v.2c.6 1.8.8 3.7.9 5.6v.7c0 .8 0 .7.7.9.3.1.6.1.9.3.2 0 .2-.2.2-.3l-.1-1.2v-3.2c-.1-.3 0-.9.1-1.4z" style="fill:#c2bfbf"/></svg>