<svg xmlns="http://www.w3.org/2000/svg" data-name="Layer 1" viewBox="0 0 1012.26 472"><path d="m86.7 82.02 10.42 19.6a58.49 58.49 0 0 0 7.88 9.79c8.73 8.73 17.04 17.88 24.47 27.68 17.67 23.2 29.59 48.97 38.11 76.86 5.11 17.04 7.88 34.49 8.09 52.16.86 52.8-17.25 98.14-53.86 135.83a156.012 156.012 0 0 1-19.16 16.4c-3.63 0-5.32-2.87-6.82-5.32-2.87-4.78-4.47-10.01-5.32-15.32-1.28-6.39-2.13-12.77-1.7-19.38v-2.98c-.21-.64-3.4-293.8-2.13-295.29h.03v-.03Z" style="fill:#599636" vector-effect="non-scaling-stroke"/><path d="M86.58 81.42c-.43-.86-.86-.21-1.28.21.21 4.25-1.28 8.09-3.63 11.71-2.55 3.63-5.97 6.39-9.37 9.37-18.95 16.4-33.84 36.19-45.77 58.34C10.77 190.86 2.47 222.79.14 256.43c-1.05 12.14 3.82 54.93 7.67 67.27 10.42 32.79 29.16 60.25 53.54 84.09 5.97 5.74 12.35 11.07 18.95 16.18 1.91 0 2.13-1.7 2.55-2.98.84-2.72 1.48-5.5 1.91-8.31 1.91-10.64 2.98-21.29 4.25-31.93L86.66 81.42h-.08Z" style="fill:#6cac48" vector-effect="non-scaling-stroke"/><path d="M97.1 433.49c.43-4.89 2.87-8.94 5.32-12.98-2.55-1.05-4.47-3.19-5.97-5.54-1.28-2.13-2.34-4.78-3.19-7.03-2.98-8.94-3.63-18.31-4.47-27.47v-5.54c-1.05.86-1.28 8.09-1.28 9.16-.64 9.79-1.91 19.38-3.82 28.74-.64 3.82-1.05 7.67-3.4 11.07 0 .43 0 .86.21 1.49 3.82 11.28 4.89 22.78 5.54 34.49v4.25c0 5.11-.21 4.04 4.04 5.74 1.7.64 3.63.86 5.32 2.13 1.28 0 1.49-1.05 1.49-1.91l-.64-7.03v-19.6c-.21-3.4.43-6.82.86-10.01l-.02.04h.01Z" style="fill:#c2bfbf" vector-effect="non-scaling-stroke"/><path d="M258.84 344.4v20.29c-.02.8.02 1.61.14 2.4.26 2.4 1.74 3.87 3.91 4.54 2.02.53 4.08.93 6.16 1.2 1.2.14 1.6.66 1.74 1.95.14 4.54-.26 5.08-4.67 4.81-10.28-.54-20.57-.66-30.84 0h-.98c-3.2.14-3.47-.14-3.47-3.34 0-.54.14-1.2.14-1.74 0-.98.66-1.47 1.6-1.47 2.15-.26 4.14-.8 6.16-1.2 2.8-.66 4.4-2.4 4.67-5.21.39-3.07.39-6.27.39-9.35l.14-35.78c.09-2.12-1.05-4.1-2.93-5.08a37.724 37.724 0 0 0-7.62-3.2c-.8-.26-1.6-.39-2.27-.8-1.95-.94-2-2.67-.14-3.74.66-.39 1.47-.66 2.27-.8 8.1-1.2 16.06-3.21 23.76-6.01 1.6-.54 2-.39 2.15 1.2.14.98 0 2.15-.14 3.07-.26 1.74-.26 3.47-.26 5.08 0 .66.14 1.34.8 1.74.66.4 1.34 0 1.95-.39 2.8-2.15 5.61-4.14 8.68-5.86 4.4-2.4 9.09-4.54 14.17-5.21 6.16-.8 11.48.8 16.16 4.81 1.93 1.73 3.64 3.71 5.07 5.87 1.34 1.95 1.47 2 3.2.66 5.08-3.74 10.41-7.07 16.16-9.48 6.01-2.54 12.15-2.93 18.29-.8 6.27 2.27 10.55 6.67 13.09 12.68 2.15 4.81 3.07 9.77 3.07 14.95v35.78c0 2.4.98 3.91 3.34 5.08 2.54.98 5.34 1.47 8.01 2 1.16.26 1.74.98 1.74 2.15-.26 4.4-.66 4.67-4.94 4.4a287.7 287.7 0 0 0-32.17 0c-1.43.09-2.19-.57-2.27-2v-.66c-.09-2.41 1.02-3.87 3.34-4.4l3.47-.94a5.368 5.368 0 0 0 4.14-5.21l.39-10.01-.26-26.16c-.1-2.34-.6-4.64-1.47-6.81-3.34-8.15-10.68-11.08-17.76-10.28-5.34.54-10.01 2.67-14.42 5.74-.94.66-1.6 1.47-1.47 2.8 1.2 8.55.39 17.1.54 25.64v18.56c0 3.34 1.34 4.94 4.54 5.74l6.16 1.34c.94.14 1.47.54 1.47 1.6v.98c-.14 3.74-.39 3.91-4.14 3.87-10.68-.54-21.37-.39-31.91 0-3.61.14-3.91-.26-3.74-3.91.14-2.15.39-2.27 2.4-2.67l4.4-.8c3.91-.8 5.34-2.27 5.61-6.41l.39-8.95-.26-26.84c-.26-3.34-.98-6.55-2.8-9.61-2.67-4.94-6.84-7.47-12.55-7.75-5.74-.39-10.82 1.74-15.63 4.4-3.34 1.95-4.81 4.27-4.54 8.15v19.49l-.12-.12-.04.02Zm251.55.81v18.83c.02 1.34.11 2.68.26 4.01a4.097 4.097 0 0 0 3.2 3.74c2.3.67 4.68 1.07 7.07 1.2 1.34.14 1.6.66 1.74 1.74v.94c-.14 4.67-.66 5.21-5.21 4.94-10.16-.66-20.29-.54-30.44 0l-3.91.14c-.8 0-.98-.39-1.2-.94-.39-1.85-.39-3.76 0-5.61.14-.8.66-.98 1.47-1.2 1.95-.26 3.61-.66 5.47-.98 3.34-.8 4.54-2.15 4.67-5.61l.39-11.22v-32.85c0-2.4-.94-3.87-3.07-4.94-2.4-1.34-4.94-2.27-7.62-3.2-.8-.26-1.6-.54-2.27-.94-1.74-1.2-1.95-2.93-.26-4.27.76-.62 1.69-1 2.67-1.07 8.55-1.34 16.82-3.2 24.84-6.41.94-.39 1.34-.14 1.74.66s.54 1.74.39 2.67l-.39 6.27c0 .8-.39 1.95.26 2.27.8.54 1.34-.66 2-.98 3.94-3.31 8.3-6.09 12.96-8.28 4.14-1.95 8.4-3.2 13.22-2.93 8.95.54 15.36 5.08 19.49 12.96 2.15 4.14 3.07 8.68 3.47 13.36l.39 9.77.14 29.51c.14 2.27.94 3.74 3.2 4.54 2.35.78 4.76 1.36 7.21 1.74 2.15.26 2.27.66 2.4 2.67v.66c-.26 4.54-.54 4.67-5.08 4.4-9.96-.53-19.94-.53-29.91 0-1.34.14-2.67 0-3.91.14-.8 0-1.34-.14-1.47-.94-.26-1.74-.54-3.47-.14-5.34.14-.8.54-1.2 1.47-1.34l6.16-.98c2.15-.54 3.34-1.95 3.61-3.91l.26-3.74-.14-27.9c0-3.2-.14-6.41-.8-9.61-1.6-6.84-6.81-11.72-13.87-12.41-6.16-.66-11.72.94-16.82 4.27-2.54 1.6-3.61 3.87-3.61 6.67v20.17c0-.26.05-.39.14-.39l-.18-.26v-.02Z" vector-effect="non-scaling-stroke"/><path d="M901.29 307.45c-1.47-9.75-5.08-18.43-11.35-26.04a51.516 51.516 0 0 0-20.57-15.22c-8.4-3.47-17.36-4.54-26.44-4.81-3.74-.14-54.74.66-58.48 0-.94-.14-1.6.14-2.15.94-.66.98-1.34 2-1.74 3.07-1.6 3.61-1.6 3.34 2.27 3.87 3.2.54 6.27.8 9.35 1.74 2.8.94 4.81 2.54 5.47 5.61.26 1.47.54 48.46.54 70.36l-.54 15.63c-.14 1.2-.26 2.4-.66 3.47-.54 1.6-1.47 2.93-3.07 3.61a15.8 15.8 0 0 1-5.61 1.47c-3.61.39-4.14.54-5.34 4.54l-.39 1.47c-.26 1.74-.14 2 1.6 2l39.92.39 15.63-.26 10.82-1.34c12.28-2.27 23.23-7.35 32.57-15.49a54.226 54.226 0 0 0 12.82-16.82c3.74-7.47 5.34-15.63 5.74-23.9.66-4.67.39-9.48-.39-14.28Zm-19.36 18.93c-.54 8.55-2.27 16.82-6.67 24.3-5.61 9.75-13.62 16.56-24.7 18.95-4.81.98-9.61 1.47-14.66.8-3.61-.39-7.07-.8-10.41-2-6.01-2.15-8.15-5.86-8.28-11.72l-.14-80.5c0-4.81 2.15-5.86 5.61-6.01 5.21-.39 10.55-.26 15.76.26 5.54.54 10.98 1.85 16.16 3.91 3.85 1.6 7.41 3.81 10.55 6.55 7.21 6.16 12.02 13.87 14.66 22.96 2.15 7.35 2.54 14.82 2.15 22.3l-.03.21Zm130.33 13.08c0-.8 0-1.47-.14-2.27-1.2-7.35-5.08-12.96-11.08-17.22-3.87-2.8-8.28-4.67-12.82-6.01-.8-.26-1.47-.54-2.27-.66.14-.66.54-.8.94-.94 2.67-1.34 5.21-2.8 7.47-4.81 4.14-3.47 6.84-7.75 8.28-12.96.8-2.8.8-5.61.54-8.55a22.949 22.949 0 0 0-9.75-17.36c-6.16-4.54-13.36-6.41-20.83-6.55-14.42-.26-28.97 0-43.38 0-4.14 0-8.28.26-12.55-.39-.8-.14-1.95-.39-2.54.54-.98 1.74-2.15 3.47-2.54 5.47-.14.94.14 1.47 1.2 1.6l9.21 1.34c3.61.54 6.16 2.54 6.41 5.74.26 2.21.39 4.44.39 6.67l-.26 24.96-.14 49.4c0 2.93-.39 5.74-.94 8.68a4.902 4.902 0 0 1-3.47 4.01c-2.67.8-5.21 1.6-8.01 1.6a3.32 3.32 0 0 0-3.47 2.27c-.54 1.2-.98 2.54-1.2 3.74-.26 1.6.14 2.15 1.74 1.95 1.2-.14 45.26.94 53.54.14 4.94-.54 9.77-1.2 14.68-2.67 8.4-2.67 16.16-6.55 22.3-13.09 5.08-5.34 8.01-11.75 8.28-19.23.39-1.74.39-3.47.39-5.34l.02-.07Zm-64.76-54.7.39-10.68c0-2 .8-2.93 2.8-3.34 3.2-.66 6.41-.39 9.61-.26 3.2.26 6.27.66 9.48 1.6 5.86 1.74 10.41 5.08 13.09 10.68 1.21 2.55 1.85 5.33 1.87 8.15.14 3.74-.14 7.35-1.6 10.94-2.27 4.94-5.86 8.15-11.08 9.09-5.22.94-20.03.54-22.3.54-2 0-2.15-.26-2.15-2.27v-12.57a86.95 86.95 0 0 1-.14-11.75l.02-.12h.01Zm43.38 71.82c-2.27 6.01-6.41 10.16-12.28 12.41-3.2 1.2-6.41 1.95-9.77 1.74-4.14-.14-8.28 0-12.41-.8-5.61-1.2-8.15-6.55-8.55-10.41-.66-6.81-.26-13.76-.39-18.83v-17.63c0-2.15.26-2.8 2.54-2.8l12.55.14 8.55.98c6.01 1.34 11.48 3.61 15.76 8.28 3.47 3.74 5.34 8.28 5.74 13.22.39 4.67.14 9.21-1.6 13.62l-.15.1v-.02Z" style="fill:#599642" vector-effect="non-scaling-stroke"/><path d="m648.45 318.07 3.47.54c3.74.14 8.15-1.2 9.48-6.41.73-2.49.73-5.13 0-7.62-.8 0-1.2.66-1.6.94-2 1.6-4.27 2.54-6.67 2.8-4.81.54-9.61.26-14.28-1.47l-6.55-2.27a38.69 38.69 0 0 0-14.17-1.86c-6.81.54-13.22 2.8-19.23 6.01-6.41 3.47-10.94 8.68-13.09 15.76-1.2 4.14-1.34 8.4-.8 12.68 1.34 9.75 6.41 16.56 15.49 20.17.54.14.94.39 1.47.54 1.2.66 1.34 1.34.26 2.27l-3.34 2.27-8.01 4.94c-2 1.2-2.27 2.15-1.6 4.27.79 2.49 2.27 4.71 4.27 6.41 1.83 1.57 3.91 2.84 6.15 3.74 1.47.66 1.47.98.14 2.15l-7.62 5.47c-2.54 1.95-5.08 3.91-7.21 6.41a13.178 13.178 0 0 0-3.2 12.02c.99 4.63 3.42 8.84 6.94 12.02 3.47 3.21 7.69 5.51 12.28 6.67 7.47 2.15 15.22 2.27 22.83.8 10.94-2 20.52-6.84 28.04-15.08 5.21-5.47 8.28-11.88 8.55-19.54.6-9.15-5.5-17.39-14.42-19.49l-7.21-1.34-22.03-1.95c-2.4-.14-4.81-.54-6.81-1.74-2.54-1.6-3.2-4.67-1.6-6.67 1.2-1.47 2.67-2.4 4.54-2.54l4.27-.39c8.44-.86 16.37-4.47 22.56-10.28 3.3-3.06 5.67-7 6.81-11.35 1.6-5.74 1.6-11.72.26-17.59-.39-1.47-.26-1.6 1.6-1.34l.06.06h-.03Zm-32.73 66.49c.8.14 1.6 0 2.4 0 5.61.26 11.35.66 16.82 2.15 1.79.53 3.53 1.2 5.21 2 5.34 2.93 7.35 8.01 6.67 13.48-.8 6.01-4.14 10.28-9.35 13.09-3.47 1.95-7.35 2.8-11.35 3.2-1.47.14-2.8 0-4.27 0-4.67.14-9.21-.39-13.62-2.27-3.07-1.2-5.61-2.93-7.87-5.34-4.67-4.67-6.84-13.22.14-20.17 4.27-3.91 9.09-6.67 15.22-6.16v.02Zm15.22-41.66c-2.8 7.07-8.95 9.21-15.08 8.28-5.61-.8-9.75-3.87-12.41-8.95-3.47-6.81-4.4-13.87-2.4-21.23 1.47-5.47 4.81-9.61 10.68-10.55 7.47-1.34 14.66 1.34 18.43 8.81 1.95 3.61 2.8 8.01 2.8 14.28-.14 2.54-.66 6.01-2 9.35h-.02Zm-168.22-9.07c-1.2-7.21-3.87-13.76-8.81-19.23-7.35-8.15-16.69-11.72-27.24-11.75-9.21-.14-17.88 2.54-25.64 7.35a34.717 34.717 0 0 0-15.62 20.43c-2.27 7.75-2.15 15.63-.39 23.5 4.67 21.1 20.97 30.17 40.45 28.84 5.74-.39 11.22-2.27 16.41-4.81 7.75-3.61 13.36-9.35 17.22-16.96 3.07-6.27 4.4-12.96 4.27-20.57l-.66-6.81Zm-18.95 29.66a16.226 16.226 0 0 1-13.76 11.22c-5.86.8-11.35-.66-16.29-4.14a27.692 27.692 0 0 1-8.41-10.01c-5.47-11.22-6.41-22.96-3.61-34.98.9-3.72 2.85-7.1 5.61-9.75 4.94-4.54 10.68-5.61 17.1-4.27 6.16 1.34 10.82 4.67 14.66 9.75s5.61 10.94 6.67 17.1c.54 3.07.54 6.27.66 8.28 0 6.41-.54 11.72-2.54 16.82h-.09v-.02Zm310.69-28.58c-.98-7.75-3.87-14.82-9.35-20.69-7.21-7.87-16.56-11.22-26.97-11.35-8.95-.14-17.22 2.4-24.84 6.81-8.55 5.08-14.42 12.28-16.69 22.03a46.613 46.613 0 0 0 3.2 31.77c4.4 9.35 11.88 15.36 21.77 18.03 10.94 2.93 21.37 1.6 31.51-3.34 8.81-4.27 15.08-10.94 18.69-20.03 2.15-5.34 2.93-11.08 3.07-17.76.14-1.2-.14-3.34-.39-5.47Zm-18.43 26.85c-2.15 7.21-6.67 11.88-14.28 12.96-5.61.8-10.94-.54-15.76-3.74-4.14-2.8-7.07-6.55-9.21-10.94-2.4-4.67-3.74-9.61-4.27-14.68-.8-6.27-.8-12.41.66-18.69.28-1.24.68-2.45 1.2-3.61 3.74-9.35 12.02-13.62 21.77-11.48 6.55 1.47 11.48 5.08 15.22 10.55 3.61 5.34 5.34 11.22 6.16 17.59.39 2.54.54 5.21.39 7.47 0 5.21-.39 10.01-1.95 14.68l.08-.11Z" vector-effect="non-scaling-stroke"/><path d="M0 0h1012.26v74H0z" style="fill:none"/></svg>