<?xml version="1.0" encoding="UTF-8"?>
<svg id="Layer_1" data-name="Layer 1" xmlns="http://www.w3.org/2000/svg" viewBox="0 0 1044.48 630.12">
  <path d="M246.45,164.35h197v15.66h-178.94v117.84h168.27v15.66h-168.27v129.38h180.99v15.66H246.45V164.35Zm214.65,0h20.93l92.75,129.38,94.81-129.38L798.54,0l-211.85,307.32,109.17,151.22h-21.75l-99.32-137.62-99.73,137.62h-21.34l109.99-151.22-102.6-142.98Zm242.55,15.66v-15.66h224.5v15.66h-103.42V458.55h-18.06V180h-103.01ZM0,164.35H22.57l311.26,465.78-128.63-171.58L18.88,186.6l-.82,271.95H0V164.35ZM926.33,438.16c-3.69,0-6.46-2.86-6.46-6.55s2.77-6.55,6.46-6.55,6.46,2.86,6.46,6.55-2.72,6.55-6.46,6.55Zm17.74-17.24h9.66c.13,5.23,3.95,8.75,9.57,8.75,6.28,0,9.84-3.78,9.84-10.86v-44.86h9.84v44.9c0,12.75-7.38,20.1-19.59,20.1-11.46,0-19.33-7.12-19.33-18.03Zm51.78-.57h9.75c.83,6.03,6.72,9.85,15.2,9.85,7.91,0,13.7-4.09,13.7-9.72,0-4.84-3.69-7.74-12.08-9.72l-8.17-1.98c-11.46-2.68-16.69-8.22-16.69-17.55,0-11.3,9.22-18.82,23.06-18.82,12.87,0,22.27,7.52,22.84,18.21h-9.57c-.92-5.85-6.02-9.5-13.4-9.5-7.77,0-12.96,3.74-12.96,9.46,0,4.53,3.34,7.12,11.6,9.06l6.98,1.72c13,3.03,18.36,8.31,18.36,17.86,0,12.14-9.4,19.75-24.42,19.75-14.05,0-23.5-7.26-24.2-18.6Z" vector-effect="non-scaling-stroke"/>
</svg>