<svg xmlns="http://www.w3.org/2000/svg" id="Layer_1" data-name="Layer 1" viewBox="0 0 1025 424.35"><defs><style>.cls-1{fill:#83cd29}</style></defs><path d="M939.53 240.92c-2.45 0-4.84.51-6.95 1.7l-66.76 38.55c-4.32 2.49-6.95 7.19-6.95 12.19v76.97c0 5 2.63 9.69 6.95 12.19l17.43 10.05c8.47 4.18 11.6 4.11 15.45 4.11 12.54 0 19.7-7.61 19.7-20.84v-75.93c0-1.07-.93-1.84-1.98-1.84h-8.36c-1.07 0-1.98.79-1.98 1.84v75.97c0 5.86-6.11 11.76-16.02 6.8l-18.12-10.63c-.64-.35-1.13-.99-1.13-1.7v-76.97c0-.73.49-1.47 1.13-1.84l66.62-38.41a1.95 1.95 0 0 1 1.98 0l66.62 38.41c.63.38 1.13 1.09 1.13 1.84v76.97c0 .73-.37 1.49-.99 1.84l-66.76 38.42c-.59.34-1.38.34-1.98 0l-17.15-10.2c-.51-.3-1.21-.28-1.7 0-4.73 2.68-5.62 2.99-10.06 4.53-1.09.38-2.76.97.57 2.84l22.39 13.2c2.13 1.23 4.51 1.84 6.95 1.84s4.81-.59 6.95-1.84l66.76-38.41c4.32-2.51 6.95-7.19 6.95-12.19v-76.97c0-5-2.63-9.69-6.95-12.19l-66.76-38.55c-2.09-1.19-4.49-1.7-6.95-1.7l-.03-.04Zm17.86 54.99c-19.01 0-30.33 8.09-30.33 21.54 0 14.58 11.24 18.6 29.48 20.41 21.83 2.14 23.53 5.34 23.53 9.64 0 7.45-5.94 10.63-19.99 10.63-17.64 0-21.52-4.4-22.82-13.2-.15-.94-.88-1.7-1.84-1.7h-8.67c-1.09.02-1.96.9-1.98 1.98 0 11.23 6.11 24.52 35.29 24.52 21.12 0 33.31-8.27 33.31-22.82s-9.84-18.27-30.33-20.98c-20.69-2.76-22.68-4.08-22.68-8.93 0-4 1.67-9.36 17.01-9.36 13.7 0 18.76 2.96 20.84 12.19.18.87.95 1.58 1.84 1.58h8.67c.53 0 1.05-.33 1.42-.71.36-.41.62-.87.57-1.42-1.34-15.91-11.95-23.39-33.31-23.39v.02Z" class="cls-1" vector-effect="non-scaling-stroke"/><path d="M546.8 140c-.75 0-1.48.2-2.13.57a4.313 4.313 0 0 0-2.13 3.69v108.43c0 1.06-.5 2.02-1.42 2.55-.92.54-2.06.54-2.98 0l-17.72-10.2a8.492 8.492 0 0 0-8.5 0l-70.73 40.82c-2.64 1.52-4.26 4.46-4.26 7.51v81.64c0 3.04 1.62 5.85 4.25 7.37l70.73 40.82a8.444 8.444 0 0 0 8.5 0l70.73-40.82a8.47 8.47 0 0 0 4.25-7.37V171.47c0-3.1-1.69-6-4.39-7.51l-42.08-23.53c-.66-.37-1.39-.43-2.13-.43h.01ZM91.81 241.91c-1.35.06-2.62.29-3.83.99l-70.73 40.83c-2.64 1.51-4.25 4.33-4.25 7.37l.14 109.57c0 1.52.79 2.94 2.13 3.68 1.31.79 2.94.79 4.25 0l41.96-24.1c2.66-1.58 4.39-4.33 4.39-7.37v-51.17c0-3.05 1.61-5.85 4.26-7.37l17.86-10.35a8.35 8.35 0 0 1 4.25-1.13c1.49 0 2.96.38 4.25 1.13l17.85 10.34c2.65 1.52 4.25 4.32 4.25 7.37v51.17c0 3.05 1.77 5.81 4.39 7.37l41.96 24.1c1.32.79 2.95.79 4.25 0 1.3-.75 2.13-2.16 2.13-3.68l.14-109.57a8.438 8.438 0 0 0-4.25-7.37L96.48 242.9c-1.2-.7-2.47-.94-3.83-.99h-.84Zm635.57.99c-1.49 0-2.96.39-4.25 1.13l-70.73 40.82a8.5 8.5 0 0 0-4.26 7.37v81.64c0 3.07 1.73 5.85 4.39 7.37l70.16 39.99c2.59 1.48 5.75 1.59 8.36.14l42.52-23.67c1.35-.75 2.26-2.15 2.27-3.68 0-1.54-.79-2.92-2.13-3.68l-71.16-40.82c-1.33-.76-2.27-2.3-2.27-3.83v-25.53c0-1.52.95-2.92 2.27-3.68l22.11-12.76c1.32-.76 2.93-.76 4.26 0l22.12 12.76c1.32.76 2.13 2.16 2.13 3.68v20.13c0 1.52.81 2.93 2.13 3.68 1.33.76 2.93.77 4.26 0l42.38-24.66a8.534 8.534 0 0 0 4.26-7.37v-19.7c0-3.04-1.62-5.85-4.25-7.37l-70.3-40.82a8.35 8.35 0 0 0-4.25-1.13h-.02ZM515.9 303.84c.4 0 .79.1 1.13.28l24.24 14.03c.66.38 1.13 1.08 1.13 1.84v28.06c0 .76-.47 1.46-1.13 1.84l-24.24 14.03c-.66.37-1.47.37-2.13 0l-24.24-14.03c-.66-.38-1.13-1.08-1.13-1.84v-28.07c0-.76.48-1.46 1.13-1.84l24.24-14.03c.33-.19.62-.28.99-.28h.01Z" vector-effect="non-scaling-stroke"/><path d="M304.32 242.51c-1.49 0-2.96.39-4.26 1.13l-70.73 40.68c-2.64 1.52-4.25 4.46-4.25 7.51v81.64c0 3.04 1.61 5.85 4.25 7.37l70.73 40.82a8.444 8.444 0 0 0 8.5 0l70.73-40.82a8.47 8.47 0 0 0 4.25-7.37v-81.64c0-3.05-1.61-5.99-4.26-7.51l-70.73-40.68a8.36 8.36 0 0 0-4.26-1.13h.03Zm422.96 72.86c-.28 0-.59 0-.85.14l-13.61 7.94c-.52.29-.84.83-.85 1.42v15.59c0 .59.34 1.12.85 1.42l13.61 7.8c.48.3 1.08.3 1.56 0l13.61-7.8c.5-.29.85-.83.85-1.42v-15.59c0-.59-.34-1.12-.85-1.42l-13.61-7.94c-.25-.15-.43-.14-.71-.14Z" class="cls-1" vector-effect="non-scaling-stroke"/><path d="M0 0h1025v132H0z" style="fill:none"/></svg>