<svg xmlns="http://www.w3.org/2000/svg" xml:space="preserve" style="enable-background:new 0 0 650 699" viewBox="0 0 650 699"><path d="m276.2 141.2-116.1-59-127.4 64 119.2 60.4zm53.2 27.1 121.7 61.9-126.2 63.9-119.4-60.5zm162.5-85.2L617 146.2l-111.8 56.6-122-62zm-53.8-27.2L325.6-1 214.2 55l116 58.9zm-87.9 488.3V699l136.3-68.5-.1-154.9zm136.1-122.6-.2-153.2-135.9 68.1v153.2zM650 392.9v155.3l-116.3 58.5-.1-154.7zm0-54.4V186.3l-116.5 58.4.1 153.5z" style="fill:#4dabcf"/><path d="M302 336.5 210.2 290v201.1S97.9 250.2 87.5 228.6c-2.2-2.8-5-5.1-8.3-6.6C59 211.5 0 181.2 0 181.2v355.2l81.6 44V394.8S192.7 610 193.8 612.3c5.7 12.5 14 23.8 24.2 33 15.9 10.6 83.9 51.8 83.9 51.8l.1-360.6z" style="fill:#4d77cf"/></svg>