<svg xmlns="http://www.w3.org/2000/svg" width="507.207" height="427.827" viewBox="0 0 475.507 401.088"><defs><clipPath id="a" clipPathUnits="userSpaceOnUse"><path d="M23.236 72h548.528v324.764H23.236V72z"/></clipPath></defs><g clip-path="url(#a)" style="fill:#000;fill-opacity:1" transform="matrix(1.125 0 0 -1.125 -83.138 607.597)"><g style="fill:#000;fill-opacity:1"><text style="font-variant:normal;font-weight:700;font-size:174px;font-family:Ubuntu;-inkscape-font-specification:Ubuntu-Bold;writing-mode:lr-tb;fill:#000;fill-opacity:1;fill-rule:nonzero;stroke:none" transform="matrix(1 0 0 -1 72 186)">
            <tspan x="0 96.396004 180.438 270.74399 360.17999" y="0">Panel</tspan>
          </text></g></g><path d="M-1378.941 1138.766h113.117v113.231h-113.117z" style="opacity:1;fill:#0a4;fill-opacity:1;stroke:none;stroke-width:4;stroke-miterlimit:1;stroke-dasharray:none" transform="matrix(2 0 0 2 2757.882 -2277.533)"/><g transform="matrix(2 0 0 2 2757.882 -2277.533)"><path d="M-1361.41 1165.573h78.055v8h-78.055z" style="opacity:1;fill:#eee;fill-opacity:1;stroke:none;stroke-width:4;stroke-miterlimit:1;stroke-dasharray:none"/><circle cx="-1341.419" cy="1169.573" r="9" style="opacity:1;fill:#eee;fill-opacity:1;stroke:none;stroke-width:4;stroke-miterlimit:1;stroke-dasharray:none"/></g><g transform="matrix(2 0 0 2 2757.882 -2277.533)"><path d="M-1361.41 1191.382h78.055v8h-78.055z" style="opacity:1;fill:#eee;fill-opacity:1;stroke:none;stroke-width:4;stroke-miterlimit:1;stroke-dasharray:none"/><circle cx="-1305.411" cy="1195.382" r="9" style="opacity:1;fill:#eee;fill-opacity:1;stroke:none;stroke-width:4;stroke-miterlimit:1;stroke-dasharray:none"/></g><g transform="matrix(2 0 0 2 2757.882 -2277.533)"><path d="M-1361.41 1217.19h78.055v8h-78.055z" style="opacity:1;fill:#eee;fill-opacity:1;stroke:none;stroke-width:1;stroke-miterlimit:4;stroke-dasharray:none"/><circle cx="-1341.427" cy="1221.19" r="9" style="opacity:1;fill:#eee;fill-opacity:1;stroke:none;stroke-width:4;stroke-miterlimit:1;stroke-dasharray:none"/></g><path d="M377.235-306.851h226.233V-80.39H377.235z" style="opacity:1;fill:#0a4;fill-opacity:1;stroke:none;stroke-width:4;stroke-miterlimit:1;stroke-dasharray:none" transform="matrix(1 0 0 -1 -127.96 -80.39)"/><path d="m424.833 271.797-1.593-7.855h-3.276c-2.502 0-3.72-.441-5.155-1.867l-1.879-1.866-1.64 1.956c-.903 1.075-1.808 1.725-2.01 1.444-.828-1.15-7.846-31.35-7.846-33.766 0-2.814 1.706 2.94 4.24 14.301 1.52 6.809 3.093 13.34 3.497 14.514l.736 2.135 1.56-1.58c1.446-1.465 1.683-1.481 3.244-.219.926.75 3.398 1.618 5.493 1.93l3.81.57 1.508 7.333c.83 4.034 1.643 7.334 1.807 7.334.164 0 .856-1.216 1.539-2.701 1.23-2.68 1.257-2.693 3.323-1.655 4.246 2.134 6.885-2.14 10.28-16.652.868-3.71 1.66-6.047 2.047-6.044.348 0 1.245 2.16 1.993 4.796.747 2.635 1.45 4.793 1.562 4.796.112 0 .932-2.647 1.824-5.887.892-3.241 2.433-7.66 3.424-9.82l1.803-3.927 1.48 3.824c1.263 3.265 1.51 3.584 1.687 2.182.116-.903.876-11.56 1.694-23.68 1.65-24.463 1.606-24.253 4.172-19.857 1.558 2.669 2.87 2.683 4.396.048.046-.084.866-5.824 1.818-12.756.95-6.933 2.507-16.893 3.456-22.133 1.654-9.12 1.804-9.615 3.496-11.546 1.9-2.168 2.08-2.919 4.16-17.33 1.113-7.717 1.33-8.291 3.117-8.291h1.466l1.595-10.094c.877-5.551 1.595-10.461 1.595-10.91 0-.449.328-.816.728-.816.62 0 .945 2.03 2.168 13.528.79 7.44 1.556 13.527 1.7 13.524.141 0 .815-2.752 1.493-6.11.677-3.357 1.475-6.104 1.773-6.104.362 0 1.088 4.14 2.182 12.437.901 6.84 2.45 18.196 3.44 25.234 1.765 12.527 1.828 12.805 3 13.207.658.225 1.346.212 1.528-.03.182-.242 1.016-3.734 1.851-7.759 1.346-6.48 1.73-7.584 3.36-9.64 1.013-1.276 2.592-4.415 3.51-6.975.919-2.56 1.883-4.654 2.144-4.654.481 0 3.213 9.375 6.013 20.636 1.44 5.789 1.673 7.752 3.262 27.493l1.711 21.26 1.344 1.526c.739.839 2.148 1.526 3.132 1.527h1.79l1.675-8.333c1.337-6.643 2.049-9.032 3.511-11.783 1.01-1.898 1.941-3.45 2.072-3.45.128 0 1.264 1.7 2.52 3.776 3.46 5.721 4.311 6.314 6.128 4.267.824-.93 1.724-1.512 1.999-1.293.274.22 1.126 3.195 1.893 6.614l1.393 6.216 1.44-9.195c.793-5.057 1.558-9.62 1.7-10.138.143-.52 1.13-1.413 2.193-1.986l1.932-1.04 1.805 3.321c2.458 4.524 5.148 13.764 7.297 25.063 1.709 8.984 3.895 17.162 4.589 17.162.176 0 .322.786.322 1.746s-.164 1.745-.366 1.745c-.832 0-3.925-10.656-5.45-18.78-1.988-10.597-4.945-21.032-7.018-24.775-1.45-2.618-1.624-2.72-3.033-1.772-1.413.952-1.542 1.342-2.381 7.238-1.617 11.346-2.394 15.396-2.953 15.396-.303 0-1.262-3.175-2.131-7.057-1.272-5.685-1.708-6.938-2.239-6.439-2.65 2.49-2.71 2.501-4.365.826-.898-.91-2.354-2.944-3.237-4.52-.883-1.577-1.78-2.87-1.994-2.872-1.1-.02-3.246 6.273-4.837 14.171l-1.715 8.51h-2.23c-2.83 0-5.686-2.592-5.963-5.412-.108-1.104-.918-11.04-1.798-22.082-1.731-21.719-1.658-21.267-5.956-36.875-1.09-3.96-2.078-7.2-2.194-7.2-.118-.001-.857 1.9-1.647 4.225-.85 2.502-2.085 4.885-3.028 5.84-1.42 1.438-1.802 2.552-3.526 10.266l-1.933 8.652-1.822-.595c-1.002-.327-2.026-1.056-2.276-1.619-.381-.859-5.365-36.038-6.173-43.572-.14-1.32-.423-2.4-.626-2.4-.204 0-.913 2.765-1.577 6.145-1.763 8.964-2.14 8.25-3.79-7.19-.753-7.047-1.482-13.058-1.62-13.358-.136-.3-.727 2.72-1.308 6.71-1.472 10.117-1.822 11.184-3.67 11.184h-1.518l-1.678 11.492-1.678 11.493-1.811 1.818c-1.79 1.796-1.832 1.934-3.585 11.855-.976 5.52-2.496 15.34-3.379 21.82-.882 6.48-1.772 12.245-1.976 12.81-.204.565-1.132 1.609-2.06 2.32-1.626 1.243-1.74 1.211-3.115-.888-.785-1.197-1.51-1.993-1.61-1.766-.1.226-.911 10.91-1.8 23.741-1.15 16.568-1.776 23.466-2.161 23.798-.317.273-.97-.746-1.57-2.446a932.076 932.076 0 0 0-1.516-4.276c-.428-1.19-.68-.888-2.027 2.428-.845 2.084-2.283 6.503-3.194 9.82-.966 3.512-1.924 6.03-2.297 6.03-.36 0-1.207-2.101-1.936-4.801-.712-2.64-1.39-4.797-1.505-4.793-.116 0-.82 2.597-1.569 5.763-.748 3.166-2.322 8.043-3.497 10.838-1.827 4.343-2.397 5.166-3.923 5.662-.981.32-2.45.168-3.264-.338-1.255-.778-1.638-.663-2.524.754-.575.919-1.27 2.278-1.543 3.02-1.076 2.912-1.796 1.546-3.429-6.505z" style="fill-opacity:1;stroke:#eee;stroke-width:11;stroke-linejoin:round;stroke-miterlimit:0;stroke-dasharray:none" transform="translate(-127.96 -80.39)"/></svg>