<svg xmlns="http://www.w3.org/2000/svg" xml:space="preserve" id="svg2" x="0" y="0" style="enable-background:new 0 0 111.7 113.2" version="1.1" viewBox="0 0 111.7 113.2"><style>.st0{fill:url(#path1948_00000031889321475216542820000007067700600516562819_)}.st1{fill:url(#path1950_00000014595182571851411070000000632972642491458987_)}.st2{opacity:.4438;fill:url(#path1894_00000170970522197864989930000008498780003400431009_);enable-background:new}</style><linearGradient id="path1948_00000064319490135928074490000007577672372205151132_" x1="296.311" x2="405.327" y1="-186.945" y2="-280.738" gradientTransform="matrix(.5625 0 0 -.568 -169.414 -102.979)" gradientUnits="userSpaceOnUse"><stop offset="0" style="stop-color:#5a9fd4"/><stop offset="1" style="stop-color:#306998"/></linearGradient><path id="path1948" d="M54.9 0c-4.6 0-9 .4-12.8 1.1-11.3 2-13.4 6.2-13.4 13.9v10.2h26.8v3.4H18.6c-7.8 0-14.6 4.7-16.8 13.6-2.5 10.2-2.6 16.6 0 27.2C3.7 77.3 8.3 83 16 83h9.2V70.8c0-8.8 7.7-16.7 16.8-16.7h26.8c7.5 0 13.4-6.1 13.4-13.6V15c0-7.3-6.1-12.7-13.4-13.9C64.3.3 59.5 0 54.9 0zM40.4 8.2c2.8 0 5 2.3 5 5.1s-2.3 5.1-5 5.1c-2.8 0-5-2.3-5-5.1s2.2-5.1 5-5.1z" style="fill:url(#path1948_00000064319490135928074490000007577672372205151132_)"/><linearGradient id="path1950_00000101062663741230501810000008241570906311286171_" x1="447.474" x2="408.544" y1="-337.506" y2="-282.428" gradientTransform="matrix(.5625 0 0 -.568 -169.414 -102.979)" gradientUnits="userSpaceOnUse"><stop offset="0" style="stop-color:#ffd43b"/><stop offset="1" style="stop-color:#ffe873"/></linearGradient><path id="path1950" d="M85.6 28.7v11.9c0 9.2-7.8 17-16.8 17H42.1c-7.3 0-13.4 6.3-13.4 13.6v25.5c0 7.3 6.3 11.5 13.4 13.6 8.5 2.5 16.6 2.9 26.8 0 6.8-2 13.4-5.9 13.4-13.6V86.5H55.5v-3.4h40.2c7.8 0 10.7-5.4 13.4-13.6 2.8-8.4 2.7-16.5 0-27.2-1.9-7.8-5.6-13.6-13.4-13.6H85.6zm-15 64.6c2.8 0 5 2.3 5 5.1s-2.3 5.1-5 5.1c-2.8 0-5-2.3-5-5.1-.1-2.8 2.2-5.1 5-5.1z" style="fill:url(#path1950_00000101062663741230501810000008241570906311286171_)"/><radialGradient id="path1894_00000163040962161178083150000001840481015798434224_" cx="-1741.801" cy="-14.988" r="29.037" gradientTransform="matrix(0 -.2399 -1.0547 0 40.01 -290.24)" gradientUnits="userSpaceOnUse"><stop offset="0" style="stop-color:#b8b8b8;stop-opacity:.498"/><stop offset="1" style="stop-color:#7f7f7f;stop-opacity:0"/></radialGradient><ellipse id="path1894" cx="55.8" cy="127.7" rx="35.9" ry="7" style="opacity:.4438;fill:url(#path1894_00000163040962161178083150000001840481015798434224_);enable-background:new"/></svg>