<?xml version="1.0" encoding="utf-8"?>
<!-- Generator: Adobe Illustrator 27.0.0, SVG Export Plug-In . SVG Version: 6.00 Build 0)  -->
<svg version="1.1" id="Layer_1" xmlns="http://www.w3.org/2000/svg" xmlns:xlink="http://www.w3.org/1999/xlink" x="0px" y="0px"
	 viewBox="0 0 387.3 384.3" style="enable-background:new 0 0 387.3 384.3;" xml:space="preserve">
<g transform="translate(0.000000,449.000000) scale(0.100000,-0.100000)">
	<path d="M3048,4478.3c-27-33,18-72,48-42c13,13,14,20,6,34C3087,4493.3,3064,4496.3,3048,4478.3z"/>
	<path d="M3,4470.3c-3-7-4-870-3-1918l3-1905h1935c1928,0,1935,0,1935,20s-8,20-1912,23l-1913,2l-2,1892c-3,1795-4,1893-21,1896
		C16,4482.3,6,4478.3,3,4470.3z"/>
	<path d="M2969,4455.3c-5-11-6-25-1-33c5-9,1-19-13-30c-22-19-18-46,9-57c24-9,51,23,38,44c-8,14-6,21,10,35c17,13,19,20,10,35
		C3007,4474.3,2981,4477.3,2969,4455.3z"/>
	<path d="M3092,4314.3c-22-20-43-44-46-52s-33-47-67-87c-51-59-66-71-88-70c-26,2-28-1-29-36c-1-50-23-74-52-56c-17,10-23,10-36,0
		c-20-17-20-30-1-51c13-14-4-37-156-218c-149-177-172-201-183-187c-17,23-50,15-54-13c-2-15,3-25,17-30c19-7,12-18-75-122
		c-53-63-105-118-115-122c-11-4-19-16-19-27s-4-23-10-26c-5-3-10-2-10,3c0,13-27,23-45,16c-19-8-20-50-2-61c10-6-8-33-69-105
		c-46-54-86-93-89-88c-3,6-17,10-30,10c-12,0-26,7-29,16c-10,27-51,13-54-18c-2-18,2-29,10-30c7,0,18-2,24-2c6-1,19-9,28-19
		c16-16,13-22-70-119c-76-89-92-103-118-103c-25,0-32-5-34-24c-2-13,1-27,6-30c6-4,1-17-13-33c-20-23-25-25-35-13c-18,22-48,18-56-7
		c-4-14-1-25,10-33c9-7,16-17,16-22c0-15-45-53-63-53s-37-28-30-45c2-6-109-146-247-310c-192-229-257-301-278-305s-27-11-27-33
		c-1-17-16-44-40-72c-22-25-89-106-150-180c-60-73-116-134-123-134c-8-1-19-14-25-30c-9-25-13-27-29-18c-13,9-23,9-35,1
		c-24-15-26-29-8-48c15-15,11-23-62-109c-44-50-88-94-99-95c-24-5-44-30-37-48c3-7-11-32-31-56c-20-23-36-50-36-60
		c0-40,39-11,122,89c77,92,87,100,101,86c32-32,73,13,42,47c-16,18-9,28,172,244c103,124,196,228,206,231c9,4,17,12,17,20
		c0,7,37,58,83,113c86,106,108,119,140,82c14-17,21-19,38-10c30,17,22,54-13,58c-19,2-28,9-28,21c0,27,28,46,61,43c34-4,49,20,31,49
		c-10,15-7,21,18,39c17,12,30,27,30,35c0,21,91,125,110,125c22,0,44,25,37,43c-7,20,30,59,50,53c29-9,46,8,40,40
		c-4,25,11,48,135,196c108,128,146,168,167,170s27,9,32,39c3,22,22,56,48,87c40,47,45,50,68,39c21-9,27-8,39,8s12,22,0,40
		s-11,24,3,42c17,20,18,20,29,2c16-25,39-24,52,1c8,15,6,24-9,39c-20,20-20,20,41,93c33,40,69,82,79,93s77,91,149,177
		c126,152,131,157,161,151c39-7,54,12,34,44c-13,19-12,24,3,43c9,11,28,26,42,33c13,7,27,22,30,34c9,38,82,123,106,123
		c28,0,47,24,39,49c-3,10-1,22,4,25c5,4,12-3,16-14c9-27,55-27,62,0c3,13,14,20,28,20c27,0,40,26,24,46c-17,21-50,17-56-6
		c-3-11-14-20-25-20c-26,0-25,3,62,107c65,78,79,90,105,89c28-1,30,1,30,36c0,27,8,45,31,70c51,55,86,107,79,118
		C3152,4359.3,3134,4353.3,3092,4314.3z"/>
	<path d="M3085,4208.3c-11-28,4-47,32-44c20,2,26,8,26,28s-6,26-26,28C3100,4222.3,3088,4217.3,3085,4208.3z"/>
	<path d="M2888,4187.3c-15-18-7-43,16-52c24-9,46,24,33,48C2925,4206.3,2905,4207.3,2888,4187.3z"/>
	<path d="M2662,4068.3c-10-26,4-48,28-44c17,2,23,10,23,28s-6,26-23,28C2677,4082.3,2665,4077.3,2662,4068.3z"/>
	<path d="M2562,3978.3c-10-26,4-48,28-44c17,2,23,10,23,28s-6,26-23,28C2577,3992.3,2565,3987.3,2562,3978.3z"/>
	<path d="M3092,3977.3c-15-11-17-17-8-32c21-34,63-25,64,14C3148,3981.3,3113,3993.3,3092,3977.3z"/>
	<path d="M2634,3889.3c-24-17-17-51,11-55c30-4,49,31,27,52C2653,3905.3,2656,3905.3,2634,3889.3z"/>
	<path d="M2542,3848.3c-10-26,4-48,28-44c17,2,23,10,23,28s-6,26-23,28C2557,3862.3,2545,3857.3,2542,3848.3z"/>
	<path d="M2735,3738.3c-11-28,4-47,32-44c20,2,26,8,26,28s-6,26-26,28C2750,3752.3,2738,3747.3,2735,3738.3z"/>
	<path d="M2375,3716.3c-23-23,7-69,37-58c25,10,17,58-9,62C2391,3722.3,2379,3720.3,2375,3716.3z"/>
	<path d="M2315,3546.3c-13-13-7-52,9-58c22-9,46,13,42,38C2363,3547.3,2329,3560.3,2315,3546.3z"/>
	<path d="M2288,3468.3c-27-33,18-72,48-42c13,13,14,20,6,34C2327,3483.3,2304,3486.3,2288,3468.3z"/>
	<path d="M2446,3394.3c-7-11-22-21-33-23c-30-6-27-53,3-57c17-3,25,2,29,17c3,12,15,21,32,23c20,2,26,8,26,28
		C2503,3414.3,2466,3422.3,2446,3394.3z"/>
	<path d="M2135,3366.3c-13-13-7-52,9-58c22-9,46,13,42,38C2183,3367.3,2149,3380.3,2135,3366.3z"/>
	<path d="M1945,3296.3c-13-13-7-52,8-58c27-10,46,5,43,33C1993,3297.3,1961,3312.3,1945,3296.3z"/>
	<path d="M2340,3250.3c-30-30,1-73,36-51c23,14,25,29,7,47C2363,3265.3,2356,3266.3,2340,3250.3z"/>
	<path d="M1991,3195.3c-17-6-16-38,1-52c28-23,68,17,45,45C2025,3202.3,2013,3204.3,1991,3195.3z"/>
	<path d="M2505,3186.3c-13-13-7-52,9-58c22-9,46,13,42,38C2553,3187.3,2519,3200.3,2505,3186.3z"/>
	<path d="M2308,3118.3c-27-33,18-72,48-42c13,13,14,20,6,34C2347,3133.3,2324,3136.3,2308,3118.3z"/>
	<path d="M1948,3098.3c-27-33,18-72,48-42c13,13,14,20,6,34C1987,3113.3,1964,3116.3,1948,3098.3z"/>
	<path d="M1719,2819.3c-14-17-6-43,16-51c22-9,45,13,41,38S1736,2839.3,1719,2819.3z"/>
	<path d="M2005,2748.3c-11-28,4-47,32-44c20,2,26,8,26,28s-6,26-26,28C2020,2762.3,2008,2757.3,2005,2748.3z"/>
	<path d="M1912,2658.3c-10-26,4-48,28-44c17,2,23,10,23,28s-6,26-23,28C1927,2672.3,1915,2667.3,1912,2658.3z"/>
	<path d="M1805,2625.3c-14-13-7-43,12-53c15-7,23-6,35,6c19,19,20,26,4,42C1843,2633.3,1815,2636.3,1805,2625.3z"/>
	<path d="M1639,2459.3c-14-17-6-43,16-51c22-9,45,13,41,38S1656,2479.3,1639,2459.3z"/>
	<path d="M1218,2447.3c-19-23-8-50,20-50c19,0,26,6,28,24C1271,2456.3,1240,2474.3,1218,2447.3z"/>
	<path d="M1822,2424.3c-14-17-20-18-35-9s-22,8-35-5c-19-19-13-45,12-55c11-4,23,1,33,14c13,15,20,17,34,9c24-15,56,17,41,41
		C1856,2444.3,1841,2446.3,1822,2424.3z"/>
	<path d="M1322,2408.3c-10-26,4-48,28-44c17,2,23,10,23,28s-6,26-23,28C1337,2422.3,1325,2417.3,1322,2408.3z"/>
	<path d="M1730,2340.3c-17-17-15-45,4-52c25-10,33-7,44,13c7,15,6,23-6,35C1753,2355.3,1746,2356.3,1730,2340.3z"/>
	<path d="M1825,2228.3c-11-28,4-47,32-44c20,2,26,8,26,28s-6,26-26,28C1840,2242.3,1828,2237.3,1825,2228.3z"/>
	<path d="M1212,2218.3c-10-26,4-48,28-44c17,2,23,10,23,28s-6,26-23,28C1227,2232.3,1215,2227.3,1212,2218.3z"/>
	<path d="M1464,2186.3c-9-22,12-46,38-42c15,2,21,10,21,28c0,20-6,26-26,28C1479,2202.3,1468,2197.3,1464,2186.3z"/>
	<path d="M1388,2158.3c-27-33,18-72,48-42c13,13,14,20,6,34C1427,2173.3,1404,2176.3,1388,2158.3z"/>
	<path d="M1772,2108.3c-10-26,4-48,28-44c17,2,23,10,23,28s-6,26-23,28C1787,2122.3,1775,2117.3,1772,2108.3z"/>
	<path d="M933,2096.3c-18-18-16-33,7-47c21-14,48-2,48,22C988,2101.3,954,2116.3,933,2096.3z"/>
	<path d="M1050,2073.3c-8-4-12-19-10-32c2-18,9-24,28-24s26,6,28,24c3,20-11,41-28,41C1065,2082.3,1057,2078.3,1050,2073.3z"/>
	<path d="M1575,2048.3c-11-28,4-47,32-44c20,2,26,8,26,28s-6,26-26,28C1590,2062.3,1578,2057.3,1575,2048.3z"/>
	<path d="M1342,1957.3c-10-25,4-45,30-45c13,0,26,7,30,15c9,25-5,45-30,45C1358,1972.3,1345,1965.3,1342,1957.3z"/>
	<path d="M980,1905.3c2-22,8-28,28-28s25,5,25,25s-6,26-28,28C979,1933.3,977,1931.3,980,1905.3z"/>
	<path d="M882,1828.3c-10-26,4-48,28-44c17,2,23,10,23,28s-6,26-23,28C897,1842.3,885,1837.3,882,1828.3z"/>
	<path d="M681,1605.3c-22-8-15-51,8-58c27-9,42,6,37,36C723,1607.3,705,1615.3,681,1605.3z"/>
	<path d="M575,1498.3c-11-28,4-47,32-44c20,2,26,8,26,28s-6,26-26,28C590,1512.3,578,1507.3,575,1498.3z"/>
	<path d="M895,1469.3c-8-22,16-50,39-45c13,2,19,12,19,28c0,20-6,26-26,28C911,1482.3,898,1477.3,895,1469.3z"/>
	<path d="M758,1267.3c-19-23-8-50,20-50c19,0,26,6,28,24C811,1276.3,780,1294.3,758,1267.3z"/>
	<path d="M382,1227.3c-9-23,3-45,24-45c11,0,25,7,32,15c16,19-3,45-32,45C396,1242.3,385,1235.3,382,1227.3z"/>
	<path d="M208,948.3c-27-33,18-72,48-42c13,13,14,20,6,34C247,963.3,224,966.3,208,948.3z"/>
	<path d="M385,925.3c-14-13-7-43,12-53c28-14,55,13,41,41C428,932.3,398,939.3,385,925.3z"/>
	<path d="M293,826.3c-18-18-16-33,7-47c35-22,66,21,36,51C320,846.3,313,845.3,293,826.3z"/>
</g>
</svg>
