<svg xmlns="http://www.w3.org/2000/svg" xml:space="preserve" style="enable-background:new 0 0 387.3 384.3" viewBox="0 0 387.3 384.3"><path d="M304.8 1.17c-2.7 3.3 1.8 7.2 4.8 4.2 1.3-1.3 1.4-2 .6-3.4-1.5-2.3-3.8-2.6-5.4-.8zM.3 1.97c-.3.7-.4 87-.3 191.8l.3 190.5h193.5c192.8 0 193.5 0 193.5-2s-.8-2-191.2-2.3l-191.3-.2-.2-189.2C4.3 11.07 4.2 1.27 2.5.97c-.9-.2-1.9.2-2.2 1zm296.6 1.5c-.5 1.1-.6 2.5-.1 3.3.5.9.1 1.9-1.3 3-2.2 1.9-1.8 4.6.9 5.7 2.4.9 5.1-2.3 3.8-4.4-.8-1.4-.6-2.1 1-3.5 1.7-1.3 1.9-2 1-3.5-1.5-2.5-4.1-2.8-5.3-.6z"/><path d="M309.2 17.57c-2.2 2-4.3 4.4-4.6 5.2s-3.3 4.7-6.7 8.7c-5.1 5.9-6.6 7.1-8.8 7-2.6-.2-2.8.1-2.9 3.6-.1 5-2.3 7.4-5.2 5.6-1.7-1-2.3-1-3.6 0-2 1.7-2 3-.1 5.1 1.3 1.4-.4 3.7-15.6 21.8-14.9 17.7-17.2 20.1-18.3 18.7-1.7-2.3-5-1.5-5.4 1.3-.2 1.5.3 2.5 1.7 3 1.9.7 1.2 1.8-7.5 12.2-5.3 6.3-10.5 11.8-11.5 12.2-1.1.4-1.9 1.6-1.9 2.7s-.4 2.3-1 2.6c-.5.3-1 .2-1-.3 0-1.3-2.7-2.3-4.5-1.6-1.9.8-2 5-.2 6.1 1 .6-.8 3.3-6.9 10.5-4.6 5.4-8.6 9.3-8.9 8.8-.3-.6-1.7-1-3-1-1.2 0-2.6-.7-2.9-1.6-1-2.7-5.1-1.3-5.4 1.8-.2 1.8.2 2.9 1 3 .7 0 1.8.2 2.4.2.6.1 1.9.9 2.8 1.9 1.6 1.6 1.3 2.2-7 11.9-7.6 8.9-9.2 10.3-11.8 10.3-2.5 0-3.2.5-3.4 2.4-.2 1.3.1 2.7.6 3 .6.4.1 1.7-1.3 3.3-2 2.3-2.5 2.5-3.5 1.3-1.8-2.2-4.8-1.8-5.6.7-.4 1.4-.1 2.5 1 3.3.9.7 1.6 1.7 1.6 2.2 0 1.5-4.5 5.3-6.3 5.3s-3.7 2.8-3 4.5c.2.6-10.9 14.6-24.7 31-19.2 22.9-25.7 30.1-27.8 30.5s-2.7 1.1-2.7 3.3c-.1 1.7-1.6 4.4-4 7.2-2.2 2.5-8.9 10.6-15 18-6 7.3-11.6 13.4-12.3 13.4-.8.1-1.9 1.4-2.5 3-.9 2.5-1.3 2.7-2.9 1.8-1.3-.9-2.3-.9-3.5-.1-2.4 1.5-2.6 2.9-.8 4.8 1.5 1.5 1.1 2.3-6.2 10.9-4.4 5-8.8 9.4-9.9 9.5-2.4.5-4.4 3-3.7 4.8.3.7-1.1 3.2-3.1 5.6-2 2.3-3.6 5-3.6 6 0 4 3.9 1.1 12.2-8.9 7.7-9.2 8.7-10 10.1-8.6 3.2 3.2 7.3-1.3 4.2-4.7-1.6-1.8-.9-2.8 17.2-24.4 10.3-12.4 19.6-22.8 20.6-23.1.9-.4 1.7-1.2 1.7-2 0-.7 3.7-5.8 8.3-11.3 8.6-10.6 10.8-11.9 14-8.2 1.4 1.7 2.1 1.9 3.8 1 3-1.7 2.2-5.4-1.3-5.8-1.9-.2-2.8-.9-2.8-2.1 0-2.7 2.8-4.6 6.1-4.3 3.4.4 4.9-2 3.1-4.9-1-1.5-.7-2.1 1.8-3.9 1.7-1.2 3-2.7 3-3.5 0-2.1 9.1-12.5 11-12.5 2.2 0 4.4-2.5 3.7-4.3-.7-2 3-5.9 5-5.3 2.9.9 4.6-.8 4-4-.4-2.5 1.1-4.8 13.5-19.6 10.8-12.8 14.6-16.8 16.7-17s2.7-.9 3.2-3.9c.3-2.2 2.2-5.6 4.8-8.7 4-4.7 4.5-5 6.8-3.9 2.1.9 2.7.8 3.9-.8s1.2-2.2 0-4-1.1-2.4.3-4.2c1.7-2 1.8-2 2.9-.2 1.6 2.5 3.9 2.4 5.2-.1.8-1.5.6-2.4-.9-3.9-2-2-2-2 4.1-9.3 3.3-4 6.9-8.2 7.9-9.3s7.7-9.1 14.9-17.7c12.6-15.2 13.1-15.7 16.1-15.1 3.9.7 5.4-1.2 3.4-4.4-1.3-1.9-1.2-2.4.3-4.3.9-1.1 2.8-2.6 4.2-3.3 1.3-.7 2.7-2.2 3-3.4.9-3.8 8.2-12.3 10.6-12.3 2.8 0 4.7-2.4 3.9-4.9-.3-1-.1-2.2.4-2.5.5-.4 1.2.3 1.6 1.4.9 2.7 5.5 2.7 6.2 0 .3-1.3 1.4-2 2.8-2 2.7 0 4-2.6 2.4-4.6-1.7-2.1-5-1.7-5.6.6-.3 1.1-1.4 2-2.5 2-2.6 0-2.5-.3 6.2-10.7 6.5-7.8 7.9-9 10.5-8.9 2.8.1 3-.1 3-3.6 0-2.7.8-4.5 3.1-7 5.1-5.5 8.6-10.7 7.9-11.8-1.1-1.7-2.9-1.1-7.1 2.8z"/><path d="M308.5 28.17c-1.1 2.8.4 4.7 3.2 4.4 2-.2 2.6-.8 2.6-2.8s-.6-2.6-2.6-2.8c-1.7-.2-2.9.3-3.2 1.2zm-19.7 2.1c-1.5 1.8-.7 4.3 1.6 5.2 2.4.9 4.6-2.4 3.3-4.8-1.2-2.3-3.2-2.4-4.9-.4zm-22.6 11.9c-1 2.6.4 4.8 2.8 4.4 1.7-.2 2.3-1 2.3-2.8s-.6-2.6-2.3-2.8c-1.3-.2-2.5.3-2.8 1.2zm-10 9c-1 2.6.4 4.8 2.8 4.4 1.7-.2 2.3-1 2.3-2.8s-.6-2.6-2.3-2.8c-1.3-.2-2.5.3-2.8 1.2zm53 .1c-1.5 1.1-1.7 1.7-.8 3.2 2.1 3.4 6.3 2.5 6.4-1.4 0-2.2-3.5-3.4-5.6-1.8zm-45.8 8.8c-2.4 1.7-1.7 5.1 1.1 5.5 3 .4 4.9-3.1 2.7-5.2-1.9-1.9-1.6-1.9-3.8-.3zm-9.2 4.1c-1 2.6.4 4.8 2.8 4.4 1.7-.2 2.3-1 2.3-2.8s-.6-2.6-2.3-2.8c-1.3-.2-2.5.3-2.8 1.2zm19.3 11c-1.1 2.8.4 4.7 3.2 4.4 2-.2 2.6-.8 2.6-2.8s-.6-2.6-2.6-2.8c-1.7-.2-2.9.3-3.2 1.2zm-36 2.2c-2.3 2.3.7 6.9 3.7 5.8 2.5-1 1.7-5.8-.9-6.2-1.2-.2-2.4 0-2.8.4zm-6 17c-1.3 1.3-.7 5.2.9 5.8 2.2.9 4.6-1.3 4.2-3.8-.3-2.1-3.7-3.4-5.1-2zm-2.7 7.8c-2.7 3.3 1.8 7.2 4.8 4.2 1.3-1.3 1.4-2 .6-3.4-1.5-2.3-3.8-2.6-5.4-.8zm15.8 7.4c-.7 1.1-2.2 2.1-3.3 2.3-3 .6-2.7 5.3.3 5.7 1.7.3 2.5-.2 2.9-1.7.3-1.2 1.5-2.1 3.2-2.3 2-.2 2.6-.8 2.6-2.8 0-3.2-3.7-4-5.7-1.2zm-31.1 2.8c-1.3 1.3-.7 5.2.9 5.8 2.2.9 4.6-1.3 4.2-3.8-.3-2.1-3.7-3.4-5.1-2zm-19 7c-1.3 1.3-.7 5.2.8 5.8 2.7 1 4.6-.5 4.3-3.3-.3-2.6-3.5-4.1-5.1-2.5zm39.5 4.6c-3 3 .1 7.3 3.6 5.1 2.3-1.4 2.5-2.9.7-4.7-2-1.9-2.7-2-4.3-.4zm-34.9 5.5c-1.7.6-1.6 3.8.1 5.2 2.8 2.3 6.8-1.7 4.5-4.5-1.2-1.4-2.4-1.6-4.6-.7zm51.4.9c-1.3 1.3-.7 5.2.9 5.8 2.2.9 4.6-1.3 4.2-3.8-.3-2.1-3.7-3.4-5.1-2zm-19.7 6.8c-2.7 3.3 1.8 7.2 4.8 4.2 1.3-1.3 1.4-2 .6-3.4-1.5-2.3-3.8-2.6-5.4-.8zm-36 2c-2.7 3.3 1.8 7.2 4.8 4.2 1.3-1.3 1.4-2 .6-3.4-1.5-2.3-3.8-2.6-5.4-.8zm-22.9 27.9c-1.4 1.7-.6 4.3 1.6 5.1 2.2.9 4.5-1.3 4.1-3.8s-4-3.3-5.7-1.3zm28.6 7.1c-1.1 2.8.4 4.7 3.2 4.4 2-.2 2.6-.8 2.6-2.8s-.6-2.6-2.6-2.8c-1.7-.2-2.9.3-3.2 1.2zm-9.3 9c-1 2.6.4 4.8 2.8 4.4 1.7-.2 2.3-1 2.3-2.8s-.6-2.6-2.3-2.8c-1.3-.2-2.5.3-2.8 1.2zm-10.7 3.3c-1.4 1.3-.7 4.3 1.2 5.3 1.5.7 2.3.6 3.5-.6 1.9-1.9 2-2.6.4-4.2-1.3-1.3-4.1-1.6-5.1-.5zm-16.6 16.6c-1.4 1.7-.6 4.3 1.6 5.1 2.2.9 4.5-1.3 4.1-3.8s-4-3.3-5.7-1.3zm-42.1 1.2c-1.9 2.3-.8 5 2 5 1.9 0 2.6-.6 2.8-2.4.5-3.5-2.6-5.3-4.8-2.6zm60.4 2.3c-1.4 1.7-2 1.8-3.5.9s-2.2-.8-3.5.5c-1.9 1.9-1.3 4.5 1.2 5.5 1.1.4 2.3-.1 3.3-1.4 1.3-1.5 2-1.7 3.4-.9 2.4 1.5 5.6-1.7 4.1-4.1-1.6-2.5-3.1-2.7-5-.5zm-50 1.6c-1 2.6.4 4.8 2.8 4.4 1.7-.2 2.3-1 2.3-2.8s-.6-2.6-2.3-2.8c-1.3-.2-2.5.3-2.8 1.2zm40.8 6.8c-1.7 1.7-1.5 4.5.4 5.2 2.5 1 3.3.7 4.4-1.3.7-1.5.6-2.3-.6-3.5-1.9-1.9-2.6-2-4.2-.4zm9.5 11.2c-1.1 2.8.4 4.7 3.2 4.4 2-.2 2.6-.8 2.6-2.8s-.6-2.6-2.6-2.8c-1.7-.2-2.9.3-3.2 1.2zm-61.3 1c-1 2.6.4 4.8 2.8 4.4 1.7-.2 2.3-1 2.3-2.8s-.6-2.6-2.3-2.8c-1.3-.2-2.5.3-2.8 1.2zm25.2 3.2c-.9 2.2 1.2 4.6 3.8 4.2 1.5-.2 2.1-1 2.1-2.8 0-2-.6-2.6-2.6-2.8-1.8-.2-2.9.3-3.3 1.4zm-7.6 2.8c-2.7 3.3 1.8 7.2 4.8 4.2 1.3-1.3 1.4-2 .6-3.4-1.5-2.3-3.8-2.6-5.4-.8zm38.4 5c-1 2.6.4 4.8 2.8 4.4 1.7-.2 2.3-1 2.3-2.8s-.6-2.6-2.3-2.8c-1.3-.2-2.5.3-2.8 1.2zm-83.9 1.2c-1.8 1.8-1.6 3.3.7 4.7 2.1 1.4 4.8.2 4.8-2.2 0-3-3.4-4.5-5.5-2.5zm11.7 2.3c-.8.4-1.2 1.9-1 3.2.2 1.8.9 2.4 2.8 2.4s2.6-.6 2.8-2.4c.3-2-1.1-4.1-2.8-4.1-.3 0-1.1.4-1.8.9zm52.5 2.5c-1.1 2.8.4 4.7 3.2 4.4 2-.2 2.6-.8 2.6-2.8s-.6-2.6-2.6-2.8c-1.7-.2-2.9.3-3.2 1.2zm-23.3 9.1c-1 2.5.4 4.5 3 4.5 1.3 0 2.6-.7 3-1.5.9-2.5-.5-4.5-3-4.5-1.4 0-2.7.7-3 1.5zm-36.2 5.2c.2 2.2.8 2.8 2.8 2.8s2.5-.5 2.5-2.5-.6-2.6-2.8-2.8c-2.6-.3-2.8-.1-2.5 2.5zm-9.8 7.7c-1 2.6.4 4.8 2.8 4.4 1.7-.2 2.3-1 2.3-2.8s-.6-2.6-2.3-2.8c-1.3-.2-2.5.3-2.8 1.2zm-20.1 22.3c-2.2.8-1.5 5.1.8 5.8 2.7.9 4.2-.6 3.7-3.6-.3-2.4-2.1-3.2-4.5-2.2zm-10.6 10.7c-1.1 2.8.4 4.7 3.2 4.4 2-.2 2.6-.8 2.6-2.8s-.6-2.6-2.6-2.8c-1.7-.2-2.9.3-3.2 1.2zm32 2.9c-.8 2.2 1.6 5 3.9 4.5 1.3-.2 1.9-1.2 1.9-2.8 0-2-.6-2.6-2.6-2.8-1.6-.2-2.9.3-3.2 1.1zm-13.7 20.2c-1.9 2.3-.8 5 2 5 1.9 0 2.6-.6 2.8-2.4.5-3.5-2.6-5.3-4.8-2.6zm-37.6 4c-.9 2.3.3 4.5 2.4 4.5 1.1 0 2.5-.7 3.2-1.5 1.6-1.9-.3-4.5-3.2-4.5-1 0-2.1.7-2.4 1.5zm-17.4 27.9c-2.7 3.3 1.8 7.2 4.8 4.2 1.3-1.3 1.4-2 .6-3.4-1.5-2.3-3.8-2.6-5.4-.8zm17.7 2.3c-1.4 1.3-.7 4.3 1.2 5.3 2.8 1.4 5.5-1.3 4.1-4.1-1-1.9-4-2.6-5.3-1.2zm-9.2 9.9c-1.8 1.8-1.6 3.3.7 4.7 3.5 2.2 6.6-2.1 3.6-5.1-1.6-1.6-2.3-1.5-4.3.4z"/></svg>