<?xml version="1.0" encoding="utf-8"?>
<!-- Generator: Adobe Illustrator 27.0.0, SVG Export Plug-In . SVG Version: 6.00 Build 0)  -->
<svg version="1.1" id="Layer_1" xmlns="http://www.w3.org/2000/svg" xmlns:xlink="http://www.w3.org/1999/xlink" x="0px" y="0px"
	 viewBox="0 0 240.7 196" style="enable-background:new 0 0 240.7 196;" xml:space="preserve">
<style type="text/css">
	.st0{fill-rule:evenodd;clip-rule:evenodd;fill:#01B5E6;}
</style>
<path class="st0" d="M200.8,13.9l5.1,6.7c1.3,1.8,1,4.3-0.8,5.6l-5.4,4.1c1,2.6,1.6,5.4,1.9,8.2l6.1,0.8c2.2,0.3,3.7,2.3,3.4,4.5
	l-1.1,8.3c-0.3,2.2-2.3,3.7-4.5,3.4l-6.7-0.9c-1.2,2.6-2.7,5-4.5,7.1l3.8,4.9c1.3,1.8,1,4.3-0.8,5.6l-6.7,5.1
	c-1.8,1.3-4.3,1-5.6-0.8l-4.1-5.4c-2.6,1-5.4,1.6-8.2,1.9l-0.8,6.1c-0.3,2.2-2.3,3.7-4.5,3.4l-8.3-1.1c-2.2-0.3-3.7-2.3-3.4-4.5
	l0.9-6.7c-2.6-1.2-5-2.7-7.1-4.5l-4.9,3.7c-1.8,1.3-4.3,1-5.6-0.8l-5.1-6.7c-1.3-1.8-1-4.3,0.8-5.6l5.4-4.1c-1-2.6-1.6-5.4-1.9-8.2
	l-6.1-0.8c-2.2-0.3-3.7-2.3-3.4-4.5l1.1-8.3c0.3-2.2,2.3-3.7,4.5-3.4l6.7,0.9c1.2-2.6,2.7-5,4.5-7.1l-3.7-4.9
	c-1.3-1.7-1-4.3,0.8-5.6l6.7-5.1c1.8-1.3,4.3-1,5.6,0.8l4.1,5.4c2.6-1,5.4-1.6,8.2-1.9l0.8-6.1c0.3-2.2,2.3-3.7,4.5-3.4l8.3,1.1
	c2.2,0.3,3.7,2.3,3.4,4.5l-0.9,6.7c2.6,1.2,5,2.7,7.1,4.5l4.9-3.7C196.9,11.8,199.4,12.1,200.8,13.9z M58,131.1V98.9h16.6
	c3.1,0,5.4,0.3,7.1,0.8c1.6,0.5,2.9,1.5,3.9,2.9c1,1.4,1.5,3.2,1.5,5.2c0,1.8-0.4,3.3-1.2,4.6c-0.8,1.3-1.8,2.4-3.1,3.2
	c-0.8,0.5-2,0.9-3.5,1.3c1.2,0.4,2.1,0.8,2.6,1.2c0.4,0.3,0.9,0.8,1.6,1.7c0.7,0.9,1.2,1.5,1.4,2l4.8,9.3H78.4l-5.3-9.8
	c-0.7-1.3-1.3-2.1-1.8-2.5c-0.7-0.5-1.5-0.7-2.4-0.7H68v13.1L58,131.1L58,131.1z M93.1,187.2H74.5l-2.7,8.8H55l20-53.1h18l19.9,53.1
	H95.7L93.1,187.2z M89.6,175.7l-5.8-19.1L78,175.7H89.6z M116.8,142.9h27.3c6,0,10.4,1.4,13.4,4.2c2.9,2.8,4.4,6.9,4.4,12.1
	c0,5.4-1.6,9.6-4.8,12.6s-8.2,4.5-14.8,4.5h-9V196h-16.5V142.9L116.8,142.9z M133.2,165.6h4c3.2,0,5.4-0.5,6.7-1.7
	c1.3-1.1,1.9-2.5,1.9-4.2c0-1.7-0.6-3.1-1.7-4.2c-1.1-1.2-3.2-1.7-6.3-1.7h-4.7V165.6L133.2,165.6z M168.5,142.9H185V196h-16.5
	V142.9L168.5,142.9z M68,112h4.2c0.4,0,1.3-0.2,2.6-0.4c0.7-0.1,1.2-0.5,1.6-1c0.4-0.5,0.6-1.2,0.6-1.9c0-1-0.3-1.9-1-2.4
	c-0.7-0.6-1.9-0.8-3.7-0.8H68V112z M91.6,98.9h26.7v6.9h-16.7v5.1H117v6.6h-15.4v6.3h17.2v7.3H91.6V98.9z M121.1,120.5l9.5-0.6
	c0.2,1.5,0.6,2.7,1.2,3.5c1,1.3,2.5,2,4.4,2c1.4,0,2.5-0.3,3.3-1s1.2-1.4,1.2-2.3c0-0.8-0.4-1.6-1.1-2.2c-0.7-0.7-2.4-1.3-5.1-1.9
	c-4.4-1-7.5-2.3-9.3-3.9c-1.9-1.6-2.8-3.7-2.8-6.2c0-1.7,0.5-3.2,1.4-4.7c1-1.5,2.4-2.6,4.3-3.5c1.9-0.8,4.6-1.3,7.9-1.3
	c4.1,0,7.2,0.8,9.4,2.3c2.1,1.5,3.4,4,3.8,7.3l-9.4,0.6c-0.3-1.5-0.8-2.5-1.6-3.2c-0.8-0.7-1.9-1-3.3-1c-1.2,0-2,0.3-2.6,0.7
	c-0.6,0.5-0.9,1.1-0.9,1.8c0,0.5,0.3,1,0.7,1.4c0.5,0.4,1.6,0.8,3.3,1.2c4.4,0.9,7.5,1.9,9.4,2.9s3.3,2.1,4.1,3.6
	c0.9,1.4,1.3,3,1.3,4.8c0,2.1-0.6,4-1.7,5.7c-1.1,1.7-2.7,3.1-4.8,4c-2.1,0.9-4.6,1.3-7.8,1.3c-5.5,0-9.3-1.1-11.4-3.2
	C122.5,126.4,121.4,123.7,121.1,120.5z M151.7,98.9H182v8h-10.2v24.3h-10v-24.3h-10.2V98.9L151.7,98.9z M118.2,22.4
	c-3.6-0.3-7.2-0.2-10.8,0.1c-11,1.1-21.7,5.1-30.5,11.9c-10.2,7.9-18,19.8-21,35.4l-0.9,4.9l-4.9,0.9c-4.8,0.8-9.1,2-12.8,3.5
	c-3.6,1.4-6.9,3.1-9.7,5.2c-2.3,1.6-4.2,3.5-5.9,5.5c-5.1,6.2-7.5,13.9-7.5,21.7c0.1,7.9,2.6,15.9,7.4,22.5c1.8,2.4,3.8,4.7,6.2,6.6
	c2.4,2,5.1,3.6,8.1,4.8c1.7,0.7,3.5,1.3,5.4,1.8v14.6c-3.9-0.7-7.5-1.8-10.9-3.1c-4.4-1.8-8.4-4.2-11.8-7.1
	c-3.3-2.7-6.2-5.8-8.6-9.2c-6.5-9-10-20-10.1-30.9c-0.1-11.1,3.4-22.1,10.8-31c2.4-2.9,5.2-5.5,8.5-7.9c3.8-2.7,8.1-5,13-6.9
	c3.4-1.3,7-2.4,10.7-3.3C47.3,45.3,56.4,32.2,68.2,23c11-8.5,24.3-13.5,37.9-14.8c7.2-0.7,14.4-0.4,21.5,1c-0.2,0.6-0.3,1.3-0.4,2
	l0,0.1c-0.1,1.1-0.2,2.2-0.1,3.4c-1.5,0.6-2.9,1.4-4.2,2.4l-0.1,0C121,18.4,119.4,20.3,118.2,22.4z M221.6,59.9c1.1,1,2.1,2,3.2,3.1
	c2.1,2.2,4.1,4.8,5.9,7.6c6.2,9.6,9.5,22.4,9.3,35c-0.1,12.3-3.5,24.6-10.3,33.6c-4.4,5.9-10.1,10.7-16.9,14.5
	c-4.7,2.6-9.9,4.8-15.6,6.5v-15.1c3.1-1.2,6-2.4,8.6-3.9c5.1-2.9,9.3-6.4,12.5-10.6c4.9-6.5,7.3-15.7,7.4-25.1
	c0.1-9.9-2.3-19.8-7-27.1c-1.3-2.1-2.8-4-4.4-5.6c-0.6-0.6-1.2-1.3-1.8-1.8c0.1-1,0.1-2,0.1-3c1.5-0.6,2.9-1.4,4.2-2.4l0.1,0
	C218.7,64.1,220.4,62.1,221.6,59.9z M172,25c9,1.2,15.3,9.5,14.1,18.5c-1.2,9-9.5,15.3-18.5,14.1c-9-1.2-15.3-9.5-14.1-18.5
	S163,23.8,172,25z"/>
</svg>
