<svg xmlns="http://www.w3.org/2000/svg" xml:space="preserve" style="enable-background:new 0 0 240.7 196" viewBox="0 0 240.7 196"><path d="m200.8 13.9 5.1 6.7c1.3 1.8 1 4.3-.8 5.6l-5.4 4.1c1 2.6 1.6 5.4 1.9 8.2l6.1.8c2.2.3 3.7 2.3 3.4 4.5l-1.1 8.3c-.3 2.2-2.3 3.7-4.5 3.4l-6.7-.9c-1.2 2.6-2.7 5-4.5 7.1l3.8 4.9c1.3 1.8 1 4.3-.8 5.6l-6.7 5.1c-1.8 1.3-4.3 1-5.6-.8l-4.1-5.4c-2.6 1-5.4 1.6-8.2 1.9l-.8 6.1c-.3 2.2-2.3 3.7-4.5 3.4l-8.3-1.1c-2.2-.3-3.7-2.3-3.4-4.5l.9-6.7c-2.6-1.2-5-2.7-7.1-4.5l-4.9 3.7c-1.8 1.3-4.3 1-5.6-.8l-5.1-6.7c-1.3-1.8-1-4.3.8-5.6l5.4-4.1c-1-2.6-1.6-5.4-1.9-8.2l-6.1-.8c-2.2-.3-3.7-2.3-3.4-4.5l1.1-8.3c.3-2.2 2.3-3.7 4.5-3.4l6.7.9c1.2-2.6 2.7-5 4.5-7.1l-3.7-4.9c-1.3-1.7-1-4.3.8-5.6l6.7-5.1c1.8-1.3 4.3-1 5.6.8l4.1 5.4c2.6-1 5.4-1.6 8.2-1.9l.8-6.1c.3-2.2 2.3-3.7 4.5-3.4l8.3 1.1c2.2.3 3.7 2.3 3.4 4.5l-.9 6.7c2.6 1.2 5 2.7 7.1 4.5l4.9-3.7c1.6-1.3 4.1-1 5.5.8zM58 131.1V98.9h16.6c3.1 0 5.4.3 7.1.8 1.6.5 2.9 1.5 3.9 2.9s1.5 3.2 1.5 5.2c0 1.8-.4 3.3-1.2 4.6-.8 1.3-1.8 2.4-3.1 3.2-.8.5-2 .9-3.5 1.3 1.2.4 2.1.8 2.6 1.2.4.3.9.8 1.6 1.7.7.9 1.2 1.5 1.4 2l4.8 9.3H78.4l-5.3-9.8c-.7-1.3-1.3-2.1-1.8-2.5-.7-.5-1.5-.7-2.4-.7H68v13.1l-10-.1zm35.1 56.1H74.5l-2.7 8.8H55l20-53.1h18l19.9 53.1H95.7l-2.6-8.8zm-3.5-11.5-5.8-19.1-5.8 19.1h11.6zm27.2-32.8h27.3c6 0 10.4 1.4 13.4 4.2 2.9 2.8 4.4 6.9 4.4 12.1 0 5.4-1.6 9.6-4.8 12.6s-8.2 4.5-14.8 4.5h-9V196h-16.5v-53.1zm16.4 22.7h4c3.2 0 5.4-.5 6.7-1.7 1.3-1.1 1.9-2.5 1.9-4.2 0-1.7-.6-3.1-1.7-4.2-1.1-1.2-3.2-1.7-6.3-1.7h-4.7v11.8h.1zm35.3-22.7H185V196h-16.5v-53.1zM68 112h4.2c.4 0 1.3-.2 2.6-.4.7-.1 1.2-.5 1.6-1 .4-.5.6-1.2.6-1.9 0-1-.3-1.9-1-2.4-.7-.6-1.9-.8-3.7-.8H68v6.5zm23.6-13.1h26.7v6.9h-16.7v5.1H117v6.6h-15.4v6.3h17.2v7.3H91.6V98.9zm29.5 21.6 9.5-.6c.2 1.5.6 2.7 1.2 3.5 1 1.3 2.5 2 4.4 2 1.4 0 2.5-.3 3.3-1s1.2-1.4 1.2-2.3c0-.8-.4-1.6-1.1-2.2-.7-.7-2.4-1.3-5.1-1.9-4.4-1-7.5-2.3-9.3-3.9-1.9-1.6-2.8-3.7-2.8-6.2 0-1.7.5-3.2 1.4-4.7 1-1.5 2.4-2.6 4.3-3.5 1.9-.8 4.6-1.3 7.9-1.3 4.1 0 7.2.8 9.4 2.3 2.1 1.5 3.4 4 3.8 7.3l-9.4.6c-.3-1.5-.8-2.5-1.6-3.2-.8-.7-1.9-1-3.3-1-1.2 0-2 .3-2.6.7-.6.5-.9 1.1-.9 1.8 0 .5.3 1 .7 1.4.5.4 1.6.8 3.3 1.2 4.4.9 7.5 1.9 9.4 2.9s3.3 2.1 4.1 3.6c.9 1.4 1.3 3 1.3 4.8 0 2.1-.6 4-1.7 5.7-1.1 1.7-2.7 3.1-4.8 4-2.1.9-4.6 1.3-7.8 1.3-5.5 0-9.3-1.1-11.4-3.2-2-2.2-3.1-4.9-3.4-8.1zm30.6-21.6H182v8h-10.2v24.3h-10v-24.3h-10.2v-8h.1zm-33.5-76.5c-3.6-.3-7.2-.2-10.8.1-11 1.1-21.7 5.1-30.5 11.9-10.2 7.9-18 19.8-21 35.4l-.9 4.9-4.9.9c-4.8.8-9.1 2-12.8 3.5-3.6 1.4-6.9 3.1-9.7 5.2-2.3 1.6-4.2 3.5-5.9 5.5-5.1 6.2-7.5 13.9-7.5 21.7.1 7.9 2.6 15.9 7.4 22.5 1.8 2.4 3.8 4.7 6.2 6.6 2.4 2 5.1 3.6 8.1 4.8 1.7.7 3.5 1.3 5.4 1.8v14.6c-3.9-.7-7.5-1.8-10.9-3.1-4.4-1.8-8.4-4.2-11.8-7.1-3.3-2.7-6.2-5.8-8.6-9.2-6.5-9-10-20-10.1-30.9-.1-11.1 3.4-22.1 10.8-31 2.4-2.9 5.2-5.5 8.5-7.9 3.8-2.7 8.1-5 13-6.9 3.4-1.3 7-2.4 10.7-3.3C47.3 45.3 56.4 32.2 68.2 23c11-8.5 24.3-13.5 37.9-14.8 7.2-.7 14.4-.4 21.5 1-.2.6-.3 1.3-.4 2v.1c-.1 1.1-.2 2.2-.1 3.4-1.5.6-2.9 1.4-4.2 2.4h-.1c-1.8 1.3-3.4 3.2-4.6 5.3zm103.4 37.5c1.1 1 2.1 2 3.2 3.1 2.1 2.2 4.1 4.8 5.9 7.6 6.2 9.6 9.5 22.4 9.3 35-.1 12.3-3.5 24.6-10.3 33.6-4.4 5.9-10.1 10.7-16.9 14.5-4.7 2.6-9.9 4.8-15.6 6.5v-15.1c3.1-1.2 6-2.4 8.6-3.9 5.1-2.9 9.3-6.4 12.5-10.6 4.9-6.5 7.3-15.7 7.4-25.1.1-9.9-2.3-19.8-7-27.1-1.3-2.1-2.8-4-4.4-5.6-.6-.6-1.2-1.3-1.8-1.8.1-1 .1-2 .1-3 1.5-.6 2.9-1.4 4.2-2.4h.1c1.8-1.5 3.5-3.5 4.7-5.7zM172 25c9 1.2 15.3 9.5 14.1 18.5-1.2 9-9.5 15.3-18.5 14.1-9-1.2-15.3-9.5-14.1-18.5S163 23.8 172 25z" style="fill-rule:evenodd;clip-rule:evenodd;fill:#01b5e6"/></svg>