<?xml version="1.0" encoding="utf-8"?>
<!-- Generator: Adobe Illustrator 27.0.0, SVG Export Plug-In . SVG Version: 6.00 Build 0)  -->
<svg version="1.1"
	 id="Layer_1" xmlns:inkscape="http://www.inkscape.org/namespaces/inkscape" xmlns:sodipodi="http://sodipodi.sourceforge.net/DTD/sodipodi-0.dtd" xmlns:svg="http://www.w3.org/2000/svg" xmlns:dc="http://purl.org/dc/elements/1.1/" xmlns:cc="http://creativecommons.org/ns#" xmlns:rdf="http://www.w3.org/1999/02/22-rdf-syntax-ns#"
	 xmlns="http://www.w3.org/2000/svg" xmlns:xlink="http://www.w3.org/1999/xlink" x="0px" y="0px" viewBox="0 0 157.3 93.5"
	 style="enable-background:new 0 0 157.3 93.5;" xml:space="preserve">
<style type="text/css">
	.st0{fill:#F89939;}
	.st1{fill:#3499CD;}
	.st2{fill:#010101;}
	.st3{fill:#FFFFFF;}
	.st4{font-family:'ArialMT';}
	.st5{font-size:17.3096px;}
</style>
<sodipodi:namedview  bordercolor="#666666" borderopacity="1" fit-margin-bottom="0" fit-margin-left="0" fit-margin-right="0" fit-margin-top="0" gridtolerance="10" guidetolerance="10" id="namedview31" inkscape:current-layer="Layer_1" inkscape:cx="121.6884" inkscape:cy="79.49229" inkscape:pageopacity="0" inkscape:pageshadow="2" inkscape:window-height="626" inkscape:window-maximized="0" inkscape:window-width="777" inkscape:window-x="2951" inkscape:window-y="679" inkscape:zoom="1.0907007" objecttolerance="10" pagecolor="#ffffff" showborder="true" showgrid="false" units="mm">
	</sodipodi:namedview>
<g id="g3" transform="translate(-120.60861,-220.26017)">
	<path id="path5" inkscape:connector-curvature="0" class="st0" d="M257.5,300c21.5-20.8,25.1-51.1,8-67.6
		c-17.1-16.5-48.3-13.1-69.8,7.7c-21.5,20.8-15.3,60.5-8,67.6C193.6,313.4,236,320.8,257.5,300L257.5,300z"/>
	<path id="path7" inkscape:connector-curvature="0" class="st1" d="M169.3,269.9c-12.5-12.1-30.6-14.1-40.5-4.5
		c-9.9,9.6-7.8,27.2,4.6,39.2c12.5,12.1,36.3,8.6,40.5,4.5C177.4,305.8,181.8,282,169.3,269.9z"/>
</g>
<g id="g9" transform="translate(-120.60861,-220.26017)">
	<g id="g11">
		<path id="path13" inkscape:connector-curvature="0" class="st2" d="M157.1,299c-2.6,2.4-4.9,4.2-6.8,5.3c-2,1.1-3.8,1.7-5.6,1.7
			c-2,0-3.7-0.8-5-2.4c-1.3-1.6-1.9-3.7-1.9-6.4c0-4,0.9-8.8,2.6-14.5c1.7-5.6,3.9-10.8,6.3-15.6l7.3-2.7c0.2-0.1,0.4-0.1,0.5-0.1
			c0.6,0,1,0.4,1.4,1.2c0.4,0.8,0.5,1.9,0.5,3.3c0,3.9-0.9,7.7-2.7,11.3c-1.8,3.7-4.6,7.6-8.4,11.7c-0.2,2-0.2,3.4-0.2,4.1
			c0,1.7,0.3,3,0.9,4c0.6,1,1.4,1.5,2.4,1.5c1,0,2.1-0.4,3.3-1.1c1.2-0.7,2.9-2.3,5.3-4.7L157.1,299L157.1,299z M146.1,287.7
			c2.4-2.7,4.4-5.7,5.9-9.1c1.5-3.4,2.3-6.2,2.3-8.7c0-0.7-0.1-1.3-0.3-1.7c-0.2-0.4-0.5-0.6-0.8-0.6c-0.7,0-1.7,1.8-3.1,5.3
			C148.7,276.5,147.4,281.4,146.1,287.7L146.1,287.7z"/>
		<path id="path15" inkscape:connector-curvature="0" class="st2" d="M178.6,299c-2.4,2.4-4.6,4.2-6.5,5.3c-1.9,1.1-4.1,1.7-6.4,1.7
			c-2.6,0-4.7-0.8-6.3-2.5c-1.6-1.7-2.4-3.9-2.4-6.6c0-4.1,1.4-7.7,4.2-11c2.8-3.3,5.9-4.9,9.4-4.9c1.8,0,3.2,0.5,4.3,1.4
			c1.1,0.9,1.6,2.1,1.6,3.6c0,4-4.2,7.2-12.6,9.7c0.8,3.7,2.8,5.6,6,5.6c1.3,0,2.5-0.3,3.6-1c1.2-0.7,2.9-2.2,5.2-4.5L178.6,299
			L178.6,299z M163.5,293.7c4.9-1.4,7.4-3.9,7.4-7.6c0-1.8-0.7-2.8-2-2.8c-1.3,0-2.5,1-3.6,2.9C164.1,288.1,163.5,290.6,163.5,293.7
			L163.5,293.7z"/>
		<path id="path17" inkscape:connector-curvature="0" class="st2" d="M209.3,299c-3.1,2.9-5.3,4.8-6.6,5.7c-1.3,0.9-2.6,1.3-3.8,1.3
			c-3,0-4.5-2.7-4.3-8c-1.9,2.7-3.7,4.8-5.3,6.1c-1.6,1.3-3.3,2-5,2c-1.7,0-3.1-0.8-4.3-2.4c-1.2-1.6-1.8-3.5-1.8-5.8
			c0-2.9,0.8-5.6,2.4-8.2c1.6-2.6,3.6-4.7,6.1-6.3c2.5-1.6,4.7-2.4,6.5-2.4c2.4,0,4.1,1.1,5,3.3l5.9-3.2h1.6l-2.5,8.4
			c-1.3,4.2-2,7.1-2,8.7c0,1.6,0.6,2.5,1.8,2.5c0.7,0,1.6-0.4,2.5-1.2s2.2-2,3.8-3.6L209.3,299L209.3,299z M188.2,300.6
			c1.9,0,3.7-1.6,5.4-4.9c1.7-3.3,2.5-6.3,2.5-9c0-1.1-0.2-1.9-0.7-2.5c-0.5-0.6-1.1-0.9-1.9-0.9c-1.9,0-3.7,1.6-5.4,4.9
			c-1.7,3.3-2.6,6.3-2.6,9c0,1,0.3,1.9,0.8,2.5C186.8,300.2,187.4,300.6,188.2,300.6L188.2,300.6z"/>
		<path id="path19" inkscape:connector-curvature="0" class="st2" d="M230.7,299c-4.8,4.7-8.5,7.1-11.1,7.1c-1.2,0-2.2-0.5-3-1.5
			c-0.8-1-1.2-2.2-1.2-3.7c0-2.7,1.4-6.3,4.3-10.9c-1.4,0.7-3,1.2-4.7,1.5c-1.2,2.3-3.2,4.8-5.9,7.4h-0.7v-2.6c1.5-1.6,2.8-3.2,4-5
			c-1.6-0.7-2.5-1.8-2.5-3.2c0-1.5,0.5-3.1,1.5-4.7c1-1.7,2.4-2.5,4.2-2.5c1.5,0,2.2,0.8,2.2,2.3c0,1.2-0.4,2.9-1.3,5.2
			c3.2-0.3,6-2.8,8.3-7.3l2.6-0.1l-2.7,7.4c-1.1,3.1-1.8,5.2-2.2,6.3c-0.3,1.1-0.5,2.1-0.5,3c0,0.8,0.2,1.4,0.6,1.9
			c0.4,0.5,0.9,0.7,1.5,0.7c0.7,0,1.4-0.2,2-0.7c0.6-0.5,2-1.8,4.3-3.9L230.7,299L230.7,299z"/>
		<path id="path21" inkscape:connector-curvature="0" class="st2" d="M258.9,299c-4.4,4.7-8.2,7-11.4,7c-1.3,0-2.3-0.5-3.1-1.4
			c-0.8-0.9-1.2-2.1-1.2-3.6c0-2,0.8-5.2,2.5-9.4c0.9-2.3,1.4-3.7,1.4-4.3c0-0.6-0.2-0.9-0.7-0.9c-0.3,0-0.6,0.1-1.1,0.4
			c-0.4,0.3-0.9,0.6-1.4,1.1c-0.5,0.4-1,1-1.6,1.6c-0.5,0.5-1.1,1.2-1.7,1.8l-1.6,1.9c-0.7,0.9-1.1,1.8-1.3,2.7
			c-0.3,1.6-0.5,3.1-0.6,4.5c-0.1,1-0.1,2.4-0.1,4.1l-6.3,1.5c-0.2-2.6-0.3-4.5-0.3-5.8c0-3.1,0.4-6,1.1-8.8
			c0.7-2.8,1.9-5.9,3.5-9.3l7-1.3c-1.5,4-2.4,7.1-2.9,9.4c3.1-3.5,5.6-5.9,7.5-7.3c1.8-1.4,3.5-2,4.9-2c1,0,1.8,0.4,2.4,1.1
			c0.7,0.7,1,1.7,1,2.8c0,1.8-0.8,4.9-2.5,9.1c-1.1,2.9-1.7,4.8-1.7,5.6c0,1.2,0.5,1.7,1.4,1.7c1.4,0,3.7-1.8,6.8-5.5V299z"/>
	</g>
</g>
<text id="text25" transform="matrix(1 0 0 1 62.1408 57.428)" class="st3 st4 st5">scikit</text>
</svg>
