<svg xmlns="http://www.w3.org/2000/svg" xml:space="preserve" id="Layer_1" x="0" y="0" style="enable-background:new 0 0 157.3 93.5" version="1.1" viewBox="0 0 157.3 93.5"><style>.st2{fill:#010101}</style><g id="g3" transform="translate(-120.609 -220.26)"><path id="path5" d="M257.5 300c21.5-20.8 25.1-51.1 8-67.6-17.1-16.5-48.3-13.1-69.8 7.7s-15.3 60.5-8 67.6c5.9 5.7 48.3 13.1 69.8-7.7z" style="fill:#f89939"/><path id="path7" d="M169.3 269.9c-12.5-12.1-30.6-14.1-40.5-4.5-9.9 9.6-7.8 27.2 4.6 39.2 12.5 12.1 36.3 8.6 40.5 4.5 3.5-3.3 7.9-27.1-4.6-39.2z" style="fill:#3499cd"/></g><g id="g9" transform="translate(-120.609 -220.26)"><g id="g11"><path id="path13" d="M157.1 299c-2.6 2.4-4.9 4.2-6.8 5.3-2 1.1-3.8 1.7-5.6 1.7-2 0-3.7-.8-5-2.4-1.3-1.6-1.9-3.7-1.9-6.4 0-4 .9-8.8 2.6-14.5 1.7-5.6 3.9-10.8 6.3-15.6l7.3-2.7c.2-.1.4-.1.5-.1.6 0 1 .4 1.4 1.2.4.8.5 1.9.5 3.3 0 3.9-.9 7.7-2.7 11.3-1.8 3.7-4.6 7.6-8.4 11.7-.2 2-.2 3.4-.2 4.1 0 1.7.3 3 .9 4 .6 1 1.4 1.5 2.4 1.5s2.1-.4 3.3-1.1c1.2-.7 2.9-2.3 5.3-4.7l.1 3.4zm-11-11.3c2.4-2.7 4.4-5.7 5.9-9.1 1.5-3.4 2.3-6.2 2.3-8.7 0-.7-.1-1.3-.3-1.7-.2-.4-.5-.6-.8-.6-.7 0-1.7 1.8-3.1 5.3-1.4 3.6-2.7 8.5-4 14.8z" class="st2"/><path id="path15" d="M178.6 299c-2.4 2.4-4.6 4.2-6.5 5.3-1.9 1.1-4.1 1.7-6.4 1.7-2.6 0-4.7-.8-6.3-2.5-1.6-1.7-2.4-3.9-2.4-6.6 0-4.1 1.4-7.7 4.2-11 2.8-3.3 5.9-4.9 9.4-4.9 1.8 0 3.2.5 4.3 1.4 1.1.9 1.6 2.1 1.6 3.6 0 4-4.2 7.2-12.6 9.7.8 3.7 2.8 5.6 6 5.6 1.3 0 2.5-.3 3.6-1 1.2-.7 2.9-2.2 5.2-4.5l-.1 3.2zm-15.1-5.3c4.9-1.4 7.4-3.9 7.4-7.6 0-1.8-.7-2.8-2-2.8s-2.5 1-3.6 2.9c-1.2 1.9-1.8 4.4-1.8 7.5z" class="st2"/><path id="path17" d="M209.3 299c-3.1 2.9-5.3 4.8-6.6 5.7-1.3.9-2.6 1.3-3.8 1.3-3 0-4.5-2.7-4.3-8-1.9 2.7-3.7 4.8-5.3 6.1-1.6 1.3-3.3 2-5 2-1.7 0-3.1-.8-4.3-2.4-1.2-1.6-1.8-3.5-1.8-5.8 0-2.9.8-5.6 2.4-8.2 1.6-2.6 3.6-4.7 6.1-6.3 2.5-1.6 4.7-2.4 6.5-2.4 2.4 0 4.1 1.1 5 3.3l5.9-3.2h1.6l-2.5 8.4c-1.3 4.2-2 7.1-2 8.7 0 1.6.6 2.5 1.8 2.5.7 0 1.6-.4 2.5-1.2s2.2-2 3.8-3.6v3.1zm-21.1 1.6c1.9 0 3.7-1.6 5.4-4.9 1.7-3.3 2.5-6.3 2.5-9 0-1.1-.2-1.9-.7-2.5-.5-.6-1.1-.9-1.9-.9-1.9 0-3.7 1.6-5.4 4.9-1.7 3.3-2.6 6.3-2.6 9 0 1 .3 1.9.8 2.5.5.5 1.1.9 1.9.9z" class="st2"/><path id="path19" d="M230.7 299c-4.8 4.7-8.5 7.1-11.1 7.1-1.2 0-2.2-.5-3-1.5-.8-1-1.2-2.2-1.2-3.7 0-2.7 1.4-6.3 4.3-10.9-1.4.7-3 1.2-4.7 1.5-1.2 2.3-3.2 4.8-5.9 7.4h-.7v-2.6c1.5-1.6 2.8-3.2 4-5-1.6-.7-2.5-1.8-2.5-3.2 0-1.5.5-3.1 1.5-4.7 1-1.7 2.4-2.5 4.2-2.5 1.5 0 2.2.8 2.2 2.3 0 1.2-.4 2.9-1.3 5.2 3.2-.3 6-2.8 8.3-7.3l2.6-.1-2.7 7.4c-1.1 3.1-1.8 5.2-2.2 6.3-.3 1.1-.5 2.1-.5 3 0 .8.2 1.4.6 1.9.4.5.9.7 1.5.7.7 0 1.4-.2 2-.7.6-.5 2-1.8 4.3-3.9l.3 3.3z" class="st2"/><path id="path21" d="M258.9 299c-4.4 4.7-8.2 7-11.4 7-1.3 0-2.3-.5-3.1-1.4-.8-.9-1.2-2.1-1.2-3.6 0-2 .8-5.2 2.5-9.4.9-2.3 1.4-3.7 1.4-4.3 0-.6-.2-.9-.7-.9-.3 0-.6.1-1.1.4-.4.3-.9.6-1.4 1.1-.5.4-1 1-1.6 1.6-.5.5-1.1 1.2-1.7 1.8l-1.6 1.9c-.7.9-1.1 1.8-1.3 2.7-.3 1.6-.5 3.1-.6 4.5-.1 1-.1 2.4-.1 4.1l-6.3 1.5c-.2-2.6-.3-4.5-.3-5.8 0-3.1.4-6 1.1-8.8.7-2.8 1.9-5.9 3.5-9.3l7-1.3c-1.5 4-2.4 7.1-2.9 9.4 3.1-3.5 5.6-5.9 7.5-7.3 1.8-1.4 3.5-2 4.9-2 1 0 1.8.4 2.4 1.1.7.7 1 1.7 1 2.8 0 1.8-.8 4.9-2.5 9.1-1.1 2.9-1.7 4.8-1.7 5.6 0 1.2.5 1.7 1.4 1.7 1.4 0 3.7-1.8 6.8-5.5v3.3z" class="st2"/></g></g><text id="text25" style="font-size:17.3096px;font-family:&quot;ArialMT&quot;;fill:#fff" transform="translate(62.14 57.428)">scikit</text></svg>