<svg xmlns="http://www.w3.org/2000/svg" id="Layer_1" data-name="Layer 1" viewBox="0 0 980.07 414.27"><defs><style>.cls-4{fill:#010101}</style></defs><path d="M665.98 352.03c93.82-93.81 109.41-230.31 34.82-304.89-74.57-74.57-211.07-58.98-304.88 34.82-93.81 93.81-66.67 273.03-34.82 304.89 25.74 25.74 211.07 58.98 304.88-34.82Z" style="fill:#f89939" vector-effect="non-scaling-stroke"/><path d="M273.58 148.68C200.69 75.79 94.6 63.65 36.63 121.62-21.32 179.58-9.21 285.68 63.7 358.56c72.91 72.92 212.19 51.83 236.93 27.06 20.02-19.99 45.86-164.04-27.06-236.94Z" style="fill:#3499cd" vector-effect="non-scaling-stroke"/><path d="M475.98 309.39c-12.88 11.85-24.17 20.6-33.88 26.22-9.71 5.64-18.97 8.46-27.78 8.46-10.14 0-18.31-3.93-24.51-11.79-6.21-7.87-9.3-18.42-9.3-31.69 0-19.89 4.31-43.77 12.93-71.61 8.61-27.86 19.09-53.54 31.4-77.02l36.09-13.36c1.13-.38 1.99-.57 2.56-.57 2.74 0 5 2.02 6.74 6.04 1.75 4.04 2.64 9.46 2.64 16.28 0 19.33-4.45 38.03-13.36 56.13s-22.83 37.42-41.77 57.98c-.76 9.85-1.14 16.62-1.14 20.32 0 8.25 1.51 14.77 4.54 19.61 3.03 4.84 7.06 7.25 12.08 7.25s10.57-1.83 16.35-5.53c5.77-3.7 14.58-11.37 26.42-23.03v16.34-.03Zm-54.43-55.55c12.03-13.37 21.8-28.37 29.28-44.97s11.22-30.88 11.22-42.85c0-3.49-.52-6.32-1.55-8.45-1.04-2.13-2.38-3.21-3.98-3.21-3.49 0-8.59 8.73-15.27 26.18s-13.24 41.89-19.68 73.29h-.02Z" class="cls-4" vector-effect="non-scaling-stroke"/><path d="M582.32 309.46c-12.03 11.85-22.82 20.6-32.4 26.22-9.57 5.64-20.12 8.46-31.69 8.46-12.88 0-23.28-4.12-31.2-12.35-7.91-8.25-11.85-19.09-11.85-32.55 0-20.08 6.96-38.25 20.9-54.49 13.91-16.25 29.36-24.37 46.32-24.37 8.81 0 15.86 2.28 21.17 6.83s7.96 10.51 7.96 17.9c0 19.61-20.84 35.52-62.52 47.74 3.78 18.46 13.68 27.71 29.69 27.71 6.26 0 12.22-1.68 17.9-5.03 5.69-3.37 14.26-10.84 25.73-22.39v16.33Zm-74.46-26.29c24.24-6.83 36.38-19.42 36.38-37.8 0-9.09-3.32-13.64-9.94-13.64-6.26 0-12.22 4.75-17.9 14.28-5.7 9.52-8.54 21.89-8.54 37.15Z" class="cls-4" vector-effect="non-scaling-stroke"/><path d="M734.17 309.43c-15.16 14.4-26.01 23.79-32.54 28.15-6.54 4.36-12.79 6.53-18.76 6.53-14.97 0-22.02-13.21-21.17-39.64-9.47 13.54-18.22 23.54-26.22 29.99-8 6.44-16.26 9.65-24.8 9.65s-15.4-3.9-21.24-11.72-8.73-17.4-8.73-28.78c0-14.2 3.9-27.75 11.71-40.64 7.82-12.88 17.84-23.3 30.06-31.25 12.22-7.96 23.03-11.94 32.4-11.94 11.85 0 20.14 5.45 24.88 16.34l29.04-16.05h7.97l-12.54 41.63c-6.44 20.94-9.67 35.3-9.67 43.06s2.88 12.22 8.67 12.22c3.68 0 7.75-1.96 12.21-5.9s10.7-9.93 18.75-17.98v16.34h-.02Zm-104.02 7.81c9.47 0 18.4-8.07 26.8-24.22 8.38-16.16 12.57-31.06 12.57-44.7 0-5.3-1.19-9.45-3.55-12.43-2.38-2.99-5.55-4.48-9.52-4.48-9.48 0-18.46 8.05-26.93 24.16-8.48 16.11-12.73 30.93-12.73 44.47 0 5.12 1.26 9.27 3.77 12.44 2.51 3.18 5.69 4.76 9.58 4.76Z" class="cls-4" vector-effect="non-scaling-stroke"/><path d="M840.44 309.46c-23.78 23.3-42.12 34.96-55 34.96-5.78 0-10.67-2.44-14.64-7.3-3.97-4.88-5.97-10.93-5.97-18.13 0-13.36 7.16-31.25 21.46-53.71-7.02 3.6-14.68 6.1-23.02 7.53-6.16 11.37-15.83 23.59-28.99 36.65h-3.26v-12.77c7.38-7.67 14.06-15.92 20.03-24.73-8.16-3.6-12.22-8.96-12.22-16.05s2.48-15.09 7.46-23.39c4.97-8.28 11.81-12.42 20.53-12.42 7.39 0 11.08 3.78 11.08 11.36 0 5.97-2.13 14.49-6.4 25.58 15.72-1.71 29.46-13.73 41.21-36.09l12.93-.57-13.22 36.38c-5.49 15.35-9.04 25.8-10.65 31.34-1.61 5.54-2.42 10.45-2.42 14.7 0 3.98.93 7.17 2.77 9.52 1.85 2.39 4.34 3.56 7.46 3.56 3.41 0 6.68-1.16 9.81-3.47 3.12-2.34 10.14-8.75 21.04-19.27v16.34-.02Z" class="cls-4" vector-effect="non-scaling-stroke"/><path d="M980.07 309.44c-21.88 23.13-40.65 34.68-56.27 34.68-6.35 0-11.46-2.23-15.35-6.68-3.89-4.45-5.83-10.41-5.83-17.9 0-10.14 4.17-25.63 12.51-46.46 4.45-11.18 6.68-18.3 6.68-21.32s-1.19-4.55-3.55-4.55c-1.32 0-3.09.67-5.26 1.98-2 1.32-4.32 3.19-6.97 5.55-2.36 2.17-5.02 4.83-7.96 7.94a224.9 224.9 0 0 0-8.23 9.1l-7.97 9.25c-3.5 4.26-5.68 8.75-6.53 13.49-1.43 8.05-2.37 15.45-2.85 22.18-.29 5.01-.43 11.78-.43 20.32l-31.41 7.38c-1.04-12.79-1.57-22.31-1.57-28.56 0-15.25 1.78-29.7 5.34-43.34 3.55-13.65 9.25-28.99 17.12-46.05l34.67-6.67c-7.29 19.61-12.07 35.05-14.35 46.32 15.54-17.33 27.85-29.33 36.98-36.02 9.12-6.68 17.23-10.01 24.33-10.01 4.82 0 8.85 1.82 12.06 5.46 3.22 3.64 4.83 8.22 4.83 13.69 0 9.09-4.07 24.06-12.21 44.91-5.59 14.3-8.39 23.58-8.39 27.86 0 5.7 2.33 8.55 6.98 8.55 6.93 0 18.15-9.15 33.63-27.43v16.33Z" class="cls-4" vector-effect="non-scaling-stroke"/><text style="font-family:Bahnschrift,Bahnschrift;font-size:70px;font-variation-settings:&quot;wght&quot;400,&quot;wdth&quot;100" transform="translate(527.32 182.48)"><tspan x="0" y="0">scikit</tspan></text></svg>