<?xml version="1.0" encoding="UTF-8"?>
<svg id="Layer_1" data-name="Layer 1" xmlns="http://www.w3.org/2000/svg" xmlns:xlink="http://www.w3.org/1999/xlink" viewBox="0 0 1080 630">
  <defs>
    <style>
      .cls-1 {
        clip-path: url(#clippath-1);
      }

      .cls-2 {
        clip-path: url(#clippath);
      }

      .cls-3 {
        fill: none;
      }

      .cls-4 {
        fill: #061d2f;
      }
    </style>
    <clipPath id="clippath">
      <path class="cls-3" d="M97.78,380.34c-9.43,0-18-7.71-18-17.14s7.71-17.14,18-17.14,18,7.71,18,17.14-8.57,17.14-18,17.14Zm221.16-93.44c-1.71-13.72-10.29-24.86-21.43-33.43l-4.29-3.43-3.43,4.29c-6.86,7.71-9.43,21.43-8.57,31.72,.86,7.71,3.43,15.43,7.71,21.43-3.43,1.71-7.71,3.43-11.14,5.14-7.71,2.57-15.43,3.43-23.14,3.43H32.63l-.86,5.14c-1.71,16.29,.86,33.43,7.71,48.86l3.43,6v.86c20.57,34.29,57.43,49.72,97.72,49.72,77.15,0,140.58-33.43,170.59-105.44,19.72,.86,39.43-4.29,48.86-23.14l2.57-4.29-4.29-2.57c-11.14-6.86-26.57-7.71-39.43-4.29h0Zm-110.58-13.72h-33.43v33.43h33.43v-33.43h0Zm0-42h-33.43v33.43h33.43v-33.43h0Zm0-42.86h-33.43v33.43h33.43v-33.43h0Zm41.15,84.86h-33.43v33.43h33.43s0-33.43,0-33.43Zm-124.3,0h-33.43v33.43h33.43s0-33.43,0-33.43Zm42,0h-33.43v33.43h33.43v-33.43h0Zm-83.15,0H50.64v33.43h33.43v-33.43h-.01Zm83.15-42h-33.43v33.43h33.43v-33.43h0Zm-42,0h-33.43v33.43h33.43v-33.43Z"/>
    </clipPath>
    <clipPath id="clippath-1">
      <path class="cls-3" d="M-4432.02,20.84c-9.43,0-18-7.71-18-17.14s7.71-17.14,18-17.14,18,7.71,18,17.14-8.57,17.14-18,17.14Zm221.16-93.44c-1.71-13.72-10.29-24.86-21.43-33.43l-4.29-3.43-3.43,4.29c-6.86,7.71-9.43,21.43-8.57,31.72,.86,7.71,3.43,15.43,7.71,21.43-3.43,1.71-7.71,3.43-11.14,5.14-7.71,2.57-15.43,3.43-23.14,3.43h-222.02l-.86,5.14c-1.71,16.29,.86,33.43,7.71,48.86l3.43,6v.86c20.57,34.29,57.43,49.72,97.72,49.72,77.15,0,140.58-33.43,170.59-105.44,19.72,.86,39.43-4.29,48.86-23.14l2.57-4.29-4.29-2.57c-11.14-6.86-26.57-7.71-39.43-4.29h0Zm-110.58-13.72h-33.43V-52.9h33.43v-33.43h0Zm0-42h-33.43v33.43h33.43v-33.43h0Zm0-42.86h-33.43v33.43h33.43v-33.43h0Zm41.15,84.86h-33.43V-52.9h33.43s0-33.43,0-33.43Zm-124.3,0h-33.43V-52.9h33.43s0-33.43,0-33.43Zm42,0h-33.43V-52.9h33.43v-33.43h0Zm-83.15,0h-33.42V-52.9h33.43v-33.43h-.01Zm83.15-42h-33.43v33.43h33.43v-33.43h0Zm-42,0h-33.43v33.43h33.43v-33.43Z"/>
    </clipPath>
  </defs>
  <g vector-effect="non-scaling-stroke">
    <path class="cls-4" d="M97.7,380.3c-9.43,0-18-7.71-18-17.14s7.71-17.14,18-17.14,18,7.71,18,17.14-8.57,17.14-18,17.14Zm221.16-93.44c-1.71-13.72-10.29-24.86-21.43-33.43l-4.29-3.43-3.43,4.29c-6.86,7.71-9.43,21.43-8.57,31.72,.86,7.71,3.43,15.43,7.71,21.43-3.43,1.71-7.71,3.43-11.14,5.14-7.71,2.57-15.43,3.43-23.14,3.43H32.55l-.86,5.14c-1.71,16.29,.86,33.43,7.71,48.86l3.43,6v.86c20.57,34.29,57.43,49.72,97.72,49.72,77.15,0,140.58-33.43,170.59-105.44,19.72,.86,39.43-4.29,48.86-23.14l2.57-4.29-4.29-2.57c-11.14-6.86-26.57-7.71-39.43-4.29h.01Zm-110.58-13.72h-33.43v33.43h33.43v-33.43h0Zm0-42h-33.43v33.43h33.43v-33.43h0Zm0-42.86h-33.43v33.43h33.43v-33.43h0Zm41.15,84.86h-33.43v33.43h33.43v-33.43Zm-124.3,0h-33.43v33.43h33.43v-33.43Zm42,0h-33.43v33.43h33.43v-33.43h0Zm-83.15,0H50.55v33.43h33.43s0-33.43,0-33.43Zm83.15-42h-33.43v33.43h33.43v-33.43h0Zm-42,0h-33.43v33.43h33.43v-33.43Z" vector-effect="non-scaling-stroke"/>
    <g class="cls-2">
      <path class="cls-4" d="M-395.12-5.41H10532.72V1292.42H-395.12V-5.41Z" vector-effect="non-scaling-stroke"/>
    </g>
    <path class="cls-4" d="M896.55,359.69c14.57-12.86,29.15-24.86,43.72-37.72,5.14-4.29,10.29-8.57,15.43-13.72-4.29-5.14-10.29-8.57-16.29-11.14-11.14-4.29-22.29-2.57-33.43,3.43-13.72,7.71-19.72,20.57-18.86,36,0,6,1.71,12,5.14,17.14,2.57,2.57,3.43,4.29,4.29,6m17.14,12c6.86,2.57,15.43,2.57,23.14,.86,3.43-1.71,13.72-6,17.14-5.14h1.71c2.57,.86,4.29,2.57,5.14,5.14,2.57,5.14,1.71,10.29-3.43,12.86l-1.71,.86c-18.86,11.14-38.57,9.43-57.43-.86-8.57-5.14-15.43-12-20.57-20.57l-.86-1.71c-12-20.57-10.29-42.86,3.43-62.58,4.29-6.86,11.14-12,18-16.29l2.57-1.71c18-10.29,36.86-9.43,54.86-.86,9.43,5.14,18,12,23.14,21.43l.86,1.71c4.29,6.86-.86,12.86-6.86,17.14l-18,15.43c-15.43,12-28.29,23.14-41.15,34.29h.02Zm139.73-94.29h1.71c6,0,10.29,4.29,10.29,10.29,0,8.57-7.71,10.29-14.57,10.29-8.57,0-17.14,5.14-23.14,11.14-7.71,7.71-11.14,17.14-11.14,27.43v48c0,5.14-3.43,10.29-9.43,10.29h-1.71c-6,0-9.43-4.29-9.43-10.29v-50.58c0-19.72,9.43-35.15,24.86-46.29,11.14-6.86,21.43-10.29,32.57-10.29h-.01Zm-245.16,33.44l23.14-23.14c2.57-1.71,10.29-11.14,13.72-11.14h3.43c4.29,.86,7.71,3.43,7.71,8.57v1.71c0,3.43-4.29,6.86-6,9.43-4.29,5.14-9.43,9.43-13.72,14.57l-24,24,30.86,30.86,8.57,8.57,3.43,3.43c.86,1.71,1.71,2.57,1.71,4.29v2.57c-.86,4.29-4.29,7.71-8.57,7.71h-1.71c-3.43,0-6.86-3.43-9.43-6-4.29-4.29-9.43-8.57-13.72-13.72l-15.43-14.57v24c0,5.14-3.43,10.29-9.43,10.29h-1.71c-6,0-9.43-4.29-9.43-10.29V249.97c0-5.14,3.43-9.43,9.43-9.43h1.71c6,0,9.43,4.29,9.43,9.43v60.86h0Zm-63.43-12.87c-2.57-1.71-8.57-1.71-12-1.71-16.29-.86-28.29,8.57-35.15,23.14-2.57,5.14-3.43,10.29-3.43,16.29,0,17.14,8.57,29.15,24,36,5.14,2.57,12.86,3.43,18.86,3.43,5.14,0,12.86-3.43,17.14-5.14h4.29c4.29,.86,7.71,3.43,7.71,8.57v1.71c0,12-22.29,14.57-30,15.43-29.15,1.71-51.43-14.57-60.01-42-1.71-5.14-1.71-9.43-1.71-14.57v-4.29c0-21.43,10.29-38.57,29.15-48.86,8.57-5.14,18-7.71,28.29-7.71h4.29c10.29,0,20.57,2.57,29.15,8.57l.86,.86,.86,.86c.86,1.71,1.71,3.43,1.71,5.14v1.71c0,5.14-3.43,7.71-8.57,8.57h-.86c-6-1.71-12.86-5.14-14.57-6h0Zm-180.02,36.86c0,14.57,7.71,25.72,19.72,33.43,6,3.43,12.86,5.14,19.72,5.14,14.57,0,25.72-7.71,33.43-19.72,3.43-6,5.14-12.86,5.14-19.72,0-13.72-6.86-24.86-18-32.57-6-4.29-13.72-6-20.57-6-16.29,0-28.29,8.57-35.15,23.14-4.29,6-4.29,11.14-4.29,16.29h0Zm36-58.28h2.57c23.14,0,40.29,11.14,51.43,30.86,4.29,7.71,6.86,16.29,6.86,25.72v4.29c0,21.43-10.29,38.57-29.15,48.86-8.57,5.14-18,7.71-28.29,7.71h-4.29c-21.43,0-38.57-10.29-48.86-29.15-5.14-8.57-7.71-18-7.71-28.29v-4.29c0-21.43,10.29-38.57,29.15-48.86,9.43-4.29,18-6.86,28.29-6.86h0Zm-166.3,58.3c0,15.43,7.71,27.43,21.43,34.29,5.14,2.57,11.14,4.29,18,4.29,15.43,0,26.57-6.86,34.29-19.72,3.43-6,5.14-12.86,5.14-19.72,0-13.72-6-24-17.14-31.72-6.86-4.29-13.72-6.86-22.29-6.86-16.29,0-28.29,8.57-35.15,23.14-2.57,6-4.29,11.14-4.29,16.29h.01Zm78.86-43.71v-42c0-5.14,3.43-10.29,9.43-10.29h1.71c6,0,9.43,4.29,9.43,10.29v88.29c0,21.43-10.29,38.57-29.15,48.86-8.57,5.14-18,7.71-28.29,7.71h-4.29c-21.43,0-38.57-10.29-48.86-29.15-5.14-8.57-7.71-18-7.71-28.29v-4.29c0-21.43,10.29-38.57,29.15-48.86,8.57-5.14,18-7.71,28.29-7.71h4.29c12.86,.86,25.72,6,36,15.43h0Z" vector-effect="non-scaling-stroke"/>
  </g>
  <rect class="cls-3" width="1080" height="173"/>
  <g vector-effect="non-scaling-stroke">
    <g class="cls-1">
      <path class="cls-4" d="M-4924.92-364.91H6002.92V932.91H-4924.92V-364.91Z" vector-effect="non-scaling-stroke"/>
    </g>
  </g>
  <rect class="cls-3" x="-1" y="431.5" width="1080" height="173"/>
</svg>