<?xml version="1.0" encoding="UTF-8"?>
<svg id="Layer_1" data-name="Layer 1" xmlns="http://www.w3.org/2000/svg" viewBox="0 0 1214.38 235.34">
  <path d="M326.7,235.14V4.74h12.5V40.94c1.5-1.6,2.8-3.3,4.1-5.1C353.7,14.24,375.7,.54,399.8,.84c28.5-.8,51.7,9.7,65.3,35.1,17.6,32,18.6,70.5,2.7,103.3-12.7,28.4-44,42.6-77.5,37.4-21.2-1.8-40-14.2-50-33v91.7h-13.5l-.1-.2Zm12.5-148.9l2.8,27.1c4.9,30.8,23.1,49,51.7,52.4,27.7,4.6,54.7-11.1,64.6-37.4,11.1-26.5,10.3-56.5-2.2-82.4-10.5-23.5-35.2-37.1-60.7-33.5-23.8,1.7-43.9,18.4-50.1,41.4-2.7,10.7-4.7,21.5-6.1,32.3h0v.1Zm395,31.3c-3.9,33.6-32.1,59-65.9,59.6-52.4,2.6-77-32.2-80.9-72.3-2.7-21.8,.8-44,10.2-63.8,13.4-28,43.4-44.1,74.1-39.7,29.2,2.5,53.5,23.4,60.4,51.8,2.7,12.6,4.6,25.4,5.9,38.3h-137.7c-2.5,36.4,17,65.7,44.8,72.8,34.6,8.5,64.1-6.5,74.8-39.3,2.4-8.4,6.7-9.6,14.4-7.2h0l-.1-.2Zm-134-37.9h123.1c-.8-38.8-24.9-67-57.7-67.3-37-.6-63.8,26.5-65.4,67.3Zm159.4,38.7h12.1c.9,18.1,11.9,34.2,28.4,41.7,20.6,9.3,44.4,8.7,64.5-1.7,11.1-5,17.9-16.4,17-28.5,.6-11.7-6.6-22.5-17.7-26.3-13.3-4.9-27.4-7.7-40.9-12-14.1-4-27.8-9-41.2-15.1-21.8-10.6-23.2-52.1,1.5-65.2,25.7-14.5,56.9-15,83.1-1.3,15.9,8.8,24.7,26.6,22.1,44.6h-10.3s-.9-.9-.9-1.5c-1.3-33-29-43.3-58.8-40.4-9,1-17.5,3.7-25.5,7.7-9.9,4.5-15.8,14.7-14.8,25.5,0,10.8,6.8,20.4,17,24,13,4.8,26.8,7.8,40.3,11.6l32.5,8.5c15.1,5,25.6,18.7,26.4,34.6,2.6,17.5-6.3,34.6-22,42.5-28.4,16.1-75.2,11.8-96.1-8.5-10.7-10.7-16.6-25.3-16.5-40.4h0l-.2,.2Zm287.8-63.7h-11.3c0-1.5-.6-3-.8-4.2-.4-17.5-12.9-32.3-30.1-35.6-15.7-4.5-32.5-3.7-47.7,2.3-12.4,3.5-20.9,14.8-21,27.7-.4,12.7,8.1,23.9,20.4,26.9l51.7,13.3c5.6,1.3,11.1,3,16.5,5,16.5,6,27.7,21.3,28.2,38.8s-9.8,33.6-26,40.4c-24.3,11-52.1,11.3-76.6,.8-20.4-8.8-33.2-29.4-32-51.6h11.1c4.2,20,17.9,36.8,36.8,44.6s40.5,6,57.6-5.2c10.5-5.5,16.9-16.6,16.3-28.4,.5-11.7-6.8-22.4-18-26.1-13.3-4.9-27.4-7.6-40.9-12-14.2-3.9-28-8.9-41.4-14.9-21.3-10.5-23-51.6,1.3-64.7,26-15.1,58.1-15.5,84.4-.9,15.1,9,23.5,26.2,21.4,43.7h.1v.1ZM306.1,172.94c-9.2,3.5-19.6-.5-24.2-9.2l-44-60.8-6.4-8.5-51.1,69.4c-4.3,8.4-14.1,12.2-23,9l65.8-88.3L162.1,4.94c9.1-3.3,19.2,.3,24.2,8.5l45.6,61.6,45.9-61.4c4.3-8.2,14.1-11.9,22.8-8.5l-23.7,31.5-32.2,41.9c-3.5,3.1-3.8,8.5-.7,12,.2,.2,.4,.5,.7,.7l61.3,81.8h.1v-.1ZM585.4,4.04v12c-34-2.2-63.4,23.5-65.6,57.5-.1,2.1-.2,4.1,0,6.2v93.6h-12.2V4.84h12V39.34c14.7-25.2,37.4-34.5,66-35.2h0l-.2-.1ZM0,83.54l5.4-26.5C20.1,4.74,80.1-17.06,121.4,15.34c24.2,19,30.2,45.9,29,76.2H14.2c-2.2,54.1,36.8,86.8,86.8,70.1,16.5-6,28.9-19.7,32.9-36.7,2.6-8.5,7-10,15-7.5-2.7,21-14.9,39.6-33,50.5-30.4,16.6-68,11.8-93.2-11.9C10.6,142.34,3.2,125.14,1.8,106.84c0-3-1-5.8-1.7-8.5C.1,93.34,0,88.34,0,83.54h0Zm14.4-3.7h123.1c-.8-39.2-25.5-67.1-58.5-67.3-36.8-.5-63.1,26.7-64.7,67.2v.2l.1-.1Z"/>
  <ellipse cx="1072.61" cy="160.68" rx="7.75" ry="7.86"/>
  <path d="M1093.9,147.85h11.59c.16,6.28,4.74,10.5,11.48,10.5,7.54,0,11.81-4.54,11.81-13.03v-53.83h11.81v53.88c0,15.3-8.86,24.12-23.51,24.12-13.75,0-23.2-8.54-23.2-21.64h.01Z"/>
  <path d="M1156.03,147.17h11.7c1,7.24,8.06,11.82,18.24,11.82,9.49,0,16.44-4.91,16.44-11.66,0-5.81-4.43-9.29-14.5-11.66l-9.8-2.38c-13.75-3.22-20.03-9.86-20.03-21.06,0-13.56,11.06-22.58,27.67-22.58,15.44,0,26.72,9.02,27.41,21.85h-11.48c-1.1-7.02-7.22-11.4-16.08-11.4-9.32,0-15.55,4.49-15.55,11.35,0,5.44,4.01,8.54,13.92,10.87l8.38,2.06c15.6,3.64,22.03,9.97,22.03,21.43,0,14.57-11.28,23.7-29.3,23.7-16.86,0-28.2-8.71-29.04-22.32v-.02Z"/>
</svg>