<?xml version="1.0" encoding="UTF-8" standalone="no" ?>
<!DOCTYPE svg PUBLIC "-//W3C//DTD SVG 1.1//EN" "http://www.w3.org/Graphics/SVG/1.1/DTD/svg11.dtd">
<svg xmlns="http://www.w3.org/2000/svg" xmlns:xlink="http://www.w3.org/1999/xlink" version="1.1" width="1080" height="1080" viewBox="0 0 1080 1080" xml:space="preserve">
<desc>Created with Fabric.js 5.2.4</desc>
<defs>
</defs>
<rect x="0" y="0" width="100%" height="100%" fill="transparent"></rect>
<g transform="matrix(1 0 0 1 540 540)" id="a3f696ae-e56e-46c5-8066-58e070c80b11"  >
<rect style="stroke: none; stroke-width: 1; stroke-dasharray: none; stroke-linecap: butt; stroke-dashoffset: 0; stroke-linejoin: miter; stroke-miterlimit: 4; fill: rgb(255,255,255); fill-rule: nonzero; opacity: 1; visibility: hidden;" vector-effect="non-scaling-stroke"  x="-540" y="-540" rx="0" ry="0" width="1080" height="1080" />
</g>
<g transform="matrix(1 0 0 1 540 540)" id="f5deb72f-81c2-4891-b467-58f7dfdabaa3"  >
</g>
<g transform="matrix(4.7 0 0 4.7 522.3 277.3)" id="rect5474"  >
<rect style="stroke: none; stroke-width: 1.38910747; stroke-dasharray: none; stroke-linecap: round; stroke-dashoffset: 0; stroke-linejoin: miter; stroke-miterlimit: 4; fill: rgb(255,255,255); fill-opacity: 0; fill-rule: nonzero; opacity: 1;" vector-effect="non-scaling-stroke"  x="-115.966395" y="-44.3971785" rx="0" ry="0" width="231.93279" height="88.794357" />
</g>
<g transform="matrix(4.7 0 0 4.7 219.19 270.7)" id="rect5453"  >
<rect style="stroke: none; stroke-width: 1.51439977; stroke-dasharray: none; stroke-linecap: round; stroke-dashoffset: 0; stroke-linejoin: miter; stroke-miterlimit: 4; fill: rgb(255,255,255); fill-opacity: 0; fill-rule: nonzero; opacity: 1;" vector-effect="non-scaling-stroke"  x="-43.882843" y="-43.882843" rx="0" ry="0" width="87.765686" height="87.765686" />
</g>
<g transform="matrix(4.7 0 0 4.7 -89.75 2008.98)" id="rect1016"  >
<rect style="stroke: none; stroke-width: 1.41732287; stroke-dasharray: none; stroke-linecap: round; stroke-dashoffset: 0; stroke-linejoin: miter; stroke-miterlimit: 4; fill: none; fill-rule: nonzero; opacity: 0.53480003;" vector-effect="non-scaling-stroke"  x="-108" y="-119.49999" rx="0" ry="0" width="216" height="238.99998" />
</g>
<g transform="matrix(2.27 0 0 -2.27 527.79 362.09)" id="path1008-3"  >
<path style="stroke: none; stroke-width: 0.09999999; stroke-dasharray: none; stroke-linecap: butt; stroke-dashoffset: 0; stroke-linejoin: miter; stroke-miterlimit: 4; fill: rgb(109,139,199); fill-rule: nonzero; opacity: 1;" vector-effect="non-scaling-stroke"  transform=" translate(-128.43, -24.28)" d="M 137.90013 24.372853 C 137.90013 28.484952999999997 137.08513 31.718153 135.45414 34.073953 C 133.82214 36.427153000000004 131.49513 37.604853000000006 128.47014 37.604853000000006 C 125.44612999999998 37.604853000000006 123.10212999999999 36.427153000000004 121.44312999999998 34.073953 C 119.78212999999998 31.718153000000004 118.95312999999999 28.484953000000004 118.95312999999999 24.372853000000003 C 118.95312999999999 20.259953000000003 119.78212999999998 16.997053 121.44312999999998 14.582953000000003 C 123.10212999999999 12.168953000000004 125.44612999999998 10.961853000000003 128.47014 10.961853000000003 C 131.49513 10.961853000000003 133.82214 12.168953000000004 135.45414 14.582953000000003 C 137.08513 16.997053000000005 137.90013 20.259953000000003 137.90013 24.372853000000003 z M 151.42113 24.372853 C 151.42113 20.675953 150.88813000000002 17.295053 149.82013 14.223953 C 148.75314 11.154053 147.21013 8.5317933 145.19514 6.3567933 C 143.17713 4.1798433 140.76013 2.4970332999999996 137.94513 1.3048433 C 135.12813 0.11304331999999984 131.96913 -0.4830466800000002 128.47014000000001 -0.4830466800000002 C 125.03113000000002 -0.4830466800000002 121.90213000000001 0.11304331999999984 119.08613000000001 1.3048433 C 116.26813000000001 2.4970333 113.85113000000001 4.1798433 111.83613000000001 6.3567933 C 109.81913000000002 8.5317933 108.24713000000001 11.154053 107.12113000000001 14.223953 C 105.99413000000001 17.295053 105.43113000000001 20.675953 105.43113000000001 24.372853 C 105.43113000000001 28.068153 106.00913000000001 31.436053 107.16613000000001 34.475953 C 108.32213000000002 37.515753 109.92313000000001 40.109153 111.96913 42.254853 C 114.01513000000001 44.400152999999996 116.44613000000001 46.068152999999995 119.26313 47.261053 C 122.08013 48.452853 125.14913 49.048953 128.47014000000001 49.048953 C 131.85114000000002 49.048953 134.94913000000003 48.452853 137.76613 47.261053 C 140.58313 46.068152999999995 143.00013 44.400152999999996 145.01713 42.254853 C 147.03213 40.109153 148.60413 37.515753 149.73114 34.475953 C 150.85713 31.436052999999998 151.42113 28.068152999999995 151.42113 24.372853" stroke-linecap="round" />
</g>
<g transform="matrix(2.27 0 0 -2.27 615.23 337.75)" id="path1010-4"  >
<path style="stroke: none; stroke-width: 0.09999999; stroke-dasharray: none; stroke-linecap: butt; stroke-dashoffset: 0; stroke-linejoin: miter; stroke-miterlimit: 4; fill: rgb(109,139,199); fill-rule: nonzero; opacity: 1;" vector-effect="non-scaling-stroke"  transform=" translate(-166.98, -35.01)" d="M 175.38613 -0.12484668 C 171.53013 -0.06504668 168.40313 0.35210332 166.00213000000002 1.1271133 C 163.59913000000003 1.9001533 161.70113000000003 2.9888333 160.30813000000003 4.3900033 C 158.91413000000003 5.7900033 157.96413000000004 7.4888333 157.46213000000003 9.4860933 C 156.95713000000003 11.482953 156.70613000000003 13.732953 156.70613000000003 16.236053 L 156.70613000000003 58.954043 L 169.96013000000002 70.150153 L 169.96013000000002 18.918953000000002 C 169.96013000000002 17.724753000000003 170.04813000000001 16.652853 170.22613 15.699753000000001 C 170.40513 14.745853 170.74513000000002 13.940753 171.25013 13.286053 C 171.75313 12.629853 172.48013 12.091953 173.42913000000001 11.675953 C 174.37713000000002 11.258753 175.65313 10.990753 177.25413 10.872053 L 175.38613 -0.12484668000000099" stroke-linecap="round" />
</g>
<g transform="matrix(2.27 0 0 -2.27 691.56 362.09)" id="path1012-1"  >
<path style="stroke: none; stroke-width: 0.09999999; stroke-dasharray: none; stroke-linecap: butt; stroke-dashoffset: 0; stroke-linejoin: miter; stroke-miterlimit: 4; fill: rgb(109,139,199); fill-rule: nonzero; opacity: 1;" vector-effect="non-scaling-stroke"  transform=" translate(-200.64, -24.28)" d="M 210.11413 24.372853 C 210.11413 28.484952999999997 209.29813 31.718153 207.66813 34.073953 C 206.03612999999999 36.427153000000004 203.71013 37.604853000000006 200.68513 37.604853000000006 C 197.66112999999999 37.604853000000006 195.31713 36.427153000000004 193.65713 34.073953 C 191.99713 31.718153000000004 191.16713 28.484953000000004 191.16713 24.372853000000003 C 191.16713 20.259953000000003 191.99713 16.997053 193.65713 14.582953000000003 C 195.31713 12.168953000000004 197.66112999999999 10.961853000000003 200.68513 10.961853000000003 C 203.71013 10.961853000000003 206.03612999999999 12.168953000000004 207.66813 14.582953000000003 C 209.29813 16.997053000000005 210.11413 20.259953000000003 210.11413 24.372853000000003 z M 223.63513 24.372853 C 223.63513 20.675953 223.10213000000002 17.295053 222.03513 14.223953 C 220.96613000000002 11.154053 219.42413000000002 8.5317933 217.40913 6.3567933 C 215.39213 4.1798433 212.97413 2.4970332999999996 210.15913 1.3048433 C 207.34113 0.11304331999999984 204.18313 -0.4830466800000002 200.68513000000002 -0.4830466800000002 C 197.24513000000002 -0.4830466800000002 194.11613000000003 0.11304331999999984 191.29913000000002 1.3048433 C 188.48313000000002 2.4970333 186.06513 4.1798433 184.05013000000002 6.3567933 C 182.03313000000003 8.5317933 180.46213000000003 11.154053 179.33613000000003 14.223953 C 178.20813000000004 17.295053 177.64513000000002 20.675953 177.64513000000002 24.372853 C 177.64513000000002 28.068153 178.22313000000003 31.436053 179.37913000000003 34.475953 C 180.53613000000004 37.515753 182.13713000000004 40.109153 184.18313000000003 42.254853 C 186.22913000000003 44.400152999999996 188.66113000000004 46.068152999999995 191.47813000000002 47.261053 C 194.29413000000002 48.452853 197.36313 49.048953 200.68513000000002 49.048953 C 204.06513 49.048953 207.16413000000003 48.452853 209.98113 47.261053 C 212.79613 46.068152999999995 215.21413 44.400152999999996 217.23113 42.254853 C 219.24713 40.109153 220.81813 37.515753 221.94613 34.475953 C 223.07113 31.436052999999998 223.63513 28.068152999999995 223.63513 24.372853" stroke-linecap="round" />
</g>
<g transform="matrix(2.27 0 0 -2.27 888.24 337.75)" id="path1014-6"  >
<path style="stroke: none; stroke-width: 0.09999999; stroke-dasharray: none; stroke-linecap: butt; stroke-dashoffset: 0; stroke-linejoin: miter; stroke-miterlimit: 4; fill: rgb(148,170,196); fill-rule: nonzero; opacity: 1;" vector-effect="non-scaling-stroke"  transform=" translate(-287.36, -35.01)" d="M 294.03413 0.76890332 L 280.78013 0.76890332 L 280.78013 47.797853 L 294.03413 47.797853 z M 295.28013 61.388053 C 295.28013 58.943153 294.49313 57.020843 292.92213 55.620853 C 291.35013 54.220043 289.49813 53.520053 287.36213 53.520053 C 285.22713 53.520053 283.37413 54.220043 281.80213 55.620853 C 280.23112999999995 57.020843 279.44512999999995 58.943152999999995 279.44512999999995 61.388053 C 279.44512999999995 63.831743 280.23112999999995 65.754053 281.80213 67.154843 C 283.37413 68.554043 285.22713 69.256043 287.36213 69.256043 C 289.49813 69.256043 291.35013 68.55404300000001 292.92213 67.154843 C 294.49313 65.754053 295.28013 63.831743 295.28013 61.388053" stroke-linecap="round" />
</g>
<g transform="matrix(2.27 0 0 -2.27 796 342.76)" id="path1020-4"  >
<path style="stroke: none; stroke-width: 0.09999999; stroke-dasharray: none; stroke-linecap: butt; stroke-dashoffset: 0; stroke-linejoin: miter; stroke-miterlimit: 4; fill: rgb(148,170,196); fill-rule: nonzero; opacity: 1;" vector-effect="non-scaling-stroke"  transform=" translate(-246.69, -32.81)" d="M 275.94613 64.845053 L 262.12313 64.845053 L 246.94113000000002 28.04705299999999 L 231.75213000000002 64.845053 L 217.43613000000002 64.845053 L 229.74613000000002 38.11105299999999 L 229.67013000000003 38.22085299999999 L 246.69113000000004 0.7689033199999926 L 269.75813000000005 51.40215299999999 L 275.94613000000004 64.845053" stroke-linecap="round" />
</g>
<g transform="matrix(2.27 0 0 -2.27 372.42 343.06)" id="path1022-3"  >
<path style="stroke: none; stroke-width: 0.09999999; stroke-dasharray: none; stroke-linecap: butt; stroke-dashoffset: 0; stroke-linejoin: miter; stroke-miterlimit: 4; fill: rgb(109,139,199); fill-rule: nonzero; opacity: 1;" vector-effect="non-scaling-stroke"  transform=" translate(-59.92, -32.67)" d="M 66.855134 38.856753 L 66.855134 62.549752999999995 L 66.842134 62.549752999999995 L 66.842134 64.752853 L 52.978134 58.159943 L 52.978134 10.488053 L 52.978134 0.58883332 L 66.85513399999999 0.58883332 L 66.85513399999999 17.556753 L 66.85513399999999 26.877153 L 66.85513399999999 38.856753" stroke-linecap="round" />
</g>
<g transform="matrix(2.27 0 0 -2.27 429.46 343.06)" id="path1024-1"  >
<path style="stroke: none; stroke-width: 0.09999999; stroke-dasharray: none; stroke-linecap: butt; stroke-dashoffset: 0; stroke-linejoin: miter; stroke-miterlimit: 4; fill: rgb(109,139,199); fill-rule: nonzero; opacity: 1;" vector-effect="non-scaling-stroke"  transform=" translate(-85.07, -32.67)" d="M 85.229134 58.159943 L 85.216134 38.856753 L 71.043134 38.856753 L 71.043134 26.877153 L 85.216134 26.877153 L 85.216134 0.58883332 L 99.09313499999999 0.58883332 L 99.09313499999999 13.188053 L 99.09313499999999 62.549752999999995 L 99.09313499999999 64.752853 L 85.22913399999999 58.159943" stroke-linecap="round" />
</g>
<g transform="matrix(2.27 0 0 -2.27 962.67 362.46)" id="path1069"  >
<path style="stroke: none; stroke-width: 0.56458342; stroke-dasharray: none; stroke-linecap: butt; stroke-dashoffset: 0; stroke-linejoin: miter; stroke-miterlimit: 4; fill: rgb(148,170,196); fill-rule: nonzero; opacity: 1;" vector-effect="non-scaling-stroke"  transform=" translate(-320.18, -24.12)" d="M 300.98674 4.4308775 C 300.98674 7.5748508 301.25754 8.905190000000001 302.22264 10.500150000000001 C 304.10559 13.612303 310.73081 22.518336 316.60531000000003 29.834253 C 319.50437000000005 33.444606 321.87634 36.556895 321.87634 36.750389 C 321.87634 36.94403 317.43025 37.102181 311.99612 37.102181 L 302.11592 37.102181 L 302.11592 42.465747 L 302.11592 47.829267 L 320.46488 47.829267 L 338.81381999999996 47.829267 L 338.81381999999996 43.259799 L 338.81381999999996 38.690321 L 334.39696 33.803038 C 326.49593999999996 25.060463 316.79508999999996 12.842448000000001 316.79508999999996 11.633833 C 316.79508999999996 11.356960999999998 321.86583999999993 11.131376 328.08675999999997 11.131376 L 339.37841 11.131376 L 339.37841 5.7678111 L 339.37841 0.40427961 L 320.18258 0.40427961 L 300.98674 0.40427961 z" stroke-linecap="round" />
</g>
<g transform="matrix(5.13 -0.7 -0.7 -5.13 60.98 376.21)" id="path992"  >
<path style="stroke: none; stroke-width: 0.02316593; stroke-dasharray: none; stroke-linecap: butt; stroke-dashoffset: 0; stroke-linejoin: miter; stroke-miterlimit: 4; fill: rgb(192,28,45); fill-rule: nonzero; opacity: 1;" vector-effect="non-scaling-stroke"  transform=" translate(-616.11, -278.3)" d="M 609.57618 290.91846 L 620.50577 265.69138999999996 L 622.6495199999999 267.83514999999994 L 613.0310499999999 290.03667999999993 L 609.5761799999999 290.9184599999999" stroke-linecap="round" />
</g>
<g transform="matrix(5.13 -0.7 -0.7 -5.13 125.97 393.49)" id="path994"  >
<path style="stroke: none; stroke-width: 0.02316593; stroke-dasharray: none; stroke-linecap: butt; stroke-dashoffset: 0; stroke-linejoin: miter; stroke-miterlimit: 4; fill: rgb(148,170,196); fill-rule: nonzero; opacity: 1;" vector-effect="non-scaling-stroke"  transform=" translate(-628.1, -273.29)" d="M 615.00733 291.82127 L 609.57408 290.92065 L 622.10438 287.72029000000003 L 615.87708 289.31012000000004 L 624.41567 269.60131 L 638.37868 283.56433000000004 L 638.3816800000001 283.56333000000006 L 645.7342500000001 254.75975000000005 L 646.6359000000001 260.1923100000001 L 640.2042900000001 285.3862900000001 z M 609.5761200000001 290.91861 L 620.5057400000001 265.69138 L 622.6493800000001 267.83502 L 613.0309900000001 290.03665 z" stroke-linecap="round" />
</g>
<g transform="matrix(5.13 -0.7 -0.7 -5.13 164.49 342.76)" id="path1000"  >
<path style="stroke: none; stroke-width: 0.02316593; stroke-dasharray: none; stroke-linecap: butt; stroke-dashoffset: 0; stroke-linejoin: miter; stroke-miterlimit: 4; fill: rgb(109,139,199); fill-rule: nonzero; opacity: 1;" vector-effect="non-scaling-stroke"  transform=" translate(-636.81, -281.99)" d="M 652.92673 298.10831 L 620.6957600000001 292.76464000000004 L 642.11318 287.29475 L 642.11318 287.29475 L 647.57969 265.88074 z" stroke-linecap="round" />
</g>
<g transform="matrix(5.13 -0.7 -0.7 -5.13 377.4 165.2)" id="path5211"  >
<path style="stroke: none; stroke-width: 0.02316593; stroke-dasharray: none; stroke-linecap: butt; stroke-dashoffset: 0; stroke-linejoin: miter; stroke-miterlimit: 4; fill: rgb(192,28,45); fill-rule: nonzero; opacity: 1;" vector-effect="non-scaling-stroke"  transform=" translate(-689.74, -317.91)" d="M 696.27741 305.29785 L 685.3478200000001 330.52492 L 683.20406 328.38117 L 692.82254 306.17963 L 696.27741 305.29785" stroke-linecap="round" />
</g>
<g transform="matrix(5.13 -0.7 -0.7 -5.13 312.41 147.92)" id="path5213"  >
<path style="stroke: none; stroke-width: 0.02316593; stroke-dasharray: none; stroke-linecap: butt; stroke-dashoffset: 0; stroke-linejoin: miter; stroke-miterlimit: 4; fill: rgb(148,170,196); fill-rule: nonzero; opacity: 1;" vector-effect="non-scaling-stroke"  transform=" translate(-677.75, -322.93)" d="M 660.11881 341.45654 L 659.2175100000001 336.02397 L 665.64877 310.83000000000004 L 690.84614 304.39501 L 696.27939 305.29563 L 683.5420700000001 308.54859 L 689.97639 306.90616 L 681.4378 326.61496 L 667.4751200000001 312.65228 L 667.47212 312.65298 z M 685.3477300000001 330.52489 L 683.2040900000001 328.38125 L 692.82248 306.17962 L 696.2773500000001 305.298 z" stroke-linecap="round" />
</g>
<g transform="matrix(5.13 -0.7 -0.7 -5.13 273.89 198.64)" id="path5219"  >
<path style="stroke: none; stroke-width: 0.02316593; stroke-dasharray: none; stroke-linecap: butt; stroke-dashoffset: 0; stroke-linejoin: miter; stroke-miterlimit: 4; fill: rgb(109,139,199); fill-rule: nonzero; opacity: 1;" vector-effect="non-scaling-stroke"  transform=" translate(-669.04, -314.22)" d="M 658.27378 330.33554 L 652.92673 298.10830999999996 L 685.1577100000001 303.45162999999997 L 663.7402900000001 308.92152999999996 L 663.7402900000001 308.92152999999996 z" stroke-linecap="round" />
</g>
<g transform="matrix(NaN NaN NaN NaN 0 0)"  >
<g style=""   >
</g>
</g>
<g transform="matrix(NaN NaN NaN NaN 0 0)"  >
<g style=""   >
</g>
</g>
<g transform="matrix(NaN NaN NaN NaN 0 0)"  >
<g style=""   >
</g>
</g>
<g transform="matrix(NaN NaN NaN NaN 0 0)"  >
<g style=""   >
</g>
</g>
<g transform="matrix(NaN NaN NaN NaN 0 0)"  >
<g style=""   >
</g>
</g>
<g transform="matrix(NaN NaN NaN NaN 0 0)"  >
<g style=""   >
</g>
</g>
<g transform="matrix(NaN NaN NaN NaN 0 0)"  >
<g style=""   >
</g>
</g>
</svg>