<?xml version="1.0" encoding="UTF-8"?>
<svg id="svg3070" xmlns="http://www.w3.org/2000/svg" viewBox="0 0 87.28 76.25">
  <defs>
    <style>
      .cls-1 {
        fill: #fff;
      }

      .cls-1, .cls-2 {
        fill-rule: evenodd;
      }

      .cls-2 {
        fill: #231f20;
      }

      .cls-3 {
        fill: #069;
      }
    </style>
  </defs>
  <g id="layer1">
    <g id="g3019">
      <path id="path14" class="cls-3" d="M11.51,5.46c0-3.02,2.51-5.46,5.6-5.46H81.68c3.09,0,5.6,2.45,5.6,5.46V70.79c0,3.02-2.51,5.46-5.6,5.46H17.11c-3.09,0-5.6-2.45-5.6-5.46V5.46Z"/>
      <path id="path26" class="cls-2" d="M0,13.88,.3,63.87"/>
      <path id="path28" class="cls-1" d="M34.48,63.83V29.4h-11.44V63.83h11.44Zm-5.72-39.13c3.99,0,6.47-2.64,6.47-5.95-.07-3.38-2.48-5.95-6.4-5.95s-6.47,2.57-6.47,5.95,2.48,5.95,6.32,5.95h.07Z"/>
      <path id="path30" class="cls-1" d="M40.81,63.83h11.44v-19.23c0-1.03,.07-2.06,.38-2.79,.83-2.06,2.71-4.19,5.87-4.19,4.14,0,5.8,3.16,5.8,7.79v18.42h11.44v-19.74c0-10.58-5.65-15.5-13.18-15.5-6.17,0-8.88,3.45-10.39,5.8h.08v-4.99h-11.44c.15,3.23,0,34.43,0,34.43h0Z"/>
    </g>
  </g>
</svg>