<?xml version="1.0" encoding="UTF-8" standalone="no" ?>
<!DOCTYPE svg PUBLIC "-//W3C//DTD SVG 1.1//EN" "http://www.w3.org/Graphics/SVG/1.1/DTD/svg11.dtd">
<svg xmlns="http://www.w3.org/2000/svg" xmlns:xlink="http://www.w3.org/1999/xlink" version="1.1" width="1080" height="1080" viewBox="0 0 1080 1080" xml:space="preserve">
<desc>Created with Fabric.js 5.2.4</desc>
<defs>
</defs>
<g transform="matrix(1 0 0 1 540 540)" id="9b6f75d2-f970-4782-8ac3-ad50d4c32c6a"  >
</g>
<g transform="matrix(1 0 0 1 540 540)" id="08cc6637-72b5-4bfe-adaf-946422947396"  >
<rect style="stroke: none; stroke-width: 1; stroke-dasharray: none; stroke-linecap: butt; stroke-dashoffset: 0; stroke-linejoin: miter; stroke-miterlimit: 4; fill: rgb(255,255,255); fill-rule: nonzero; opacity: 1; visibility: hidden;" vector-effect="non-scaling-stroke"  x="-540" y="-540" rx="0" ry="0" width="1080" height="1080" />
</g>
<g transform="matrix(9.56 0 0 9.56 161.39 194.4)"  >
<path style="stroke: none; stroke-width: 1; stroke-dasharray: none; stroke-linecap: butt; stroke-dashoffset: 0; stroke-linejoin: miter; stroke-miterlimit: 4; fill: rgb(89,150,54); fill-rule: nonzero; opacity: 1;" vector-effect="non-scaling-stroke"  transform=" translate(-20.78, -22.85)" d="M 16.147 5.154 L 17.237 7.204 C 17.474298859616816 7.573788154946889 17.750542727545938 7.917081505383079 18.061 8.228 C 18.974 9.141 19.843 10.097999999999999 20.621 11.123 C 22.468999999999998 13.549999999999999 23.715999999999998 16.244999999999997 24.607 19.162999999999997 C 25.141 20.944999999999997 25.431 22.770999999999997 25.453 24.618999999999996 C 25.543 30.141999999999996 23.649 34.885 19.819 38.827 C 19.198426201142897 39.451864469642345 18.528232520781934 40.02540846256603 17.814999999999998 40.542 C 17.435 40.542 17.258 40.242000000000004 17.101999999999997 39.985 C 16.801999999999996 39.485 16.633999999999997 38.938 16.544999999999998 38.382 C 16.410999999999998 37.714 16.322 37.046 16.366999999999997 36.355 L 16.366999999999997 36.043 C 16.345 35.976 16.010999999999996 5.311 16.144 5.154999999999998 z" stroke-linecap="round" />
</g>
<g transform="matrix(9.56 0 0 9.56 74.94 195.68)"  >
<path style="stroke: none; stroke-width: 1; stroke-dasharray: none; stroke-linecap: butt; stroke-dashoffset: 0; stroke-linejoin: miter; stroke-miterlimit: 4; fill: rgb(108,172,72); fill-rule: nonzero; opacity: 1;" vector-effect="non-scaling-stroke"  transform=" translate(-11.75, -22.98)" d="M 16.147 5.088 C 16.101999999999997 4.998 16.057 5.066 16.012999999999998 5.11 C 16.034999999999997 5.555000000000001 15.878999999999998 5.956 15.632999999999997 6.335000000000001 C 15.365999999999998 6.715000000000001 15.008999999999997 7.003000000000001 14.652999999999997 7.315000000000001 C 12.670999999999998 9.030000000000001 11.112999999999996 11.101 9.864999999999997 13.417000000000002 C 8.216999999999997 16.535 7.348999999999997 19.875 7.104999999999997 23.394000000000002 C 6.9949999999999966 24.664 7.504999999999997 29.14 7.9069999999999965 30.431 C 8.996999999999996 33.861000000000004 10.956999999999997 36.733000000000004 13.506999999999996 39.227000000000004 C 14.130999999999997 39.827000000000005 14.798999999999996 40.385000000000005 15.488999999999995 40.919000000000004 C 15.688999999999995 40.919000000000004 15.711999999999996 40.74100000000001 15.755999999999995 40.607000000000006 C 15.843743455009273 40.32259127037807 15.910588092991608 40.03215131834482 15.955999999999996 39.73800000000001 C 16.155999999999995 38.62500000000001 16.267999999999994 37.51100000000001 16.400999999999993 36.39800000000001 L 16.15599999999999 5.088000000000012 z" stroke-linecap="round" />
</g>
<g transform="matrix(9.56 0 0 9.56 121.76 366.66)"  >
<path style="stroke: none; stroke-width: 1; stroke-dasharray: none; stroke-linecap: butt; stroke-dashoffset: 0; stroke-linejoin: miter; stroke-miterlimit: 4; fill: rgb(194,191,191); fill-rule: nonzero; opacity: 1;" vector-effect="non-scaling-stroke"  transform=" translate(-16.64, -40.85)" d="M 17.24 41.9 C 17.285 41.388 17.54 40.964999999999996 17.796999999999997 40.542 C 17.529999999999998 40.432 17.328999999999997 40.208 17.173 39.962 C 17.038999999999998 39.739000000000004 16.927999999999997 39.462 16.839 39.227000000000004 C 16.526999999999997 38.292 16.459 37.312000000000005 16.371 36.354000000000006 L 16.371 35.77400000000001 C 16.261 35.86400000000001 16.237 36.620000000000005 16.237 36.732000000000006 C 16.169999999999998 37.75600000000001 16.037 38.75900000000001 15.836999999999998 39.73800000000001 C 15.769999999999998 40.138000000000005 15.726999999999999 40.540000000000006 15.480999999999998 40.89600000000001 C 15.480999999999998 40.94100000000001 15.480999999999998 40.98600000000001 15.502999999999998 41.05200000000001 C 15.902999999999999 42.232000000000006 16.014999999999997 43.43500000000001 16.083 44.660000000000004 L 16.083 45.105000000000004 C 16.083 45.639 16.061 45.528000000000006 16.505999999999997 45.705000000000005 C 16.683999999999997 45.772000000000006 16.885999999999996 45.79500000000001 17.062999999999995 45.928000000000004 C 17.196999999999996 45.928000000000004 17.218999999999994 45.818000000000005 17.218999999999994 45.728 L 17.151999999999994 44.993 L 17.151999999999994 42.943000000000005 C 17.129999999999995 42.587 17.196999999999996 42.230000000000004 17.241999999999994 41.89600000000001 z" stroke-linecap="round" />
</g>
<g transform="matrix(9.77 0 0 9.77 432.56 284.29)"  >
<path style="stroke: none; stroke-width: 1; stroke-dasharray: none; stroke-linecap: butt; stroke-dashoffset: 0; stroke-linejoin: miter; stroke-miterlimit: 4; fill: rgb(255,255,255); fill-rule: nonzero; opacity: 1;" vector-effect="non-scaling-stroke"  transform=" translate(-52.4, -33.38)" d="M 37.73 33.72 L 37.73 35.797 C 37.72767847706212 35.87924869419147 37.73236204919615 35.961545747403584 37.744 36.043 C 37.771 36.289 37.922 36.439 38.144 36.508 C 38.35113018686016 36.5625324927849 38.5615689713598 36.60361816023483 38.774 36.631 C 38.897 36.645 38.938 36.699 38.952 36.831 C 38.966 37.29600000000001 38.925 37.351000000000006 38.474 37.323 C 37.422 37.268 36.369 37.255 35.31699999999999 37.323 L 35.21699999999999 37.323 C 34.88899999999999 37.337 34.861999999999995 37.309 34.861999999999995 36.981 C 34.861999999999995 36.926 34.876 36.858000000000004 34.876 36.803000000000004 C 34.876 36.703 34.943999999999996 36.653000000000006 35.04 36.653000000000006 C 35.26 36.626000000000005 35.464 36.571000000000005 35.67 36.53000000000001 C 35.957 36.46200000000001 36.120000000000005 36.284000000000006 36.148 35.99700000000001 C 36.188 35.68300000000001 36.188 35.355000000000004 36.188 35.040000000000006 L 36.202000000000005 31.378000000000007 C 36.211204663377906 31.161179847845933 36.09430968020379 30.958561877010805 35.90200000000001 30.858000000000008 C 35.65470000556797 30.720630007885074 35.39315308662882 30.610646175305536 35.12200000000001 30.53000000000001 C 35.040000000000006 30.503000000000007 34.958000000000006 30.49000000000001 34.89000000000001 30.448000000000008 C 34.690000000000005 30.352000000000007 34.68500000000001 30.175000000000008 34.876000000000005 30.06500000000001 C 34.944 30.02500000000001 35.026 29.997000000000007 35.108000000000004 29.983000000000008 C 35.93734483086963 29.860603210291867 36.75216657937556 29.65455248030373 37.540000000000006 29.36800000000001 C 37.70400000000001 29.31300000000001 37.745000000000005 29.32800000000001 37.760000000000005 29.49100000000001 C 37.77400000000001 29.59100000000001 37.760000000000005 29.71100000000001 37.746 29.80500000000001 C 37.719 29.98300000000001 37.719 30.16000000000001 37.719 30.32500000000001 C 37.719 30.39300000000001 37.733000000000004 30.46200000000001 37.801 30.50300000000001 C 37.869 30.54400000000001 37.938 30.50300000000001 38.001000000000005 30.46300000000001 C 38.288000000000004 30.243000000000013 38.575 30.039000000000012 38.889 29.86300000000001 C 39.339000000000006 29.61700000000001 39.819 29.39800000000001 40.339000000000006 29.33000000000001 C 40.96900000000001 29.248000000000008 41.514 29.41200000000001 41.99300000000001 29.82200000000001 C 42.1910489062563 29.999255973783498 42.36547959340626 30.201246037323244 42.51200000000001 30.42300000000001 C 42.64900000000001 30.623000000000008 42.662000000000006 30.628000000000007 42.84000000000001 30.49100000000001 C 43.360000000000014 30.10800000000001 43.90600000000001 29.76700000000001 44.494000000000014 29.52100000000001 C 45.109000000000016 29.26100000000001 45.738000000000014 29.22100000000001 46.366000000000014 29.43900000000001 C 47.00800000000002 29.67100000000001 47.44600000000001 30.12200000000001 47.70600000000002 30.73700000000001 C 47.926000000000016 31.22900000000001 48.02000000000002 31.73700000000001 48.02000000000002 32.26700000000001 L 48.02000000000002 35.92900000000001 C 48.02000000000002 36.17500000000001 48.12000000000002 36.32900000000001 48.362000000000016 36.44900000000001 C 48.622000000000014 36.549000000000014 48.90900000000001 36.59900000000001 49.182000000000016 36.65400000000001 C 49.360000000000014 36.69400000000001 49.360000000000014 36.69400000000001 49.360000000000014 36.87400000000001 C 49.33300000000001 37.32400000000001 49.292000000000016 37.35200000000001 48.85400000000001 37.32400000000001 C 47.757194187427 37.2625205451077 46.65780581257304 37.2625205451077 45.56100000000002 37.32400000000001 C 45.341000000000015 37.338000000000015 45.341000000000015 37.338000000000015 45.329000000000015 37.119000000000014 L 45.329000000000015 37.051000000000016 C 45.31500000000001 36.68100000000002 45.31500000000001 36.68100000000002 45.671000000000014 36.60100000000001 L 46.02600000000001 36.50500000000002 C 46.27356914355671 36.44673709359891 46.448902220656954 36.226330182998844 46.45000000000001 35.972000000000016 L 46.49000000000001 34.94700000000002 L 46.46300000000001 32.26900000000002 C 46.45251481526205 32.029889272563196 46.40180459061572 31.794255762039914 46.31300000000001 31.57200000000002 C 45.97100000000001 30.73800000000002 45.22000000000001 30.43800000000002 44.49500000000001 30.52000000000002 C 43.948000000000015 30.57500000000002 43.47000000000001 30.79300000000002 43.01900000000001 31.108000000000022 C 42.923000000000016 31.176000000000023 42.85500000000001 31.25800000000002 42.869000000000014 31.39500000000002 C 42.99200000000001 32.270000000000024 42.90900000000001 33.145000000000024 42.924000000000014 34.01900000000002 L 42.924000000000014 35.91900000000002 C 42.924000000000014 36.26100000000002 43.061000000000014 36.42500000000002 43.38900000000002 36.50700000000002 L 44.01900000000002 36.64400000000002 C 44.115000000000016 36.65800000000002 44.16900000000002 36.69900000000002 44.16900000000002 36.80800000000002 L 44.16900000000002 36.90800000000002 C 44.155000000000015 37.291000000000025 44.12900000000002 37.30800000000002 43.74500000000002 37.30400000000002 C 42.652000000000015 37.249000000000024 41.55800000000002 37.264000000000024 40.47900000000002 37.30400000000002 C 40.10900000000002 37.318000000000026 40.07900000000002 37.27700000000002 40.09600000000002 36.904000000000025 C 40.11000000000002 36.684000000000026 40.13600000000002 36.672000000000025 40.34200000000002 36.63100000000002 L 40.79200000000002 36.54900000000002 C 41.19200000000002 36.46700000000002 41.33900000000002 36.31700000000002 41.36600000000002 35.89300000000002 L 41.40600000000002 34.977000000000025 L 41.37900000000002 32.230000000000025 C 41.35200000000002 31.888000000000027 41.27900000000002 31.560000000000024 41.09200000000002 31.246000000000024 C 40.81900000000002 30.740000000000023 40.39200000000002 30.481000000000023 39.80700000000002 30.453000000000024 C 39.21900000000002 30.413000000000025 38.700000000000024 30.631000000000025 38.20700000000002 30.903000000000024 C 37.86500000000002 31.103000000000023 37.715000000000025 31.340000000000025 37.74200000000002 31.737000000000023 L 37.74200000000002 33.73200000000002 z M 63.477 33.803 L 63.477 35.73 C 63.47919182456219 35.86702999274077 63.48820297359765 36.00386595957553 63.504 36.13999999999999 C 63.516004889584515 36.326398514298816 63.64966525461473 36.48247144053837 63.832 36.522999999999996 C 64.06779355179154 36.59173473861085 64.31073631424819 36.63300816372435 64.556 36.645999999999994 C 64.693 36.66 64.72 36.71399999999999 64.734 36.82399999999999 L 64.734 36.91999999999999 C 64.72 37.39799999999999 64.666 37.45299999999999 64.201 37.42599999999999 C 63.160999999999994 37.35799999999999 62.123999999999995 37.37099999999999 61.084999999999994 37.42599999999999 L 60.684999999999995 37.43999999999999 C 60.602999999999994 37.43999999999999 60.584999999999994 37.39999999999999 60.562 37.343999999999994 C 60.522064214549275 37.154750552066794 60.522064214549275 36.959249447933196 60.562 36.769999999999996 C 60.576 36.687999999999995 60.629999999999995 36.669999999999995 60.711999999999996 36.647 C 60.912 36.62 61.081999999999994 36.579 61.272 36.547 C 61.614 36.464999999999996 61.737 36.327 61.75 35.973 L 61.79 34.824999999999996 L 61.79 31.462999999999994 C 61.79 31.216999999999995 61.694 31.066999999999993 61.476 30.956999999999994 C 61.23 30.819999999999993 60.97 30.724999999999994 60.696 30.628999999999994 C 60.614 30.601999999999993 60.532 30.573999999999995 60.464 30.532999999999994 C 60.286 30.409999999999993 60.263999999999996 30.232999999999993 60.437 30.095999999999993 C 60.51457733055903 30.032223472092625 60.609877714903945 29.993824049829108 60.71 29.985999999999994 C 61.585 29.848999999999993 62.432 29.657999999999994 63.252 29.329999999999995 C 63.348 29.289999999999996 63.389 29.315999999999995 63.43 29.397999999999996 C 63.471 29.479999999999997 63.485 29.575999999999997 63.47 29.670999999999996 L 63.43 30.312999999999995 C 63.43 30.394999999999996 63.39 30.512999999999995 63.457 30.544999999999995 C 63.539 30.599999999999994 63.594 30.476999999999993 63.662 30.444999999999993 C 64.0655147477661 30.106516029596126 64.51123386352508 29.821807061988398 64.988 29.597999999999992 C 65.412 29.397999999999993 65.848 29.269999999999992 66.341 29.29799999999999 C 67.25699999999999 29.35299999999999 67.913 29.81799999999999 68.336 30.62399999999999 C 68.556 31.04799999999999 68.64999999999999 31.511999999999993 68.691 31.990999999999993 L 68.73100000000001 32.99099999999999 L 68.745 36.010999999999996 C 68.759 36.242999999999995 68.84100000000001 36.394 69.07300000000001 36.476 C 69.31350736224122 36.556153490004334 69.56039752596246 36.6157015240726 69.811 36.653999999999996 C 70.031 36.681 70.043 36.721999999999994 70.057 36.927 L 70.057 36.995 C 70.03 37.46 70.002 37.473 69.537 37.445 C 68.51739872114253 37.39033960909262 67.49560127885748 37.39033960909263 66.47600000000001 37.44500000000001 C 66.339 37.459 66.203 37.445 66.076 37.459 C 65.994 37.459 65.939 37.445 65.92599999999999 37.36300000000001 C 65.89899999999999 37.18500000000001 65.87099999999998 37.00800000000001 65.91199999999999 36.81600000000001 C 65.92599999999999 36.73400000000001 65.967 36.69300000000001 66.062 36.67900000000001 L 66.692 36.57900000000001 C 66.91199999999999 36.52400000000001 67.03399999999999 36.379000000000005 67.062 36.17900000000001 L 67.089 35.79600000000001 L 67.075 32.940000000000005 C 67.075 32.612 67.061 32.284000000000006 66.99300000000001 31.956000000000003 C 66.82900000000001 31.256000000000004 66.296 30.756000000000004 65.57300000000001 30.686000000000003 C 64.94300000000001 30.618000000000002 64.373 30.782000000000004 63.851000000000006 31.123000000000005 C 63.59100000000001 31.287000000000006 63.48100000000001 31.519000000000005 63.48100000000001 31.806000000000004 L 63.48100000000001 33.870000000000005 C 63.48100000000001 33.830000000000005 63.48100000000001 33.830000000000005 63.49500000000001 33.830000000000005 z" stroke-linecap="round" />
</g>
<g transform="matrix(9.77 0 0 9.77 926.29 264)"  >
<path style="stroke: none; stroke-width: 1; stroke-dasharray: none; stroke-linecap: butt; stroke-dashoffset: 0; stroke-linejoin: miter; stroke-miterlimit: 4; fill: rgb(194,191,191); fill-rule: nonzero; opacity: 1;" vector-effect="non-scaling-stroke"  transform=" translate(-102.95, -31.3)" d="M 103.503 29.935 C 103.353 28.936999999999998 102.983 28.049 102.341 27.27 C 101.78160393357786 26.581820581760912 101.05758255508238 26.04594157572957 100.23599999999999 25.712 C 99.37599999999999 25.357 98.45899999999999 25.247 97.52999999999999 25.22 C 97.14699999999999 25.206 91.92699999999999 25.288 91.54399999999998 25.22 C 91.44799999999998 25.206 91.37999999999998 25.233999999999998 91.32399999999998 25.316 C 91.25599999999999 25.416 91.18699999999998 25.520999999999997 91.14599999999999 25.63 C 90.98199999999999 26 90.98199999999999 25.971999999999998 91.37799999999999 26.026 C 91.70599999999999 26.081 92.01999999999998 26.108 92.33499999999998 26.204 C 92.62199999999999 26.3 92.82699999999998 26.464000000000002 92.89499999999998 26.778000000000002 C 92.92199999999998 26.928 92.94999999999999 31.738000000000003 92.94999999999999 33.980000000000004 L 92.89499999999998 35.580000000000005 C 92.88099999999999 35.703 92.86799999999998 35.82600000000001 92.82699999999998 35.935 C 92.77199999999998 36.099000000000004 92.67699999999998 36.235 92.51299999999999 36.305 C 92.33253149043534 36.38990741338112 92.13793560292844 36.44075999722438 91.939 36.455 C 91.56899999999999 36.495 91.51499999999999 36.51 91.392 36.92 L 91.35199999999999 37.07 C 91.32499999999999 37.248 91.338 37.275 91.51599999999999 37.275 L 95.60199999999999 37.315 L 97.20199999999998 37.288 L 98.30899999999998 37.150999999999996 C 99.56599999999999 36.919 100.68699999999998 36.398999999999994 101.64299999999999 35.565999999999995 C 102.18912755072525 35.08368593214854 102.63494052121662 34.49855640837861 102.95499999999998 33.843999999999994 C 103.33799999999998 33.07899999999999 103.50199999999998 32.24399999999999 103.54299999999998 31.397999999999993 C 103.61099999999998 30.91999999999999 103.58299999999998 30.427999999999994 103.50299999999997 29.935999999999993 z M 101.521 31.875 C 101.466 32.75 101.289 33.597 100.838 34.362 C 100.264 35.36 99.44399999999999 36.057 98.30999999999999 36.302 C 97.81799999999998 36.402 97.326 36.452 96.80999999999999 36.384 C 96.43999999999998 36.344 96.08599999999998 36.302 95.74399999999999 36.179 C 95.12899999999999 35.959 94.90999999999998 35.579 94.89699999999999 34.979 L 94.883 26.738999999999997 C 94.883 26.246999999999996 95.103 26.138999999999996 95.457 26.124 C 95.99 26.084 96.53699999999999 26.096999999999998 97.07 26.151 C 97.63740265651847 26.205875712765398 98.19422441290224 26.34053635517985 98.72399999999999 26.551 C 99.11756491590724 26.715040528726817 99.48221316143322 26.941257495858675 99.80399999999999 27.221 C 100.54199999999999 27.851 101.03399999999999 28.641 101.30399999999999 29.571 C 101.52399999999999 30.323 101.564 31.088 101.52399999999999 31.853 z M 114.861 33.215 C 114.861 33.133 114.861 33.065000000000005 114.84700000000001 32.983000000000004 C 114.724 32.231 114.32700000000001 31.657000000000004 113.71300000000001 31.220000000000006 C 113.31700000000001 30.933000000000007 112.86600000000001 30.742000000000004 112.40100000000001 30.605000000000008 C 112.31900000000002 30.578000000000007 112.251 30.550000000000008 112.16900000000001 30.537000000000006 C 112.183 30.469000000000005 112.22400000000002 30.455000000000005 112.26500000000001 30.441000000000006 C 112.53800000000001 30.304000000000006 112.79800000000002 30.154000000000007 113.03000000000002 29.949000000000005 C 113.45400000000002 29.594000000000005 113.73000000000002 29.156000000000006 113.87700000000001 28.623000000000005 C 113.959 28.336000000000006 113.959 28.049000000000003 113.93200000000002 27.748000000000005 C 113.88685973119487 27.034724361421222 113.51957707216309 26.38075513787466 112.93400000000001 25.971000000000004 C 112.30400000000002 25.506000000000004 111.56700000000001 25.315000000000005 110.802 25.301000000000002 C 109.32600000000001 25.274 107.837 25.301000000000002 106.36200000000001 25.301000000000002 C 105.938 25.301000000000002 105.51500000000001 25.328000000000003 105.07700000000001 25.261000000000003 C 104.99500000000002 25.247000000000003 104.87700000000001 25.221000000000004 104.81700000000001 25.316000000000003 C 104.71700000000001 25.494000000000003 104.59700000000001 25.671000000000003 104.557 25.876 C 104.543 25.972 104.571 26.026 104.68 26.040000000000003 L 105.623 26.177000000000003 C 105.99300000000001 26.232000000000003 106.253 26.437000000000005 106.27900000000001 26.765000000000004 C 106.30580774519564 26.991677134208352 106.31916447137854 27.219743233781458 106.31900000000002 27.448000000000008 L 106.29200000000002 30.003000000000004 L 106.27800000000002 35.059000000000005 C 106.27800000000002 35.359 106.23800000000001 35.647000000000006 106.18200000000002 35.947 C 106.15450186424883 36.1415462068986 106.0156117017134 36.30195456362965 105.82700000000001 36.357 C 105.55400000000002 36.439 105.29400000000001 36.521 105.00700000000002 36.521 C 104.84902669242997 36.50601664965332 104.70169598558103 36.60230037919966 104.65200000000002 36.753 C 104.59700000000001 36.876 104.55200000000002 37.013 104.52900000000001 37.136 C 104.50200000000001 37.300000000000004 104.543 37.356 104.70700000000001 37.336000000000006 C 104.83000000000001 37.322 109.34 37.432 110.18700000000001 37.35000000000001 C 110.69300000000001 37.29500000000001 111.18700000000001 37.22700000000001 111.69000000000001 37.077000000000005 C 112.55000000000001 36.804 113.34400000000001 36.407000000000004 113.97200000000001 35.737 C 114.492 35.190000000000005 114.792 34.534 114.819 33.769000000000005 C 114.85900000000001 33.59100000000001 114.85900000000001 33.41400000000001 114.85900000000001 33.22200000000001 z M 108.233 27.615000000000002 L 108.27300000000001 26.522000000000002 C 108.27300000000001 26.317000000000004 108.355 26.222 108.56000000000002 26.180000000000003 C 108.88800000000002 26.112000000000002 109.21600000000002 26.140000000000004 109.54400000000001 26.153000000000002 C 109.87200000000001 26.180000000000003 110.186 26.221000000000004 110.51400000000001 26.317000000000004 C 111.114 26.495000000000005 111.58000000000001 26.837000000000003 111.85400000000001 27.410000000000004 C 111.97830734830691 27.670542159864272 112.04352775195589 27.955326540195458 112.04500000000002 28.244000000000003 C 112.05900000000001 28.627000000000002 112.03100000000002 28.996000000000002 111.88100000000001 29.364000000000004 C 111.64900000000002 29.870000000000005 111.28100000000002 30.198000000000004 110.74700000000001 30.294000000000004 C 110.21300000000001 30.390000000000004 108.69700000000002 30.349000000000004 108.46500000000002 30.349000000000004 C 108.26000000000002 30.349000000000004 108.24500000000002 30.322000000000003 108.24500000000002 30.117000000000004 L 108.24500000000002 28.83 C 108.2128643026071 28.429790340417252 108.20818668256763 28.02784913273949 108.23100000000002 27.627000000000006 z M 112.673 34.967 C 112.441 35.582 112.017 36.007 111.416 36.237 C 111.088 36.36 110.75999999999999 36.437000000000005 110.416 36.415 C 109.99199999999999 36.400999999999996 109.569 36.415 109.146 36.333 C 108.572 36.21 108.312 35.663 108.271 35.266999999999996 C 108.203 34.56999999999999 108.244 33.858999999999995 108.231 33.339999999999996 L 108.231 31.535999999999998 C 108.231 31.316 108.258 31.249 108.491 31.249 L 109.776 31.262999999999998 L 110.651 31.363 C 111.26599999999999 31.5 111.826 31.733 112.264 32.21 C 112.619 32.593 112.81099999999999 33.057 112.85199999999999 33.563 C 112.892 34.041000000000004 112.86599999999999 34.506 112.68799999999999 34.957 z" stroke-linecap="round" />
</g>
<g transform="matrix(9.77 0 0 9.77 599.71 308.66)"  >
<path style="stroke: none; stroke-width: 1; stroke-dasharray: none; stroke-linecap: butt; stroke-dashoffset: 0; stroke-linejoin: miter; stroke-miterlimit: 4; fill: rgb(254,254,254); fill-rule: nonzero; opacity: 1;" vector-effect="non-scaling-stroke"  transform=" translate(-69.85, -35.7)" d="M 77.95 30.85 L 78.305 30.905 C 78.688 30.919 79.13900000000001 30.782 79.275 30.249000000000002 C 79.3500070821672 29.994409675360803 79.3500070821672 29.723590324639197 79.275 29.469 C 79.19300000000001 29.469 79.152 29.537000000000003 79.111 29.565 C 78.906 29.729000000000003 78.674 29.825000000000003 78.428 29.852 C 77.93599999999999 29.907 77.444 29.879 76.966 29.702 L 76.29599999999999 29.470000000000002 C 75.82870579300766 29.316967385576813 75.33694628255687 29.25252993248326 74.84599999999999 29.28 C 74.14899999999999 29.335 73.493 29.567 72.87799999999999 29.895 C 72.22199999999998 30.25 71.75799999999998 30.783 71.53799999999998 31.508 C 71.41499999999998 31.932 71.40099999999998 32.368 71.45599999999999 32.806 C 71.59299999999999 33.803999999999995 72.112 34.501 73.04099999999998 34.87 C 73.09599999999999 34.884 73.13699999999999 34.91 73.19099999999999 34.925 C 73.314 34.992999999999995 73.32799999999999 35.062 73.21799999999999 35.157 L 72.87599999999999 35.388999999999996 L 72.056 35.894999999999996 C 71.851 36.017999999999994 71.824 36.114999999999995 71.892 36.331999999999994 C 71.97333462793272 36.58728785299805 72.12475420621925 36.81459046937325 72.329 36.98799999999999 C 72.51652731070494 37.14890763956126 72.72896444507552 37.278261252381505 72.958 37.370999999999995 C 73.108 37.43899999999999 73.108 37.471 72.972 37.590999999999994 L 72.192 38.150999999999996 C 71.93199999999999 38.351 71.672 38.550999999999995 71.454 38.806999999999995 C 71.14609128377242 39.13648194549565 71.02303282891252 39.59795115122032 71.12599999999999 40.03699999999999 C 71.22763147156462 40.511384971160545 71.47604216057776 40.94173024931008 71.83599999999998 41.26699999999999 C 72.19139068903979 41.59606260756376 72.62353901038932 41.830873509299416 73.09299999999999 41.94999999999999 C 73.85799999999999 42.16999999999999 74.651 42.18199999999999 75.42999999999999 42.03199999999999 C 76.55 41.82699999999999 77.52999999999999 41.33199999999999 78.3 40.48799999999999 C 78.833 39.92799999999999 79.14699999999999 39.27199999999999 79.175 38.48799999999999 C 79.23661060861794 37.55166507691193 78.61240378305581 36.70797089195499 77.699 36.492999999999995 L 76.961 36.355999999999995 L 74.706 36.15599999999999 C 74.46000000000001 36.14199999999999 74.214 36.10099999999999 74.009 35.977999999999994 C 73.749 35.81399999999999 73.681 35.49999999999999 73.845 35.294999999999995 C 73.968 35.144999999999996 74.118 35.04899999999999 74.31 35.035 L 74.747 34.995 C 75.61121876349874 34.9070802238618 76.4225516314665 34.53743008219784 77.056 33.943 C 77.39424375215044 33.62994039891009 77.63605731390973 33.226802151041674 77.753 32.781 C 77.917 32.193 77.917 31.581 77.78 30.980999999999998 C 77.74 30.831 77.753 30.816999999999997 77.944 30.843999999999998 z M 74.60000000000001 37.657000000000004 C 74.682 37.67100000000001 74.76400000000001 37.657000000000004 74.846 37.657000000000004 C 75.42 37.684000000000005 76.00800000000001 37.725 76.568 37.877 C 76.75084201125571 37.931031452966735 76.92907557470876 37.9995828235256 77.101 38.082 C 77.648 38.382 77.853 38.902 77.784 39.462 C 77.70200000000001 40.077000000000005 77.36 40.514 76.82700000000001 40.80200000000001 C 76.47200000000001 41.00200000000001 76.07500000000002 41.089000000000006 75.665 41.13000000000001 C 75.515 41.14400000000001 75.378 41.13000000000001 75.22800000000001 41.13000000000001 C 74.75000000000001 41.14400000000001 74.28500000000001 41.09000000000001 73.834 40.89800000000001 C 73.52000000000001 40.77500000000001 73.26 40.59800000000001 73.028 40.35100000000001 C 72.55000000000001 39.87300000000001 72.328 38.99800000000001 73.042 38.28700000000001 C 73.479 37.887000000000015 73.97200000000001 37.60400000000001 74.60000000000001 37.65700000000001 z M 76.15800000000002 33.393 C 75.87100000000001 34.117 75.24200000000002 34.336 74.61400000000002 34.24 C 74.04000000000002 34.158 73.61600000000001 33.844 73.34400000000002 33.324000000000005 C 72.98900000000002 32.627 72.89400000000002 31.904000000000003 73.09800000000003 31.151000000000003 C 73.24800000000003 30.591000000000005 73.59000000000003 30.167 74.19100000000003 30.071000000000005 C 74.95600000000003 29.934000000000005 75.69100000000003 30.208000000000006 76.07700000000003 30.973000000000006 C 76.27700000000003 31.343000000000007 76.36400000000003 31.793000000000006 76.36400000000003 32.43500000000001 C 76.35000000000004 32.69500000000001 76.29600000000003 33.05000000000001 76.15900000000003 33.39200000000001 z M 58.94000000000001 32.463 C 58.817000000000014 31.725 58.54400000000001 31.055 58.03800000000001 30.495 C 57.28600000000001 29.661 56.33000000000001 29.295 55.250000000000014 29.292 C 54.307000000000016 29.278000000000002 53.420000000000016 29.552000000000003 52.62600000000001 30.044 C 51.84542555075627 30.511110242138017 51.27327465745799 31.259307564143455 51.027000000000015 32.135 C 50.795000000000016 32.928 50.807000000000016 33.735 50.987000000000016 34.54 C 51.46500000000002 36.7 53.13300000000002 37.628 55.12700000000002 37.492 C 55.71500000000002 37.452 56.27500000000002 37.26 56.807000000000016 37 C 57.600000000000016 36.63 58.174000000000014 36.043 58.570000000000014 35.264 C 58.884000000000015 34.622 59.02000000000002 33.938 59.00700000000001 33.159000000000006 L 58.939000000000014 32.462 z M 57 35.497 C 56.80028323573414 36.12531761640098 56.24766290092434 36.575891582566925 55.592 36.645 C 54.992 36.727000000000004 54.43 36.577000000000005 53.925 36.221000000000004 C 53.5604271841549 35.95281919288948 53.26522743841515 35.60139092415169 53.064 35.196000000000005 C 52.504 34.048 52.408 32.846000000000004 52.694 31.616000000000007 C 52.78607334624354 31.23533297726679 52.98526297847684 30.889006752582414 53.268 30.618000000000006 C 53.774 30.153000000000006 54.361000000000004 30.044000000000004 55.018 30.181000000000004 C 55.648 30.318000000000005 56.125 30.659000000000006 56.518 31.179000000000006 C 56.911 31.699000000000005 57.092 32.29900000000001 57.201 32.929 C 57.256 33.243 57.256 33.571000000000005 57.269 33.776 C 57.269 34.432 57.214 34.976000000000006 57.009 35.498000000000005 z M 88.8 32.573 C 88.7 31.78 88.404 31.056 87.843 30.455000000000002 C 87.105 29.649 86.14800000000001 29.307000000000002 85.083 29.293000000000003 C 84.167 29.279000000000003 83.32 29.539 82.541 29.990000000000002 C 81.666 30.51 81.065 31.247000000000003 80.833 32.245000000000005 C 80.55594293444523 33.33380089915191 80.6720998597565 34.48545431717708 81.161 35.49700000000001 C 81.611 36.45400000000001 82.377 37.06900000000001 83.389 37.342000000000006 C 84.509 37.642 85.576 37.50600000000001 86.61399999999999 37.00000000000001 C 87.51599999999999 36.56300000000001 88.15799999999999 35.88000000000001 88.52699999999999 34.95000000000001 C 88.74699999999999 34.40300000000001 88.82699999999998 33.81600000000001 88.84099999999998 33.13200000000001 C 88.85499999999998 33.009000000000015 88.82699999999998 32.79000000000001 88.80099999999997 32.57200000000001 z M 86.914 35.32 C 86.694 36.058 86.231 36.536 85.452 36.646 C 84.878 36.728 84.332 36.591 83.839 36.263 C 83.41499999999999 35.976 83.115 35.592999999999996 82.896 35.143 C 82.65 34.665 82.513 34.159 82.459 33.64 C 82.37700000000001 32.998 82.37700000000001 32.37 82.527 31.727 C 82.55559967347533 31.600208105732786 82.59680460221995 31.47659331949897 82.65 31.358 C 83.033 30.401 83.88000000000001 29.964000000000002 84.878 30.183 C 85.548 30.333 86.053 30.703 86.436 31.262999999999998 C 86.80600000000001 31.81 86.983 32.411 87.066 33.062999999999995 C 87.10600000000001 33.32299999999999 87.12100000000001 33.596 87.10600000000001 33.827999999999996 C 87.10600000000001 34.361 87.066 34.852999999999994 86.906 35.330999999999996 z" stroke-linecap="round" />
</g>
</svg>