<?xml version="1.0" encoding="UTF-8" standalone="no" ?>
<!DOCTYPE svg PUBLIC "-//W3C//DTD SVG 1.1//EN" "http://www.w3.org/Graphics/SVG/1.1/DTD/svg11.dtd">
<svg xmlns="http://www.w3.org/2000/svg" xmlns:xlink="http://www.w3.org/1999/xlink" version="1.1" width="1080" height="1080" viewBox="0 0 1080 1080" xml:space="preserve">
<desc>Created with Fabric.js 5.2.4</desc>
<defs>
</defs>
<rect x="0" y="0" width="100%" height="100%" fill="transparent"></rect>
<g transform="matrix(1 0 0 1 540 540)" id="05260e36-6668-4a08-8c6b-553ad39e498d"  >
<rect style="stroke: none; stroke-width: 1; stroke-dasharray: none; stroke-linecap: butt; stroke-dashoffset: 0; stroke-linejoin: miter; stroke-miterlimit: 4; fill: rgb(255,255,255); fill-rule: nonzero; opacity: 1; visibility: hidden;" vector-effect="non-scaling-stroke"  x="-540" y="-540" rx="0" ry="0" width="1080" height="1080" />
</g>
<g transform="matrix(1 0 0 1 540 540)" id="3183c713-d19b-4070-8610-ee2d0f7d59fa"  >
</g>
<g transform="matrix(5.28 0 0 5.28 540 327.47)"  >
<g style="" vector-effect="non-scaling-stroke"   >
		<g transform="matrix(1 0 0 1 -78.2 0.11)"  >
<path style="stroke: none; stroke-width: 1; stroke-dasharray: none; stroke-linecap: butt; stroke-dashoffset: 0; stroke-linejoin: miter; stroke-miterlimit: 4; fill: rgb(217,217,217); fill-rule: nonzero; opacity: 1;" vector-effect="non-scaling-stroke"  transform=" translate(-18.72, -20.04)" d="M 2.19982 4.93108 C 7.12219 3.48247 14.8007 1.19222 17.6658 0.336887 C 18.4038 0.11655 19.1839 0.113541 19.9231 0.329834 C 22.674 1.1347 29.8907 3.25502 35.2778 4.91661 C 36.1138 5.17444 36.6837 5.96756 36.6672 6.84218 C 36.1772 32.8488 22.8852 38.7254 19.5482 39.7925 C 19.0548 39.9502 18.5334 39.9508 18.0396 39.7944 C 14.6876 38.7329 1.28346 32.8688 0.780184 6.87028 C 0.762994 5.98225 1.34776 5.18184 2.19982 4.93108 Z" stroke-linecap="round" />
</g>
		<g transform="matrix(1 0 0 1 -68.76 -10.56)"  >
<path style="stroke: none; stroke-width: 1; stroke-dasharray: none; stroke-linecap: butt; stroke-dashoffset: 0; stroke-linejoin: miter; stroke-miterlimit: 4; fill: rgb(129,129,129); fill-rule: nonzero; opacity: 1;" vector-effect="non-scaling-stroke"  transform=" translate(-28.16, -9.37)" d="M 18.7934 19.4366 L 18.5117 -0.704224 L 37.8075 4.50704 L 18.7934 19.4366 Z" stroke-linecap="round" />
</g>
		<g transform="matrix(1 0 0 1 -88.62 -5.21)"  >
<path style="stroke: none; stroke-width: 1; stroke-dasharray: none; stroke-linecap: butt; stroke-dashoffset: 0; stroke-linejoin: miter; stroke-miterlimit: 4; fill: rgb(141,141,141); fill-rule: nonzero; opacity: 1;" vector-effect="non-scaling-stroke"  transform=" translate(-8.3, -14.72)" d="M 18.7935 19.4366 L 18.7935 0 L 0.342829 4.92958 L -2.19238 16.9014 L 5.83579 29.4366 L 18.7935 19.4366 Z" stroke-linecap="round" />
</g>
		<g transform="matrix(1 0 0 1 -75.53 2.82)"  >
<path style="stroke: none; stroke-width: 1; stroke-dasharray: none; stroke-linecap: butt; stroke-dashoffset: 0; stroke-linejoin: miter; stroke-miterlimit: 4; fill: rgb(164,164,164); fill-rule: nonzero; opacity: 1;" vector-effect="non-scaling-stroke"  transform=" translate(-21.4, -22.75)" d="M 37.2438 4.92957 L 5.55371 29.4366 L 5.55371 40.5634 L 36.8213 40.5634 L 37.2438 4.92957 Z" stroke-linecap="round" />
</g>
		<g transform="matrix(1 0 0 1 25.64 3.07)"  >
<path style="stroke: none; stroke-width: 1; stroke-dasharray: none; stroke-linecap: butt; stroke-dashoffset: 0; stroke-linejoin: miter; stroke-miterlimit: 4; fill: rgb(164,164,164); fill-rule: nonzero; opacity: 1;" vector-effect="non-scaling-stroke"  transform=" translate(-122.56, -23)" d="M 66.1058 9.90909 L 66.1058 31 L 63.1811 31 L 52.4606 15.532 L 52.2649 15.532 L 52.2649 31 L 49.0827 31 L 49.0827 9.90909 L 52.0281 9.90909 L 62.7589 25.3977 L 62.9545 25.3977 L 62.9545 9.90909 L 66.1058 9.90909 Z M 76.1581 31.3192 C 74.5996 31.3192 73.2574 30.9863 72.1315 30.3203 C 71.0124 29.6475 70.1473 28.7035 69.5363 27.4883 C 68.9321 26.2662 68.63 24.8348 68.63 23.1939 C 68.63 21.5736 68.9321 20.1456 69.5363 18.9098 C 70.1473 17.674 70.9986 16.7094 72.0903 16.016 C 73.1888 15.3226 74.4726 14.9759 75.9418 14.9759 C 76.8343 14.9759 77.6994 15.1235 78.537 15.4187 C 79.3746 15.7139 80.1264 16.1773 80.7923 16.8089 C 81.4583 17.4406 81.9835 18.261 82.368 19.2702 C 82.7524 20.2726 82.9447 21.4912 82.9447 22.9261 L 82.9447 24.0178 L 70.3705 24.0178 L 70.3705 21.7109 L 79.9273 21.7109 C 79.9273 20.9008 79.7625 20.1834 79.433 19.5586 C 79.1034 18.927 78.64 18.4292 78.0427 18.0653 C 77.4522 17.7015 76.7588 17.5195 75.9624 17.5195 C 75.0974 17.5195 74.3422 17.7324 73.6968 18.158 C 73.0583 18.5768 72.564 19.1261 72.2138 19.8058 C 71.8706 20.4786 71.6989 21.2098 71.6989 21.9993 L 71.6989 23.8015 C 71.6989 24.8588 71.8843 25.7582 72.255 26.4996 C 72.6326 27.2411 73.1579 27.8075 73.8307 28.1989 C 74.5035 28.5833 75.2896 28.7756 76.189 28.7756 C 76.7726 28.7756 77.3046 28.6932 77.7852 28.5284 C 78.2658 28.3568 78.6812 28.1027 79.0313 27.7663 C 79.3815 27.4299 79.6492 27.0146 79.8346 26.5202 L 82.749 27.0455 C 82.5156 27.9036 82.0968 28.6554 81.4926 29.3008 C 80.8953 29.9393 80.1435 30.437 79.2373 30.794 C 78.3379 31.1442 77.3115 31.3192 76.1581 31.3192 Z M 87.2634 15.1818 L 90.7545 21.3402 L 94.2765 15.1818 L 97.644 15.1818 L 92.7112 23.0909 L 97.6852 31 L 94.3177 31 L 90.7545 25.0888 L 87.2016 31 L 83.8237 31 L 88.7463 23.0909 L 83.8855 15.1818 L 87.2634 15.1818 Z M 107.03 15.1818 L 107.03 17.6534 L 98.3892 17.6534 L 98.3892 15.1818 L 107.03 15.1818 Z M 100.706 11.392 L 103.786 11.392 L 103.786 26.3555 C 103.786 26.9528 103.875 27.4025 104.053 27.7045 C 104.232 27.9998 104.462 28.2023 104.743 28.3121 C 105.032 28.4151 105.344 28.4666 105.68 28.4666 C 105.928 28.4666 106.144 28.4495 106.329 28.4151 C 106.515 28.3808 106.659 28.3533 106.762 28.3327 L 107.318 30.8764 C 107.139 30.9451 106.885 31.0137 106.556 31.0824 C 106.226 31.1579 105.814 31.1991 105.32 31.206 C 104.51 31.2197 103.755 31.0755 103.054 30.7734 C 102.354 30.4714 101.788 30.0045 101.355 29.3729 C 100.923 28.7412 100.706 27.9483 100.706 26.994 L 100.706 11.392 Z M 111.304 31 L 107.927 31 L 115.516 9.90909 L 119.193 9.90909 L 126.783 31 L 123.405 31 L 117.442 13.7401 L 117.277 13.7401 L 111.304 31 Z M 111.871 22.7408 L 122.828 22.7408 L 122.828 25.4183 L 111.871 25.4183 L 111.871 22.7408 Z M 138.442 24.44 L 138.442 15.1818 L 141.531 15.1818 L 141.531 31 L 138.503 31 L 138.503 28.2607 L 138.339 28.2607 C 137.975 29.1051 137.391 29.8088 136.588 30.3718 C 135.791 30.9279 134.799 31.206 133.612 31.206 C 132.596 31.206 131.696 30.9828 130.914 30.5366 C 130.138 30.0835 129.527 29.4141 129.08 28.5284 C 128.641 27.6428 128.421 26.5477 128.421 25.2433 L 128.421 15.1818 L 131.501 15.1818 L 131.501 24.8725 C 131.501 25.9504 131.799 26.8086 132.396 27.4471 C 132.994 28.0856 133.77 28.4048 134.724 28.4048 C 135.301 28.4048 135.874 28.2607 136.444 27.9723 C 137.02 27.6839 137.498 27.248 137.875 26.6644 C 138.26 26.0808 138.448 25.3394 138.442 24.44 Z M 151.892 15.1818 L 151.892 17.6534 L 143.252 17.6534 L 143.252 15.1818 L 151.892 15.1818 Z M 145.569 11.392 L 148.648 11.392 L 148.648 26.3555 C 148.648 26.9528 148.738 27.4025 148.916 27.7045 C 149.095 27.9998 149.325 28.2023 149.606 28.3121 C 149.894 28.4151 150.207 28.4666 150.543 28.4666 C 150.79 28.4666 151.007 28.4495 151.192 28.4151 C 151.377 28.3808 151.522 28.3533 151.625 28.3327 L 152.181 30.8764 C 152.002 30.9451 151.748 31.0137 151.419 31.0824 C 151.089 31.1579 150.677 31.1991 150.183 31.206 C 149.373 31.2197 148.617 31.0755 147.917 30.7734 C 147.217 30.4714 146.65 30.0045 146.218 29.3729 C 145.785 28.7412 145.569 27.9483 145.569 26.994 L 145.569 11.392 Z M 157.557 21.608 L 157.557 31 L 154.478 31 L 154.478 9.90909 L 157.516 9.90909 L 157.516 17.7564 L 157.712 17.7564 C 158.083 16.9051 158.649 16.2288 159.411 15.7276 C 160.173 15.2264 161.169 14.9759 162.398 14.9759 C 163.482 14.9759 164.43 15.199 165.24 15.6452 C 166.057 16.0915 166.689 16.7575 167.135 17.6431 C 167.588 18.5219 167.815 19.6204 167.815 20.9386 L 167.815 31 L 164.735 31 L 164.735 21.3093 C 164.735 20.149 164.437 19.2496 163.839 18.6112 C 163.242 17.9658 162.411 17.6431 161.347 17.6431 C 160.619 17.6431 159.967 17.7976 159.391 18.1065 C 158.821 18.4155 158.371 18.8686 158.041 19.4659 C 157.719 20.0563 157.557 20.7704 157.557 21.608 Z M 172.792 31.1957 C 172.229 31.1957 171.745 30.9966 171.34 30.5984 C 170.935 30.1933 170.733 29.7058 170.733 29.136 C 170.733 28.573 170.935 28.0924 171.34 27.6942 C 171.745 27.2892 172.229 27.0866 172.792 27.0866 C 173.355 27.0866 173.839 27.2892 174.244 27.6942 C 174.649 28.0924 174.852 28.573 174.852 29.136 C 174.852 29.5136 174.756 29.8603 174.564 30.1761 C 174.378 30.4851 174.131 30.7322 173.822 30.9176 C 173.513 31.103 173.17 31.1957 172.792 31.1957 Z M 177.816 15.1818 L 180.896 15.1818 L 180.896 32.0298 C 180.896 33.0871 180.703 33.9796 180.319 34.7074 C 179.941 35.4351 179.378 35.9878 178.63 36.3654 C 177.889 36.743 176.972 36.9318 175.88 36.9318 C 175.771 36.9318 175.668 36.9318 175.571 36.9318 C 175.468 36.9318 175.362 36.9284 175.252 36.9215 L 175.252 34.2749 C 175.348 34.2749 175.434 34.2749 175.51 34.2749 C 175.578 34.2749 175.657 34.2749 175.747 34.2749 C 176.474 34.2749 176.999 34.0792 177.322 33.6879 C 177.652 33.3034 177.816 32.7438 177.816 32.0092 L 177.816 15.1818 Z M 179.341 12.7411 C 178.805 12.7411 178.345 12.5626 177.961 12.2056 C 177.583 11.8417 177.394 11.4092 177.394 10.908 C 177.394 10.4 177.583 9.96745 177.961 9.61044 C 178.345 9.24657 178.805 9.06463 179.341 9.06463 C 179.876 9.06463 180.333 9.24657 180.71 9.61044 C 181.095 9.96745 181.287 10.4 181.287 10.908 C 181.287 11.4092 181.095 11.8417 180.71 12.2056 C 180.333 12.5626 179.876 12.7411 179.341 12.7411 Z M 195.731 19.0437 L 192.941 19.538 C 192.824 19.181 192.639 18.8411 192.385 18.5185 C 192.137 18.1958 191.801 17.9315 191.375 17.7255 C 190.95 17.5195 190.418 17.4165 189.779 17.4165 C 188.907 17.4165 188.179 17.6122 187.596 18.0036 C 187.012 18.388 186.72 18.8858 186.72 19.4968 C 186.72 20.0254 186.916 20.4511 187.307 20.7738 C 187.699 21.0965 188.33 21.3608 189.202 21.5668 L 191.715 22.1435 C 193.171 22.4799 194.255 22.9982 194.969 23.6985 C 195.683 24.3988 196.04 25.3085 196.04 26.4276 C 196.04 27.375 195.766 28.2195 195.217 28.9609 C 194.674 29.6955 193.916 30.2723 192.941 30.6911 C 191.973 31.1098 190.85 31.3192 189.573 31.3192 C 187.802 31.3192 186.357 30.9416 185.238 30.1864 C 184.118 29.4244 183.432 28.343 183.178 26.9425 L 186.154 26.4893 C 186.339 27.2652 186.72 27.8522 187.297 28.2504 C 187.874 28.6417 188.626 28.8374 189.553 28.8374 C 190.562 28.8374 191.368 28.628 191.973 28.2092 C 192.577 27.7835 192.879 27.2652 192.879 26.6541 C 192.879 26.1598 192.693 25.7444 192.323 25.408 C 191.959 25.0716 191.399 24.8176 190.644 24.646 L 187.967 24.0589 C 186.49 23.7225 185.399 23.187 184.692 22.4524 C 183.991 21.7178 183.641 20.7875 183.641 19.6616 C 183.641 18.7279 183.902 17.9109 184.424 17.2106 C 184.946 16.5103 185.667 15.9645 186.587 15.5732 C 187.507 15.175 188.56 14.9759 189.748 14.9759 C 191.458 14.9759 192.803 15.3466 193.785 16.0881 C 194.767 16.8227 195.416 17.8079 195.731 19.0437 Z" stroke-linecap="round" />
</g>
</g>
</g>
</svg>