<svg width="198" height="40" viewBox="0 0 198 40" fill="none" xmlns="http://www.w3.org/2000/svg" class="c-PJLV c-PJLV-isACLx-size-md c-PJLV-ifITPkF-css"><path d="M2.19982 4.93108C7.12219 3.48247 14.8007 1.19222 17.6658 0.336887C18.4038 0.11655 19.1839 0.113541 19.9231 0.329834C22.674 1.1347 29.8907 3.25502 35.2778 4.91661C36.1138 5.17444 36.6837 5.96756 36.6672 6.84218C36.1772 32.8488 22.8852 38.7254 19.5482 39.7925C19.0548 39.9502 18.5334 39.9508 18.0396 39.7944C14.6876 38.7329 1.28346 32.8688 0.780184 6.87028C0.762994 5.98225 1.34776 5.18184 2.19982 4.93108Z" fill="#D9D9D9"></path><mask id="mask0_12256_81203" maskUnits="userSpaceOnUse" x="0" y="0" width="37" height="40"><path d="M2.19982 4.93108C7.12219 3.48247 14.8007 1.19222 17.6658 0.336887C18.4038 0.11655 19.1839 0.113541 19.9231 0.329834C22.674 1.1347 29.8907 3.25502 35.2778 4.91661C36.1138 5.17444 36.6837 5.96756 36.6672 6.84218C36.1772 32.8488 22.8852 38.7254 19.5482 39.7925C19.0548 39.9502 18.5334 39.9508 18.0396 39.7944C14.6876 38.7329 1.28346 32.8688 0.780184 6.87028C0.762994 5.98225 1.34776 5.18184 2.19982 4.93108Z" fill="#D9D9D9"></path></mask><g mask="url(#mask0_12256_81203)"><path d="M18.7934 19.4366L18.5117 -0.704224L37.8075 4.50704L18.7934 19.4366Z" fill="#818181"></path><path d="M18.7935 19.4366V0L0.342829 4.92958L-2.19238 16.9014L5.83579 29.4366L18.7935 19.4366Z" fill="#8D8D8D"></path><path d="M37.2438 4.92957L5.55371 29.4366V40.5634H36.8213L37.2438 4.92957Z" fill="#A4A4A4"></path></g><path d="M66.1058 9.90909V31H63.1811L52.4606 15.532H52.2649V31H49.0827V9.90909H52.0281L62.7589 25.3977H62.9545V9.90909H66.1058ZM76.1581 31.3192C74.5996 31.3192 73.2574 30.9863 72.1315 30.3203C71.0124 29.6475 70.1473 28.7035 69.5363 27.4883C68.9321 26.2662 68.63 24.8348 68.63 23.1939C68.63 21.5736 68.9321 20.1456 69.5363 18.9098C70.1473 17.674 70.9986 16.7094 72.0903 16.016C73.1888 15.3226 74.4726 14.9759 75.9418 14.9759C76.8343 14.9759 77.6994 15.1235 78.537 15.4187C79.3746 15.7139 80.1264 16.1773 80.7923 16.8089C81.4583 17.4406 81.9835 18.261 82.368 19.2702C82.7524 20.2726 82.9447 21.4912 82.9447 22.9261V24.0178H70.3705V21.7109H79.9273C79.9273 20.9008 79.7625 20.1834 79.433 19.5586C79.1034 18.927 78.64 18.4292 78.0427 18.0653C77.4522 17.7015 76.7588 17.5195 75.9624 17.5195C75.0974 17.5195 74.3422 17.7324 73.6968 18.158C73.0583 18.5768 72.564 19.1261 72.2138 19.8058C71.8706 20.4786 71.6989 21.2098 71.6989 21.9993V23.8015C71.6989 24.8588 71.8843 25.7582 72.255 26.4996C72.6326 27.2411 73.1579 27.8075 73.8307 28.1989C74.5035 28.5833 75.2896 28.7756 76.189 28.7756C76.7726 28.7756 77.3046 28.6932 77.7852 28.5284C78.2658 28.3568 78.6812 28.1027 79.0313 27.7663C79.3815 27.4299 79.6492 27.0146 79.8346 26.5202L82.749 27.0455C82.5156 27.9036 82.0968 28.6554 81.4926 29.3008C80.8953 29.9393 80.1435 30.437 79.2373 30.794C78.3379 31.1442 77.3115 31.3192 76.1581 31.3192ZM87.2634 15.1818L90.7545 21.3402L94.2765 15.1818H97.644L92.7112 23.0909L97.6852 31H94.3177L90.7545 25.0888L87.2016 31H83.8237L88.7463 23.0909L83.8855 15.1818H87.2634ZM107.03 15.1818V17.6534H98.3892V15.1818H107.03ZM100.706 11.392H103.786V26.3555C103.786 26.9528 103.875 27.4025 104.053 27.7045C104.232 27.9998 104.462 28.2023 104.743 28.3121C105.032 28.4151 105.344 28.4666 105.68 28.4666C105.928 28.4666 106.144 28.4495 106.329 28.4151C106.515 28.3808 106.659 28.3533 106.762 28.3327L107.318 30.8764C107.139 30.9451 106.885 31.0137 106.556 31.0824C106.226 31.1579 105.814 31.1991 105.32 31.206C104.51 31.2197 103.755 31.0755 103.054 30.7734C102.354 30.4714 101.788 30.0045 101.355 29.3729C100.923 28.7412 100.706 27.9483 100.706 26.994V11.392ZM111.304 31H107.927L115.516 9.90909H119.193L126.783 31H123.405L117.442 13.7401H117.277L111.304 31ZM111.871 22.7408H122.828V25.4183H111.871V22.7408ZM138.442 24.44V15.1818H141.531V31H138.503V28.2607H138.339C137.975 29.1051 137.391 29.8088 136.588 30.3718C135.791 30.9279 134.799 31.206 133.612 31.206C132.596 31.206 131.696 30.9828 130.914 30.5366C130.138 30.0835 129.527 29.4141 129.08 28.5284C128.641 27.6428 128.421 26.5477 128.421 25.2433V15.1818H131.501V24.8725C131.501 25.9504 131.799 26.8086 132.396 27.4471C132.994 28.0856 133.77 28.4048 134.724 28.4048C135.301 28.4048 135.874 28.2607 136.444 27.9723C137.02 27.6839 137.498 27.248 137.875 26.6644C138.26 26.0808 138.448 25.3394 138.442 24.44ZM151.892 15.1818V17.6534H143.252V15.1818H151.892ZM145.569 11.392H148.648V26.3555C148.648 26.9528 148.738 27.4025 148.916 27.7045C149.095 27.9998 149.325 28.2023 149.606 28.3121C149.894 28.4151 150.207 28.4666 150.543 28.4666C150.79 28.4666 151.007 28.4495 151.192 28.4151C151.377 28.3808 151.522 28.3533 151.625 28.3327L152.181 30.8764C152.002 30.9451 151.748 31.0137 151.419 31.0824C151.089 31.1579 150.677 31.1991 150.183 31.206C149.373 31.2197 148.617 31.0755 147.917 30.7734C147.217 30.4714 146.65 30.0045 146.218 29.3729C145.785 28.7412 145.569 27.9483 145.569 26.994V11.392ZM157.557 21.608V31H154.478V9.90909H157.516V17.7564H157.712C158.083 16.9051 158.649 16.2288 159.411 15.7276C160.173 15.2264 161.169 14.9759 162.398 14.9759C163.482 14.9759 164.43 15.199 165.24 15.6452C166.057 16.0915 166.689 16.7575 167.135 17.6431C167.588 18.5219 167.815 19.6204 167.815 20.9386V31H164.735V21.3093C164.735 20.149 164.437 19.2496 163.839 18.6112C163.242 17.9658 162.411 17.6431 161.347 17.6431C160.619 17.6431 159.967 17.7976 159.391 18.1065C158.821 18.4155 158.371 18.8686 158.041 19.4659C157.719 20.0563 157.557 20.7704 157.557 21.608ZM172.792 31.1957C172.229 31.1957 171.745 30.9966 171.34 30.5984C170.935 30.1933 170.733 29.7058 170.733 29.136C170.733 28.573 170.935 28.0924 171.34 27.6942C171.745 27.2892 172.229 27.0866 172.792 27.0866C173.355 27.0866 173.839 27.2892 174.244 27.6942C174.649 28.0924 174.852 28.573 174.852 29.136C174.852 29.5136 174.756 29.8603 174.564 30.1761C174.378 30.4851 174.131 30.7322 173.822 30.9176C173.513 31.103 173.17 31.1957 172.792 31.1957ZM177.816 15.1818H180.896V32.0298C180.896 33.0871 180.703 33.9796 180.319 34.7074C179.941 35.4351 179.378 35.9878 178.63 36.3654C177.889 36.743 176.972 36.9318 175.88 36.9318C175.771 36.9318 175.668 36.9318 175.571 36.9318C175.468 36.9318 175.362 36.9284 175.252 36.9215V34.2749C175.348 34.2749 175.434 34.2749 175.51 34.2749C175.578 34.2749 175.657 34.2749 175.747 34.2749C176.474 34.2749 176.999 34.0792 177.322 33.6879C177.652 33.3034 177.816 32.7438 177.816 32.0092V15.1818ZM179.341 12.7411C178.805 12.7411 178.345 12.5626 177.961 12.2056C177.583 11.8417 177.394 11.4092 177.394 10.908C177.394 10.4 177.583 9.96745 177.961 9.61044C178.345 9.24657 178.805 9.06463 179.341 9.06463C179.876 9.06463 180.333 9.24657 180.71 9.61044C181.095 9.96745 181.287 10.4 181.287 10.908C181.287 11.4092 181.095 11.8417 180.71 12.2056C180.333 12.5626 179.876 12.7411 179.341 12.7411ZM195.731 19.0437L192.941 19.538C192.824 19.181 192.639 18.8411 192.385 18.5185C192.137 18.1958 191.801 17.9315 191.375 17.7255C190.95 17.5195 190.418 17.4165 189.779 17.4165C188.907 17.4165 188.179 17.6122 187.596 18.0036C187.012 18.388 186.72 18.8858 186.72 19.4968C186.72 20.0254 186.916 20.4511 187.307 20.7738C187.699 21.0965 188.33 21.3608 189.202 21.5668L191.715 22.1435C193.171 22.4799 194.255 22.9982 194.969 23.6985C195.683 24.3988 196.04 25.3085 196.04 26.4276C196.04 27.375 195.766 28.2195 195.217 28.9609C194.674 29.6955 193.916 30.2723 192.941 30.6911C191.973 31.1098 190.85 31.3192 189.573 31.3192C187.802 31.3192 186.357 30.9416 185.238 30.1864C184.118 29.4244 183.432 28.343 183.178 26.9425L186.154 26.4893C186.339 27.2652 186.72 27.8522 187.297 28.2504C187.874 28.6417 188.626 28.8374 189.553 28.8374C190.562 28.8374 191.368 28.628 191.973 28.2092C192.577 27.7835 192.879 27.2652 192.879 26.6541C192.879 26.1598 192.693 25.7444 192.323 25.408C191.959 25.0716 191.399 24.8176 190.644 24.646L187.967 24.0589C186.49 23.7225 185.399 23.187 184.692 22.4524C183.991 21.7178 183.641 20.7875 183.641 19.6616C183.641 18.7279 183.902 17.9109 184.424 17.2106C184.946 16.5103 185.667 15.9645 186.587 15.5732C187.507 15.175 188.56 14.9759 189.748 14.9759C191.458 14.9759 192.803 15.3466 193.785 16.0881C194.767 16.8227 195.416 17.8079 195.731 19.0437Z" fill="#A4A4A4"></path></svg>