<?xml version="1.0" encoding="UTF-8" standalone="no" ?>
<!DOCTYPE svg PUBLIC "-//W3C//DTD SVG 1.1//EN" "http://www.w3.org/Graphics/SVG/1.1/DTD/svg11.dtd">
<svg xmlns="http://www.w3.org/2000/svg" xmlns:xlink="http://www.w3.org/1999/xlink" version="1.1" width="1080" height="1080" viewBox="0 0 1080 1080" xml:space="preserve">
<desc>Created with Fabric.js 5.2.4</desc>
<defs>
</defs>
<rect x="0" y="0" width="100%" height="100%" fill="transparent"></rect>
<g transform="matrix(1 0 0 1 540 540)" id="0dc64a45-d35d-43ee-a67b-d5ae5f066e2c"  >
<rect style="stroke: none; stroke-width: 1; stroke-dasharray: none; stroke-linecap: butt; stroke-dashoffset: 0; stroke-linejoin: miter; stroke-miterlimit: 4; fill: rgb(255,255,255); fill-rule: nonzero; opacity: 1; visibility: hidden;" vector-effect="non-scaling-stroke"  x="-540" y="-540" rx="0" ry="0" width="1080" height="1080" />
</g>
<g transform="matrix(1 0 0 1 540 540)" id="d18795b7-7269-487f-bbf4-7d21eceffb6e"  >
</g>
<g transform="matrix(1.97 0 0 1.97 963.02 269.55)"  >
<path style="stroke: none; stroke-width: 1; stroke-dasharray: none; stroke-linecap: butt; stroke-dashoffset: 0; stroke-linejoin: miter; stroke-miterlimit: 4; fill: rgb(131,205,41); fill-rule: nonzero; opacity: 1;" vector-effect="non-scaling-stroke"  transform=" translate(-471.06, -97.77)" d="M 471.05 51.6 C 469.805 51.6 468.595 51.857 467.524 52.463 L 433.636 72.033 C 431.44300000000004 73.296 430.11 75.683 430.11 78.221 L 430.11 117.291 C 430.11 119.828 431.44300000000004 122.211 433.636 123.478 L 442.48600000000005 128.578 C 446.78600000000006 130.698 448.37200000000007 130.66400000000002 450.32900000000006 130.66400000000002 C 456.69500000000005 130.66400000000002 460.32900000000006 126.80100000000002 460.32900000000006 120.08700000000002 L 460.32900000000006 81.542 C 460.32900000000006 80.997 459.8570000000001 80.607 459.32200000000006 80.607 L 455.07700000000006 80.607 C 454.5330000000001 80.607 454.07000000000005 81.007 454.07000000000005 81.542 L 454.07000000000005 120.107 C 454.07000000000005 123.083 450.97 126.077 445.94000000000005 123.56099999999999 L 436.74000000000007 118.16499999999999 C 436.4150000000001 117.98799999999999 436.16400000000004 117.66499999999999 436.16400000000004 117.30199999999999 L 436.16400000000004 78.232 C 436.16400000000004 77.862 436.41200000000003 77.484 436.74000000000007 77.297 L 470.5570000000001 57.797 C 470.8740000000001 57.614999999999995 471.2510000000001 57.614999999999995 471.5640000000001 57.797 L 505.3810000000001 77.297 C 505.7030000000001 77.49 505.9570000000001 77.85 505.9570000000001 78.232 L 505.9570000000001 117.30199999999999 C 505.9570000000001 117.675 505.7700000000001 118.05699999999999 505.4530000000001 118.237 L 471.5650000000001 137.737 C 471.2650000000001 137.91 470.8650000000001 137.91 470.5580000000001 137.737 L 461.8520000000001 132.557 C 461.5920000000001 132.405 461.2390000000001 132.417 460.9890000000001 132.557 C 458.58600000000007 133.91899999999998 458.13400000000007 134.077 455.8810000000001 134.85899999999998 C 455.3260000000001 135.052 454.4810000000001 135.35299999999998 456.1690000000001 136.29899999999998 L 467.5370000000001 142.99899999999997 C 468.6190000000001 143.62499999999997 469.8250000000001 143.93399999999997 471.0630000000001 143.93399999999997 C 472.3180000000001 143.93399999999997 473.5060000000001 143.63399999999996 474.5890000000001 142.99899999999997 L 508.4770000000001 123.49899999999997 C 510.6700000000001 122.22299999999997 512.003 119.84899999999996 512.003 117.31199999999997 L 512.003 78.24199999999996 C 512.003 75.70399999999997 510.67 73.32199999999996 508.47700000000003 72.05399999999996 L 474.58900000000006 52.48399999999996 C 473.52700000000004 51.87799999999996 472.3090000000001 51.62099999999996 471.06300000000005 51.62099999999996 z M 480.116 79.518 C 470.466 79.518 464.719 83.625 464.719 90.45400000000001 C 464.719 97.85400000000001 470.423 99.89800000000001 479.685 100.81400000000001 C 490.765 101.899 491.629 103.52600000000001 491.629 105.70700000000001 C 491.629 109.49000000000001 488.613 111.10300000000001 481.48400000000004 111.10300000000001 C 472.528 111.10300000000001 470.559 108.867 469.90000000000003 104.403 C 469.82200000000006 103.92500000000001 469.454 103.54 468.96500000000003 103.54 L 464.56500000000005 103.54 C 464.0139702779031 103.55217310435161 463.5701731043517 103.99597027790307 463.55800000000005 104.54700000000001 C 463.55800000000005 110.25000000000001 466.66 116.99400000000001 481.47400000000005 116.99400000000001 C 492.19700000000006 116.99400000000001 498.38200000000006 112.79400000000001 498.38200000000006 105.41000000000001 C 498.38200000000006 98.11000000000001 493.3860000000001 96.13700000000001 482.98500000000007 94.76 C 472.48500000000007 93.36 471.47300000000007 92.69000000000001 471.47300000000007 90.227 C 471.47300000000007 88.19500000000001 472.3230000000001 85.477 480.1070000000001 85.477 C 487.06000000000006 85.477 489.6300000000001 86.977 490.6840000000001 91.665 C 490.77600000000007 92.105 491.1640000000001 92.465 491.6190000000001 92.465 L 496.01900000000006 92.465 C 496.28900000000004 92.465 496.55100000000004 92.299 496.7390000000001 92.105 C 496.9230000000001 91.89800000000001 497.0530000000001 91.665 497.0270000000001 91.385 C 496.3470000000001 83.311 490.9630000000001 79.513 480.1190000000001 79.513 z" stroke-linecap="round" />
</g>
<g transform="matrix(1.97 0 0 1.97 433.06 219.85)"  >
<path style="stroke: none; stroke-width: 1; stroke-dasharray: none; stroke-linecap: butt; stroke-dashoffset: 0; stroke-linejoin: miter; stroke-miterlimit: 4; fill: rgb(215,218,185); fill-rule: nonzero; opacity: 1;" vector-effect="non-scaling-stroke"  transform=" translate(-202.17, -72.55)" d="M 271.82 0.383 C 271.4414277945348 0.3836834397898942 271.0695589151698 0.4829403788604272 270.741 0.6710000000000003 C 270.07594881373456 1.0601481939205724 269.66573131857365 1.7714706530920226 269.662 2.541999999999999 L 269.662 57.584 C 269.662 58.124 269.40999999999997 58.608000000000004 268.94199999999995 58.879000000000005 C 268.47511109617255 59.15120384432784 267.8978889038273 59.15120384432784 267.4309999999999 58.879000000000005 L 258.4369999999999 53.699000000000005 C 257.10170358164504 52.9263954336471 255.45529641835475 52.9263954336471 254.1199999999999 53.699000000000005 L 218.218 74.42 C 216.87599999999998 75.194 216.058 76.684 216.058 78.233 L 216.058 119.676 C 216.05580756006202 121.21965218666497 216.8793296429825 122.64660731042854 218.21699999999998 123.417 L 254.11999999999998 144.139 C 255.45473808791326 144.91368159005563 257.10226191208665 144.91368159005563 258.43699999999995 144.139 L 294.34 123.417 C 295.67767035701746 122.64660731042854 296.50119243993794 121.21965218666497 296.49899999999997 119.676 L 296.49899999999997 16.356 C 296.49899999999997 14.784000000000002 295.64099999999996 13.309000000000001 294.26899999999995 12.543000000000001 L 272.9 0.598 C 272.56399999999996 0.411 272.19199999999995 0.378 271.82 0.382 z M 40.86 52.115 C 40.175 52.143 39.532 52.262 38.917 52.619 L 3.015 73.34 C 1.6761930080391345 74.10912420556772 0.852521299413755 75.53699995254064 0.8569999999999998 77.081 L 0.93 132.7 C 0.93 133.474 1.33 134.19199999999998 2.0100000000000002 134.57 C 2.6770000000000005 134.97 3.5040000000000004 134.97 4.168 134.57 L 25.465 122.338 C 26.815 121.538 27.695 120.142 27.695 118.598 L 27.695 92.623 C 27.695 91.07300000000001 28.51 89.653 29.855 88.88300000000001 L 38.921 83.63100000000001 C 39.5761137497081 83.25003376877304 40.3211777292137 83.05116590399304 41.079 83.05500000000002 C 41.837223660768416 83.0504997327482 42.58278212251232 83.24940740943393 43.238 83.63100000000001 L 52.3 88.88 C 53.643 89.64999999999999 54.458 91.072 54.458 92.61999999999999 L 54.458 118.594 C 54.458 120.14 55.358 121.544 56.687999999999995 122.33399999999999 L 77.985 134.56599999999997 C 78.655 134.96599999999998 79.48 134.96599999999998 80.143 134.56599999999997 C 80.803 134.18599999999998 81.223 133.46899999999997 81.223 132.69599999999997 L 81.295 77.07899999999998 C 81.3036782458781 75.53388510871639 80.47887455305585 74.10404701101106 79.137 73.33799999999998 L 43.235 52.618 C 42.628 52.262 41.982 52.142 41.292 52.114000000000004 L 40.862 52.114000000000004 z M 363.48400000000004 52.619 C 362.7260874604753 52.6169135182255 361.98115047028966 52.81565539240194 361.32500000000005 53.195 L 325.422 73.917 C 324.08200000000005 74.69200000000001 323.262 76.10900000000001 323.262 77.657 L 323.262 119.1 C 323.262 120.658 324.14 122.07 325.492 122.83999999999999 L 361.107 143.14 C 362.422 143.89 364.02700000000004 143.94699999999997 365.35200000000003 143.20999999999998 L 386.937 131.194 C 387.622 130.814 388.08500000000004 130.10399999999998 388.087 129.32399999999998 C 388.08899999999994 128.54399999999998 387.68399999999997 127.84199999999998 387.007 127.45399999999998 L 350.887 106.73199999999997 C 350.211 106.34599999999998 349.737 105.56499999999997 349.737 104.78899999999997 L 349.737 91.83 C 349.737 91.056 350.21700000000004 90.346 350.887 89.96 L 362.111 83.484 C 362.779 83.098 363.599 83.098 364.271 83.484 L 375.5 89.96 C 376.1692479642029 90.3444734158672 376.58105962362737 91.05817851607456 376.579 91.83 L 376.579 102.047 C 376.57694037637265 102.81882148392543 376.9887520357971 103.5325265841328 377.658 103.917 C 378.331 104.305 379.146 104.307 379.81800000000004 103.917 L 401.33 91.4 C 402.66499999999996 90.62400000000001 403.49 89.203 403.49 87.66000000000001 L 403.49 77.66000000000001 C 403.49012422520764 76.11690096540619 402.6671566792187 74.69090671364853 401.331 73.91900000000001 L 365.644 53.19700000000001 C 364.98803391008863 52.81721014735675 364.2429744501857 52.61843559946231 363.485 52.62100000000001 z M 256.134 83.559 C 256.33489401176246 83.5581109931561 256.53284824027673 83.60725587974906 256.71000000000004 83.702 L 269.01300000000003 90.825 C 269.34700000000004 91.018 269.58900000000006 91.375 269.58900000000006 91.76 L 269.58900000000006 106.006 C 269.58900000000006 106.393 269.34900000000005 106.749 269.01300000000003 106.941 L 256.71000000000004 114.06400000000001 C 256.37500000000006 114.254 255.96600000000004 114.254 255.63000000000002 114.06400000000001 L 243.32700000000003 106.941 C 242.99200000000002 106.748 242.75100000000003 106.391 242.75100000000003 106.006 L 242.75100000000003 91.758 C 242.75100000000003 91.372 242.99300000000002 91.018 243.32700000000003 90.823 L 255.63000000000002 83.701 C 255.79800000000003 83.604 255.94600000000003 83.55799999999999 256.134 83.55799999999999 L 256.134 83.55699999999999 z" stroke-linecap="round" />
</g>
<g transform="matrix(1.97 0 0 1.97 507.23 270.33)"  >
<path style="stroke: none; stroke-width: 1; stroke-dasharray: none; stroke-linecap: butt; stroke-dashoffset: 0; stroke-linejoin: miter; stroke-miterlimit: 4; fill: rgb(131,205,41); fill-rule: nonzero; opacity: 1;" vector-effect="non-scaling-stroke"  transform=" translate(-239.8, -98.16)" d="M 148.714 52.402 C 147.9558718172128 52.40068630926096 147.21080973989146 52.599369529879986 146.554 52.978 L 110.65100000000001 73.628 C 109.30900000000001 74.402 108.49300000000001 75.893 108.49300000000001 77.441 L 108.49300000000001 118.884 C 108.48888075274527 120.42764296785086 109.3125040715942 121.85505316826557 110.65100000000001 122.624 L 146.554 143.346 C 147.88873808791328 144.12068159005563 149.53626191208673 144.12068159005563 150.871 143.346 L 186.774 122.624 C 188.1116703570175 121.85360731042853 188.93519243993796 120.42665218666497 188.933 118.883 L 188.933 77.44 C 188.933 75.89 188.117 74.39999999999999 186.773 73.627 L 150.87 52.977 C 150.2139262727008 52.596591129641475 149.46837540850024 52.397777565854646 148.71 52.400999999999996 z M 363.414 89.38499999999999 C 363.271 89.38499999999999 363.11199999999997 89.38499999999999 362.98199999999997 89.45499999999998 L 356.075 93.48499999999999 C 355.8130795174063 93.6304740018464 355.6484702005763 93.90444182314455 355.643 94.20399999999998 L 355.643 102.11899999999999 C 355.643 102.41699999999999 355.816 102.68899999999998 356.075 102.83899999999998 L 362.98199999999997 106.79599999999998 C 363.223993044612 106.94592810761546 363.530006955388 106.94592810761546 363.772 106.79599999999998 L 370.679 102.83899999999998 C 370.93499999999995 102.69199999999998 371.111 102.41699999999999 371.111 102.11899999999999 L 371.111 94.20399999999998 C 371.111 93.90599999999998 370.936 93.63399999999999 370.679 93.48399999999998 L 363.772 89.45399999999998 C 363.644 89.37799999999999 363.556 89.38399999999999 363.412 89.38399999999999 z" stroke-linecap="round" />
</g>
</svg>