<?xml version="1.0" encoding="utf-8"?>
<!-- Generator: Adobe Illustrator 27.0.0, SVG Export Plug-In . SVG Version: 6.00 Build 0)  -->
<svg version="1.1" id="Layer_1" xmlns="http://www.w3.org/2000/svg" xmlns:xlink="http://www.w3.org/1999/xlink" x="0px" y="0px"
	 viewBox="0 0 650 699" style="enable-background:new 0 0 650 699;" xml:space="preserve">
<style type="text/css">
	.st0{fill:#4DABCF;}
	.st1{fill:#4D77CF;}
</style>
<polygon class="st0" points="276.2,141.2 160.1,82.2 32.7,146.2 151.9,206.6 "/>
<polygon class="st0" points="329.4,168.3 451.1,230.2 324.9,294.1 205.5,233.6 "/>
<polygon class="st0" points="491.9,83.1 617,146.2 505.2,202.8 383.2,140.8 "/>
<polygon class="st0" points="438.1,55.9 325.6,-1 214.2,55 330.2,113.9 "/>
<polygon class="st0" points="350.2,544.2 350.2,699 486.5,630.5 486.4,475.6 "/>
<polygon class="st0" points="486.3,421.6 486.1,268.4 350.2,336.5 350.2,489.7 "/>
<polygon class="st0" points="650,392.9 650,548.2 533.7,606.7 533.6,452 "/>
<polygon class="st0" points="650,338.5 650,186.3 533.5,244.7 533.6,398.2 "/>
<path class="st1" d="M302,336.5L210.2,290v201.1c0,0-112.3-240.9-122.7-262.5c-2.2-2.8-5-5.1-8.3-6.6C59,211.5,0,181.2,0,181.2
	v355.2l81.6,44V394.8c0,0,111.1,215.2,112.2,217.5c5.7,12.5,14,23.8,24.2,33c15.9,10.6,83.9,51.8,83.9,51.8L302,336.5z"/>
</svg>
