<?xml version="1.0" encoding="UTF-8" standalone="no" ?>
<!DOCTYPE svg PUBLIC "-//W3C//DTD SVG 1.1//EN" "http://www.w3.org/Graphics/SVG/1.1/DTD/svg11.dtd">
<svg xmlns="http://www.w3.org/2000/svg" xmlns:xlink="http://www.w3.org/1999/xlink" version="1.1" width="1080" height="1080" viewBox="0 0 1080 1080" xml:space="preserve">
<desc>Created with Fabric.js 5.2.4</desc>
<defs>
</defs>
<g transform="matrix(1 0 0 1 540 540)" id="7aeab20b-8a8f-474c-a8b7-f5ae2a539d11"  >
<rect style="stroke: none; stroke-width: 1; stroke-dasharray: none; stroke-linecap: butt; stroke-dashoffset: 0; stroke-linejoin: miter; stroke-miterlimit: 4; fill: rgb(255,255,255); fill-rule: nonzero; opacity: 1; visibility: hidden;" vector-effect="non-scaling-stroke"  x="-540" y="-540" rx="0" ry="0" width="1080" height="1080" />
</g>
<g transform="matrix(1 0 0 1 540 540)" id="ae50ef7b-856d-4a11-be1b-ceaef24c8fcd"  >
</g>
<g transform="matrix(1 0 0 1 540 678.5)"  >
<g style="" vector-effect="non-scaling-stroke"   >
		<g transform="matrix(1 0 0 1 0 0)"  >
<rect style="stroke: none; stroke-width: 1; stroke-dasharray: none; stroke-linecap: butt; stroke-dashoffset: 0; stroke-linejoin: miter; stroke-miterlimit: 4; fill: rgb(255,255,255); fill-rule: nonzero; opacity: 1; visibility: hidden;" vector-effect="non-scaling-stroke"  x="-540" y="-540" rx="0" ry="0" width="1080" height="1080" />
</g>
		<g transform="matrix(1.07 0 0 1 26.86 -399.31)"  >
<path style="stroke: none; stroke-width: 1; stroke-dasharray: none; stroke-linecap: butt; stroke-dashoffset: 0; stroke-linejoin: miter; stroke-miterlimit: 4; fill: rgb(35,34,76); fill-rule: nonzero; opacity: 1;" vector-effect="non-scaling-stroke"  transform=" translate(-619.8, -400.76)" d="M 442.31 464.15 C 428.73 464.35999999999996 415.79 458.39 407.14 447.91999999999996 L 407.14 505.9 L 380.6 505.9 L 380.6 362.88 L 404.56 362.88 L 405.46 378.6 C 413.96 366.82000000000005 427.65 359.90000000000003 442.17999999999995 360.05 C 468.97999999999996 360.05 488.55999999999995 382.47 488.55999999999995 412.1 C 488.55999999999995 441.73 468.97999999999996 464.15000000000003 442.17999999999995 464.15000000000003 L 442.31 464.15 L 442.31 464.15 z M 434.07 379.76 C 418.61 379.76 405.98 391.87 405.98 412.1 C 405.98 432.33000000000004 418.48 444.57000000000005 434.07 444.57000000000005 C 449.65999999999997 444.57000000000005 462.15999999999997 432.46000000000004 462.15999999999997 412.1 C 462.15 391.74 449.53 379.76 434.07 379.76 L 434.07 379.76 z M 588.55 461.44 L 587.65 445.71999999999997 C 579.1 457.48999999999995 565.35 464.36999999999995 550.8 464.14 C 524.13 464.14 504.41999999999996 441.84999999999997 504.41999999999996 412.09 C 504.41999999999996 382.33 524.13 360.03999999999996 550.8 360.03999999999996 C 564.7099999999999 360.03999999999996 579.4 366.47999999999996 587.52 378.59 L 588.55 362.86999999999995 L 612.51 362.86999999999995 L 612.51 461.29999999999995 L 588.55 461.44 z M 559.04 379.76 C 543.5799999999999 379.76 530.9499999999999 391.87 530.9499999999999 412.1 C 530.9499999999999 432.33000000000004 543.5799999999999 444.57000000000005 559.04 444.57000000000005 C 574.5 444.57000000000005 587.13 432.46000000000004 587.13 412.1 C 587.13 391.74 574.63 379.76 559.04 379.76 z M 705.15 461.44 L 705.15 406.94 C 705.15 387.61 698.4499999999999 381.3 686.47 381.3 C 673.84 381.3 660.19 392.77000000000004 660.19 406.42 L 660.19 461.43 L 633.6500000000001 461.43 L 633.6500000000001 362.87 L 657.8700000000001 362.87 L 659.0300000000001 381.04 C 666.58 368.07 680.4800000000001 360.11 695.4900000000001 360.17 C 721.7700000000001 360.17 731.5700000000002 378.34000000000003 731.5700000000002 402.69 L 731.5700000000002 461.44 L 705.15 461.44 L 705.15 461.44 z M 828.7 461.44 L 827.6700000000001 445.85 C 819.1200000000001 457.62 805.3700000000001 464.5 790.82 464.27000000000004 C 764.1500000000001 464.27000000000004 744.44 441.98 744.44 412.35 C 744.44 382.72 764.1500000000001 360.3 790.82 360.3 C 804.09 360.3 817.62 365.71000000000004 825.99 376.41 L 825.99 324.49 L 852.53 324.49 L 852.53 461.45000000000005 L 828.7 461.45000000000005 z M 799.2 379.76 C 783.74 379.76 771.11 391.87 771.11 412.1 C 771.11 432.33000000000004 783.87 444.57000000000005 799.33 444.57000000000005 C 814.7900000000001 444.57000000000005 827.4200000000001 432.46000000000004 827.4200000000001 412.23 C 827.4200000000001 392 814.9200000000001 379.76 799.33 379.76 L 799.2 379.76 L 799.2 379.76 z M 952.13 461.44 L 951.23 445.71999999999997 C 942.73 457.49999999999994 929.04 464.41999999999996 914.51 464.27 C 887.71 464.27 868.13 441.84999999999997 868.13 412.21999999999997 C 868.13 382.59 887.71 360.16999999999996 914.51 360.16999999999996 C 928.42 360.16999999999996 942.98 366.60999999999996 951.23 378.59 L 952.13 362.86999999999995 L 976.09 362.86999999999995 L 976.09 461.42999999999995 L 952.13 461.42999999999995 z M 922.63 379.76 C 907.17 379.76 894.67 391.87 894.54 412.23 C 894.41 432.59000000000003 907.17 444.57000000000005 922.63 444.57000000000005 C 938.09 444.57000000000005 950.72 432.46000000000004 950.72 412.1 C 950.72 391.74 938.22 379.89000000000004 922.63 379.89000000000004 L 922.63 379.76 L 922.63 379.76 z M 1034.72 464.67 C 1020.8100000000001 464.54 1007.19 460.66 995.3000000000001 453.46000000000004 L 999.6800000000001 435.29 C 1009.99 441.99 1021.97 445.85 1034.3400000000001 446.24 C 1044.7800000000002 446.24 1052.1200000000001 443.02 1052.1200000000001 434.77 C 1052.1200000000001 427.68 1044.65 425.24 1031.1200000000001 422.01 C 1006.9000000000001 416.86 998.2700000000001 403.96999999999997 998.2700000000001 390.06 C 998.2700000000001 374.6 1010.3800000000001 359.91 1037.0500000000002 359.91 C 1053.2800000000002 359.91 1067.4600000000003 367 1070.5500000000002 368.93 L 1066.17 386.19 C 1057.54 381.04 1047.75 378.2 1037.7 377.94 C 1027.01 377.94 1021.72 381.55 1021.72 387.46999999999997 C 1021.72 394.16999999999996 1028.55 397.13 1039.1100000000001 399.58 C 1065.14 405.12 1075.5700000000002 417.22999999999996 1075.5700000000002 430.5 C 1075.56 451.65 1060.1 464.67 1034.72 464.67 z M 164.02 295.63 L 195.07000000000002 295.63 L 195.07000000000002 360.05 L 164.02 360.05 C 164.02 360.05 164.02 295.63 164.02 295.63 z M 164.02 428.07 L 195.07000000000002 428.07 L 195.07000000000002 492.49 L 164.02 492.49 C 164.02 492.49 164.02 428.07 164.02 428.07 z" stroke-linecap="round" />
</g>
		<g transform="matrix(1.07 0 0 1 -444.22 -406)"  >
<path style="stroke: none; stroke-width: 1; stroke-dasharray: none; stroke-linecap: butt; stroke-dashoffset: 0; stroke-linejoin: miter; stroke-miterlimit: 4; fill: rgb(254,201,2); fill-rule: nonzero; opacity: 1;" vector-effect="non-scaling-stroke"  transform=" translate(-179.55, -394.07)" d="M 164.02 378.86 L 195.07000000000002 378.86 L 195.07000000000002 409.27000000000004 L 164.02 409.27000000000004 L 164.02 378.86 z" stroke-linecap="round" />
</g>
		<g transform="matrix(1.07 0 0 1 -444.76 -344.36)"  >
<path style="stroke: none; stroke-width: 1; stroke-dasharray: none; stroke-linecap: butt; stroke-dashoffset: 0; stroke-linejoin: miter; stroke-miterlimit: 4; fill: rgb(35,34,76); fill-rule: nonzero; opacity: 1;" vector-effect="non-scaling-stroke"  transform=" translate(-179.03, -455.71)" d="M 114.16 348.58 L 145.21 348.58 L 145.21 562.8399999999999 L 114.16000000000001 562.8399999999999 L 114.16000000000001 348.58 z M 212.85 481.16 L 243.9 481.16 L 243.9 545.58 L 212.85 545.58 C 212.85 545.58 212.85 481.16 212.85 481.16 z M 212.85 348.71 L 243.9 348.71 L 243.9 413.13 L 212.85 413.13 C 212.85 413.13 212.85 348.71 212.85 348.71 z" stroke-linecap="round" />
</g>
		<g transform="matrix(1.07 0 0 1 -391.97 -352.91)"  >
<path style="stroke: none; stroke-width: 1; stroke-dasharray: none; stroke-linecap: butt; stroke-dashoffset: 0; stroke-linejoin: miter; stroke-miterlimit: 4; fill: rgb(226,26,132); fill-rule: nonzero; opacity: 1;" vector-effect="non-scaling-stroke"  transform=" translate(-228.38, -447.14)" d="M 212.85 431.94 L 243.9 431.94 L 243.9 462.35 L 212.85 462.35 C 212.85 462.35 212.85 431.94 212.85 431.94 z" stroke-linecap="round" />
</g>
		<g transform="matrix(1.07 0 0 1 -339.71 -414.06)"  >
<path style="stroke: none; stroke-width: 1; stroke-dasharray: none; stroke-linecap: butt; stroke-dashoffset: 0; stroke-linejoin: miter; stroke-miterlimit: 4; fill: rgb(35,34,76); fill-rule: nonzero; opacity: 1;" vector-effect="non-scaling-stroke"  transform=" translate(-277.21, -386.01)" d="M 261.68 278.88 L 292.73 278.88 L 292.73 493.14 L 261.68 493.14 C 261.68 493.14 261.68 278.88 261.68 278.88 z" stroke-linecap="round" />
</g>
</g>
</g>
</svg>