<svg id="Layer_1" data-name="Layer 1" xmlns="http://www.w3.org/2000/svg" viewBox="0 0 1028.7 614.96">
  <defs>
    <style>
      .cls-1 {
        fill: #e21a84;
      }

      .cls-2 {
        fill: #23224c;
      }

      .cls-3 {
        fill: none;
      }

      .cls-4 {
        fill: #fec902;
      }
    </style>
  </defs>
  <g vector-effect="non-scaling-stroke">
    <path class="cls-2" d="M351.12,352.27c-14.53,.21-28.38-5.76-37.63-16.23v57.98h-28.4V251h25.64l.96,15.72c9.1-11.78,23.74-18.7,39.29-18.55,28.68,0,49.63,22.42,49.63,52.05s-20.95,52.05-49.63,52.05h.14Zm-8.82-84.39c-16.54,0-30.06,12.11-30.06,32.34s13.38,32.47,30.06,32.47,30.06-12.11,30.06-32.47c-.01-20.36-13.51-32.34-30.06-32.34h0Zm165.29,81.68l-.96-15.72c-9.15,11.77-23.86,18.65-39.43,18.42-28.54,0-49.63-22.29-49.63-52.05s21.09-52.05,49.63-52.05c14.88,0,30.6,6.44,39.29,18.55l1.1-15.72h25.64v98.43l-25.64,.14h0Zm-31.58-81.68c-16.54,0-30.06,12.11-30.06,32.34s13.51,32.47,30.06,32.47,30.06-12.11,30.06-32.47-13.38-32.34-30.06-32.34Zm156.34,81.68v-54.5c0-19.33-7.17-25.64-19.99-25.64-13.51,0-28.12,11.47-28.12,25.12v55.01h-28.4v-98.56h25.92l1.24,18.17c8.08-12.97,22.95-20.93,39.01-20.87,28.12,0,38.61,18.17,38.61,42.52v58.75h-28.27Zm132.2,0l-1.1-15.59c-9.15,11.77-23.86,18.65-39.43,18.42-28.54,0-49.63-22.29-49.63-51.92s21.09-52.05,49.63-52.05c14.2,0,28.68,5.41,37.63,16.11v-51.92h28.4v136.96h-25.5Zm-31.57-81.7c-16.54,0-30.06,12.11-30.06,32.34s13.65,32.47,30.2,32.47,30.06-12.11,30.06-32.34-13.38-32.47-30.06-32.47h-.14Zm163.64,81.68l-.96-15.72c-9.1,11.78-23.74,18.7-39.29,18.55-28.68,0-49.63-22.42-49.63-52.05s20.95-52.05,49.63-52.05c14.88,0,30.46,6.44,39.29,18.42l.96-15.72h25.64v98.56h-25.64Zm-31.57-81.66c-16.54,0-29.92,12.11-30.06,32.47s13.51,32.34,30.06,32.34,30.06-12.11,30.06-32.47-13.38-32.21-30.06-32.21v-.13h0Zm119.94,84.91c-14.88-.13-29.46-4.01-42.18-11.21l4.69-18.17c11.03,6.7,23.85,10.56,37.09,10.95,11.17,0,19.02-3.22,19.02-11.47,0-7.09-7.99-9.53-22.47-12.76-25.92-5.15-35.15-18.04-35.15-31.95,0-15.46,12.96-30.15,41.49-30.15,17.37,0,32.54,7.09,35.85,9.02l-4.69,17.26c-9.23-5.15-19.71-7.99-30.46-8.25-11.44,0-17.1,3.61-17.1,9.53,0,6.7,7.31,9.66,18.61,12.11,27.85,5.54,39.01,17.65,39.01,30.92-.01,21.15-16.55,34.17-43.71,34.17h0ZM53.35,183.75h33.22v64.42H53.35v-64.42Zm0,132.44h33.22v64.42H53.35v-64.42Z" vector-effect="non-scaling-stroke"/>
    <path class="cls-4" d="M53.33,266.98h33.22v30.41H53.33s0-30.41,0-30.41Z" vector-effect="non-scaling-stroke"/>
    <path class="cls-2" d="M0,236.7H33.22v214.26H0V236.7Zm105.6,132.58h33.22v64.42h-33.22v-64.42h0Zm0-132.45h33.22v64.42h-33.22s0-64.42,0-64.42Z" vector-effect="non-scaling-stroke"/>
    <path class="cls-1" d="M105.58,320.08h33.22v30.41h-33.22v-30.41Z" vector-effect="non-scaling-stroke"/>
    <path class="cls-2" d="M157.84,167h33.22v214.26h-33.22V167Z" vector-effect="non-scaling-stroke"/>
  </g>
  <rect class="cls-3" width="1028.7" height="159"/>
  <rect class="cls-3" y="468.96" width="1028.7" height="146"/>
</svg>