<?xml version="1.0" encoding="UTF-8"?>
<svg id="Layer_1" data-name="Layer 1" xmlns="http://www.w3.org/2000/svg" xmlns:xlink="http://www.w3.org/1999/xlink" viewBox="0 0 1016 629">
  <defs>
    <style>
      .cls-1 {
        fill: url(#linear-gradient-2);
      }

      .cls-2 {
        fill: #030015;
      }

      .cls-3 {
        fill: none;
      }

      .cls-4 {
        fill: url(#linear-gradient);
      }
    </style>
    <linearGradient id="linear-gradient" x1="-1964.47" y1="1087.9" x2="-1855.46" y2="1181.69" gradientTransform="translate(2498.17 -1175.26) scale(1.26 1.28)" gradientUnits="userSpaceOnUse">
      <stop offset="0" stop-color="#5a9fd4"/>
      <stop offset="1" stop-color="#306998"/>
    </linearGradient>
    <linearGradient id="linear-gradient-2" x1="-1815.24" y1="1237.72" x2="-1854.17" y2="1182.64" gradientTransform="translate(2498.25 -1175.17) scale(1.26 1.28)" gradientUnits="userSpaceOnUse">
      <stop offset="0" stop-color="#ffd43b"/>
      <stop offset="1" stop-color="#ffe873"/>
    </linearGradient>
  </defs>
  <path class="cls-4" d="M146.84,205.53c-10.31,.05-20.16,.93-28.83,2.46-25.53,4.51-30.16,13.95-30.16,31.36v22.99h60.33v7.66H65.2c-17.53,0-32.89,10.54-37.69,30.59-5.54,22.98-5.78,37.32,0,61.31,4.29,17.86,14.53,30.59,32.06,30.59h20.74v-27.56c0-19.91,17.23-37.48,37.69-37.48h60.26c16.77,0,30.16-13.81,30.16-30.66v-57.44c0-16.35-13.79-28.63-30.16-31.36-10.37-1.72-21.12-2.51-31.43-2.46,0,0,.01,0,.01,0Zm-32.62,18.49c6.23,0,11.32,5.17,11.32,11.53s-5.09,11.46-11.32,11.46-11.32-5.12-11.32-11.46,5.07-11.53,11.32-11.53Z" vector-effect="non-scaling-stroke"/>
  <path class="cls-1" d="M216.03,270.09v26.79c0,20.77-17.61,38.25-37.69,38.25h-60.26c-16.51,0-30.16,14.13-30.16,30.66v57.44c0,16.35,14.22,25.97,30.16,30.66,19.1,5.62,37.41,6.63,60.26,0,15.19-4.4,30.16-13.25,30.16-30.66v-22.99h-60.26v-7.66h90.42c17.53,0,24.07-12.23,30.16-30.59,6.3-18.9,6.03-37.07,0-61.31-4.33-17.45-12.61-30.59-30.16-30.59h-22.63Zm-33.89,145.48c6.25,0,11.32,5.12,11.32,11.46s-5.07,11.53-11.32,11.53-11.32-5.17-11.32-11.53,5.09-11.46,11.32-11.46Z" vector-effect="non-scaling-stroke"/>
  <path class="cls-2" d="M373.55,316.79c0-34.46-9.83-52.17-29.49-53.14-7.83-.37-15.45,.87-22.89,3.77-5.93,2.12-9.92,4.22-12.02,6.34v82.27c12.57,7.89,23.74,11.56,33.47,10.98,20.6-1.37,30.92-18.09,30.92-50.23h.01Zm24.25,1.43c0,17.52-4.1,32.04-12.37,43.6-9.2,13.09-21.97,19.82-38.27,20.19-12.3,.39-24.96-3.46-38-11.54v74.77l-21.09-7.52v-165.97c3.46-4.24,7.91-7.89,13.31-10.98,12.55-7.31,27.8-11.08,45.75-11.26l.29,.29c16.4-.21,29.04,6.53,37.92,20.19,8.29,12.53,12.43,28.58,12.43,48.21h.02Zm128.88,49.1c0,23.49-2.36,39.75-7.06,48.79-4.73,9.04-13.73,16.26-27.01,21.64-10.77,4.24-22.43,6.55-34.93,6.94l-3.48-13.29c12.71-1.73,21.66-3.46,26.86-5.19,10.23-3.46,17.23-8.76,21.09-15.87,3.09-5.79,4.62-16.84,4.62-33.2v-5.49c-14.42,6.55-29.53,9.8-45.33,9.8-10.38,0-19.55-3.25-27.44-9.8-8.86-7.13-13.29-16.17-13.29-27.13v-87.77l21.09-7.22v88.33c0,9.44,3.04,16.71,9.13,21.8,6.09,5.09,13.98,7.54,23.65,7.36,9.67-.21,20.03-3.94,31.03-11.26v-103.06h21.09v114.59h-.03Zm82.32,13.57c-2.31,.2-4.63,.29-6.94,.29-11.93,0-21.23-2.84-27.87-8.53-6.63-5.7-9.94-13.56-9.94-23.6v-83.06h-14.44v-13.27h14.44v-35.23l21.06-7.5v42.73h23.69v13.27h-23.69v82.47c0,7.91,2.13,13.52,6.36,16.8,3.65,2.69,9.44,4.24,17.33,4.64v10.98h0Zm127.68-1.74h-21.09v-81.39c0-8.28-1.94-15.41-5.79-21.37-4.45-6.74-10.64-10.11-18.58-10.11-9.67,0-21.75,5.1-36.26,15.3v97.57h-21.08V184.58l21.08-6.65v88.62c13.48-9.8,28.19-14.72,44.18-14.72,11.17,0,20.21,3.77,27.13,11.26,6.94,7.5,10.4,16.84,10.4,28v88.04h0Zm112.08-65.65c0-13.24-2.51-24.17-7.52-32.83-5.95-10.54-15.2-16.11-27.71-16.68-23.12,1.34-34.65,17.9-34.65,49.65,0,14.56,2.4,26.72,7.25,36.47,6.19,12.43,15.45,18.58,27.82,18.37,23.21-.19,34.81-18.5,34.81-54.98h0Zm23.09,.14c0,18.85-4.82,34.54-14.44,47.07-10.59,14.03-25.22,21.06-43.88,21.06s-32.93-7.04-43.33-21.06c-9.44-12.53-14.15-28.21-14.15-47.07,0-17.72,5.1-32.62,15.3-44.76,10.77-12.88,24.94-19.34,42.45-19.34s31.77,6.46,42.75,19.34c10.2,12.14,15.3,27.04,15.3,44.76h.01Zm120.89,65.52h-21.09v-86.01c0-9.44-2.84-16.8-8.51-22.1-5.68-5.28-13.24-7.85-22.68-7.64-10.01,.19-19.55,3.46-28.58,9.8v105.94h-21.09v-108.55c12.14-8.84,23.3-14.6,33.49-17.3,9.62-2.51,18.1-3.77,25.43-3.77,5.01,0,9.71,.48,14.14,1.45,8.28,1.91,15.02,5.47,20.21,10.68,5.8,5.76,8.68,12.69,8.68,20.79v96.71h.01Z" vector-effect="non-scaling-stroke"/>
  <rect class="cls-3" width="1016" height="160.67"/>
  <rect class="cls-3" y="468.33" width="1016" height="160.67"/>
</svg>