<?xml version="1.0" encoding="UTF-8" standalone="no" ?>
<!DOCTYPE svg PUBLIC "-//W3C//DTD SVG 1.1//EN" "http://www.w3.org/Graphics/SVG/1.1/DTD/svg11.dtd">
<svg xmlns="http://www.w3.org/2000/svg" xmlns:xlink="http://www.w3.org/1999/xlink" version="1.1" width="1080" height="1080" viewBox="0 0 1080 1080" xml:space="preserve">
<desc>Created with Fabric.js 5.2.4</desc>
<defs>
</defs>
<g transform="matrix(1 0 0 1 540 540)" id="477a663b-53c1-4829-a76c-0e4c2bcfad3a"  >
<rect style="stroke: none; stroke-width: 1; stroke-dasharray: none; stroke-linecap: butt; stroke-dashoffset: 0; stroke-linejoin: miter; stroke-miterlimit: 4; fill: rgb(255,255,255); fill-rule: nonzero; opacity: 1; visibility: hidden;" vector-effect="non-scaling-stroke"  x="-540" y="-540" rx="0" ry="0" width="1080" height="1080" />
</g>
<g transform="matrix(1 0 0 1 540 540)" id="7ad96667-b4f5-4d84-b4ca-484aae525bde"  >
</g>
<g transform="matrix(1 0 0 1 540 614.2)"  >
<g style="" vector-effect="non-scaling-stroke"   >
		<g transform="matrix(1 0 0 1 0 0)"  >
<rect style="stroke: none; stroke-width: 1; stroke-dasharray: none; stroke-linecap: butt; stroke-dashoffset: 0; stroke-linejoin: miter; stroke-miterlimit: 4; fill: rgb(255,255,255); fill-rule: nonzero; opacity: 1; visibility: hidden;" vector-effect="non-scaling-stroke"  x="-540" y="-540" rx="0" ry="0" width="1080" height="1080" />
</g>
		<g transform="matrix(2.16 0 0 2.16 117.36 -273.01)"  >
<path style="stroke: none; stroke-width: 1; stroke-dasharray: none; stroke-linecap: butt; stroke-dashoffset: 0; stroke-linejoin: miter; stroke-miterlimit: 4; fill: rgb(100,100,100); fill-rule: nonzero; opacity: 1;" vector-effect="non-scaling-stroke"  transform=" translate(-297.35, -59.73)" d="M 184.614 61.929 C 184.614 47.367000000000004 180.46200000000002 39.891000000000005 172.157 39.482 C 168.852 39.326 165.627 39.852 162.488 41.071 C 159.983 41.967 158.297 42.855 157.41 43.751999999999995 L 157.41 78.51 C 162.722 81.84400000000001 167.439 83.394 171.553 83.15 C 180.256 82.57300000000001 184.614 75.507 184.614 61.929 z M 194.858 62.533 C 194.858 69.931 193.123 76.072 189.633 80.955 C 185.744 86.482 180.354 89.328 173.46300000000002 89.484 C 168.26800000000003 89.649 162.91600000000003 88.02199999999999 157.40900000000002 84.61 L 157.40900000000002 116.201 L 148.50000000000003 113.023 L 148.50000000000003 42.90299999999999 C 149.96200000000002 41.10999999999999 151.84400000000002 39.56999999999999 154.12400000000002 38.26299999999999 C 159.42700000000002 35.17299999999999 165.86900000000003 33.584999999999994 173.45300000000003 33.50699999999999 L 173.57900000000004 33.63299999999999 C 180.51000000000005 33.545999999999985 185.85000000000002 36.39199999999999 189.60300000000004 42.16199999999999 C 193.10300000000004 47.45499999999999 194.85800000000003 54.23899999999999 194.85800000000003 62.53299999999999 z M 249.305 83.266 C 249.305 93.18900000000001 248.311 100.06 246.323 103.881 C 244.32500000000002 107.701 240.523 110.752 234.90900000000002 113.024 C 230.35700000000003 114.81700000000001 225.43400000000003 115.792 220.15200000000002 115.958 L 218.679 110.344 C 224.05 109.61399999999999 227.832 108.88199999999999 230.025 108.151 C 234.34300000000002 106.689 237.306 104.448 238.934 101.445 C 240.24 98.999 240.883 94.33 240.883 87.41999999999999 L 240.883 85.1 C 234.791 87.869 228.407 89.243 221.731 89.243 C 217.344 89.243 213.475 87.869 210.141 85.1 C 206.398 82.088 204.527 78.268 204.527 73.63799999999999 L 204.527 36.55799999999999 L 213.43599999999998 33.50699999999999 L 213.43599999999998 70.82799999999999 C 213.43599999999998 74.814 214.72199999999998 77.88499999999999 217.295 80.03899999999999 C 219.868 82.19299999999998 223.202 83.22699999999999 227.286 83.14799999999998 C 231.37 83.05999999999999 235.746 81.48099999999998 240.395 78.39099999999998 L 240.395 34.85099999999998 L 249.304 34.85099999999998 L 249.304 83.26599999999998 z M 284.082 88.997 C 283.1061558763078 89.0794400084757 282.12731904198876 89.12147594614584 281.14799999999997 89.123 C 276.109 89.123 272.17999999999995 87.92500000000001 269.37399999999997 85.51700000000001 C 266.57599999999996 83.11000000000001 265.17299999999994 79.787 265.17299999999994 75.546 L 265.17299999999994 40.456 L 259.07099999999997 40.456 L 259.07099999999997 34.852000000000004 L 265.17299999999994 34.852000000000004 L 265.17299999999994 19.968 L 274.07199999999995 16.8 L 274.07199999999995 34.852000000000004 L 284.08199999999994 34.852000000000004 L 284.08199999999994 40.456 L 274.07199999999995 40.456 L 274.07199999999995 75.30199999999999 C 274.07199999999995 78.64599999999999 274.96799999999996 81.014 276.76099999999997 82.39899999999999 C 278.301 83.53899999999999 280.748 84.192 284.08099999999996 84.35799999999999 L 284.08099999999996 88.99699999999999 z M 338.023 88.266 L 329.11400000000003 88.266 L 329.11400000000003 53.878 C 329.11400000000003 50.379 328.29600000000005 47.367 326.668 44.853 C 324.78700000000003 42.006 322.175 40.583 318.821 40.583 C 314.737 40.583 309.63000000000005 42.736999999999995 303.499 47.045 L 303.499 88.26599999999999 L 294.591 88.26599999999999 L 294.591 6.069 L 303.499 3.262 L 303.499 40.7 C 309.19100000000003 36.557 315.41 34.481 322.165 34.481 C 326.88300000000004 34.481 330.70300000000003 36.07 333.62800000000004 39.238 C 336.56200000000007 42.405 338.02400000000006 46.353 338.02400000000006 51.071 L 338.02400000000006 88.26599999999999 L 338.0230000000001 88.26599999999999 z M 385.374 60.526 C 385.374 54.931000000000004 384.312 50.31100000000001 382.196 46.656000000000006 C 379.68100000000004 42.202000000000005 375.773 39.852000000000004 370.49 39.60900000000001 C 360.723 40.17400000000001 355.849 47.17200000000001 355.849 60.58500000000001 C 355.849 66.73500000000001 356.863 71.87200000000001 358.90999999999997 75.995 C 361.522 81.24900000000001 365.441 83.842 370.66599999999994 83.754 C 380.47099999999995 83.67500000000001 385.37399999999997 75.936 385.37399999999997 60.526 z M 395.13100000000003 60.584 C 395.13100000000003 68.548 393.09400000000005 75.176 389.02900000000005 80.468 C 384.55400000000003 86.39500000000001 378.37600000000003 89.367 370.49000000000007 89.367 C 362.67300000000006 89.367 356.5810000000001 86.394 352.18500000000006 80.468 C 348.19800000000004 75.176 346.20900000000006 68.548 346.20900000000006 60.584 C 346.20900000000006 53.099000000000004 348.36300000000006 46.80200000000001 352.6720000000001 41.675000000000004 C 357.2240000000001 36.236000000000004 363.2080000000001 33.507000000000005 370.6070000000001 33.507000000000005 C 378.0040000000001 33.507000000000005 384.0280000000001 36.236000000000004 388.66800000000006 41.675000000000004 C 392.9770000000001 46.80200000000001 395.1310000000001 53.099000000000004 395.1310000000001 60.584 z M 446.205 88.266 L 437.296 88.266 L 437.296 51.929 C 437.296 47.943000000000005 436.098 44.833 433.7 42.591 C 431.30199999999996 40.359 428.104 39.277 424.118 39.364000000000004 C 419.889 39.44200000000001 415.86199999999997 40.82600000000001 412.042 43.507000000000005 L 412.042 88.266 L 403.133 88.266 L 403.133 42.406000000000006 C 408.26 38.67400000000001 412.978 36.236000000000004 417.286 35.096000000000004 C 421.35 34.034000000000006 424.937 33.507000000000005 428.027 33.507000000000005 C 430.14099999999996 33.507000000000005 432.131 33.711000000000006 434.002 34.121 C 437.50100000000003 34.93 440.348 36.431000000000004 442.54 38.634 C 444.987 41.071 446.20500000000004 43.994 446.20500000000004 47.416 L 446.20500000000004 88.26599999999999 z" stroke-linecap="round" />
</g>
		<g transform="matrix(2.16 0 0 2.16 -423.67 -298.46)"  >
<linearGradient id="SVGID_SVGID_a_3_3" gradientUnits="userSpaceOnUse" gradientTransform="matrix(0.56 0 0 -0.57 1145.56 166.28)"  x1="-2031.312" y1="275.868" x2="-1922.296" y2="182.075">
<stop offset="0%" style="stop-color:rgb(90,159,212);stop-opacity: 1"/>
<stop offset="100%" style="stop-color:rgb(48,105,152);stop-opacity: 1"/>
</linearGradient>
<path style="stroke: none; stroke-width: 1; stroke-dasharray: none; stroke-linecap: butt; stroke-dashoffset: 0; stroke-linejoin: miter; stroke-miterlimit: 4; fill: url(#SVGID_SVGID_a_3_3); fill-rule: nonzero; opacity: 1;" vector-effect="non-scaling-stroke"  transform=" translate(-46.74, -47.95)" d="M 60.51 6.398 C 55.926 6.419 51.549 6.81 47.698 7.492 C 36.352000000000004 9.497 34.292 13.692 34.292 21.43 L 34.292 31.649 L 61.104 31.649 L 61.104 35.055 L 24.229 35.055 C 16.436999999999998 35.055 9.613 39.739 7.478999999999999 48.649 C 5.0169999999999995 58.862 4.9079999999999995 65.235 7.478999999999999 75.899 C 9.385 83.837 13.937 89.493 21.729 89.493 L 30.948 89.493 L 30.948 77.243 C 30.948 68.393 38.605000000000004 60.586999999999996 47.698 60.586999999999996 L 74.479 60.586999999999996 C 81.934 60.586999999999996 87.885 54.449 87.885 46.961999999999996 L 87.885 21.429 C 87.885 14.162999999999998 81.75500000000001 8.703999999999999 74.479 7.490999999999998 C 69.872 6.724999999999998 65.094 6.375999999999998 60.51 6.397999999999998 z M 46.01 14.616 C 48.78 14.616 51.041 16.915 51.041 19.741 C 51.041 22.557 48.778999999999996 24.835 46.01 24.835 C 43.230999999999995 24.835 40.979 22.558 40.979 19.741 C 40.979 16.915 43.231 14.616 46.01 14.616 z" stroke-linecap="round" />
</g>
		<g transform="matrix(2.16 0 0 2.16 -361.52 -235.9)"  >
<linearGradient id="SVGID_SVGID_b_4_4" gradientUnits="userSpaceOnUse" gradientTransform="matrix(0.56 0 0 -0.57 1145.56 166.28)"  x1="-1880.151" y1="125.305" x2="-1919.08" y2="180.384">
<stop offset="0%" style="stop-color:rgb(255,212,59);stop-opacity: 1"/>
<stop offset="100%" style="stop-color:rgb(255,232,115);stop-opacity: 1"/>
</linearGradient>
<path style="stroke: none; stroke-width: 1; stroke-dasharray: none; stroke-linecap: butt; stroke-dashoffset: 0; stroke-linejoin: miter; stroke-miterlimit: 4; fill: url(#SVGID_SVGID_b_4_4); fill-rule: nonzero; opacity: 1;" vector-effect="non-scaling-stroke"  transform=" translate(-75.52, -76.92)" d="M 91.229 35.054 L 91.229 46.96 C 91.229 56.191 83.403 63.96 74.479 63.96 L 47.698 63.96 C 40.362 63.96 34.292 70.238 34.292 77.58500000000001 L 34.292 103.11600000000001 C 34.292 110.38300000000001 40.61 114.65700000000001 47.698 116.74100000000001 C 56.185 119.23700000000001 64.324 119.68800000000002 74.479 116.74100000000001 C 81.229 114.78700000000002 87.885 110.85300000000001 87.885 103.11600000000001 L 87.885 92.898 L 61.104 92.898 L 61.104 89.49199999999999 L 101.291 89.49199999999999 C 109.084 89.49199999999999 111.987 84.05599999999998 114.697 75.898 C 117.497 67.5 117.378 59.422 114.697 48.647999999999996 C 112.771 40.891 109.093 35.053999999999995 101.291 35.053999999999995 L 91.229 35.053999999999995 z M 76.166 99.71 C 78.945 99.71 81.197 101.987 81.197 104.80399999999999 C 81.197 107.62999999999998 78.94500000000001 109.92899999999999 76.166 109.92899999999999 C 73.396 109.92899999999999 71.13499999999999 107.62999999999998 71.13499999999999 104.80399999999999 C 71.13499999999999 101.98799999999999 73.39699999999999 99.71 76.166 99.71 z" stroke-linecap="round" />
</g>
		<g transform="matrix(2.16 0 0 2.16 490.34 -355.71)"  >
<path style="stroke: none; stroke-width: 1; stroke-dasharray: none; stroke-linecap: butt; stroke-dashoffset: 0; stroke-linejoin: miter; stroke-miterlimit: 4; fill: rgb(100,100,100); fill-rule: nonzero; opacity: 1;" vector-effect="non-scaling-stroke"  transform=" translate(-470.12, -21.43)" d="M 463.554 26.909 L 465.116 26.909 L 465.116 17.113 L 468.815 17.113 L 468.815 15.945 L 459.853 15.945 L 459.853 17.113 L 463.553 17.113 L 463.553 26.909 M 470.201 26.909 L 471.535 26.909 L 471.535 17.962 L 474.43100000000004 26.908 L 475.91600000000005 26.908 L 478.93500000000006 17.992 L 478.93500000000006 26.909 L 480.3910000000001 26.909 L 480.3910000000001 15.946 L 478.4650000000001 15.946 L 475.1660000000001 25.339 L 472.3540000000001 15.945999999999998 L 470.2010000000001 15.945999999999998 L 470.2010000000001 26.909" stroke-linecap="round" />
</g>
		<g transform="matrix(2.16 0 0 2.16 -392.01 -112.47)"  >
<radialGradient id="SVGID_SVGID_c_5_5" gradientUnits="userSpaceOnUse" gradientTransform="matrix(0 -0.24 -1.05 0 458.8 -680.1)"  cx="-3393.238" cy="376.791" r="29.037" fx="-3393.238" fy="376.791">
<stop offset="0%" style="stop-color:rgb(184,184,184);stop-opacity: 0.498"/>
<stop offset="100%" style="stop-color:rgb(127,127,127);stop-opacity: 0"/>
</radialGradient>
<path style="stroke: none; stroke-width: 1; stroke-dasharray: none; stroke-linecap: butt; stroke-dashoffset: 0; stroke-linejoin: miter; stroke-miterlimit: 4; fill: url(#SVGID_SVGID_c_5_5); fill-rule: nonzero; opacity: 0.444;" vector-effect="non-scaling-stroke"  transform=" translate(-61.41, -134.1)" d="M 97.339 134.098 C 97.339 137.94600000000003 81.252 141.06500000000003 61.407 141.06500000000003 C 41.562999999999995 141.06500000000003 25.476 137.94600000000003 25.476 134.098 C 25.476 130.25 41.563 127.13000000000001 61.407 127.13000000000001 C 81.252 127.13000000000001 97.339 130.25 97.339 134.098 z" stroke-linecap="round" />
</g>
</g>
</g>
</svg>