<?xml version="1.0" encoding="UTF-8"?>
<svg id="Layer_1" data-name="Layer 1" xmlns="http://www.w3.org/2000/svg" viewBox="0 0 373.86 444.42">
  <path d="M156.52,95.59c0,19.77-16.02,35.79-35.79,35.79s-35.79-16.02-35.79-35.79,16.02-35.78,35.79-35.78,35.79,16.02,35.79,35.78"/>
  <path d="M62.44,203.62h116.54c2.35,0,4.26-1.9,4.26-4.25v-2.58c-.02-14.7-5.86-28.79-16.25-39.18s-24.49-16.24-39.19-16.25h-14.17c-14.7,.02-28.79,5.86-39.18,16.25-10.4,10.4-16.24,24.48-16.25,39.18v2.58c0,2.35,1.9,4.25,4.25,4.25h0Z"/>
  <path d="M373.86,67.2c0-17.82-7.08-34.91-19.68-47.52-12.6-12.6-29.7-19.68-47.52-19.68H67.2C49.38,0,32.29,7.08,19.68,19.68,7.08,32.28,0,49.38,0,67.2V377.22c0,17.82,7.08,34.91,19.68,47.52,12.6,12.6,29.7,19.68,47.52,19.68h239.45c17.82,0,34.92-7.08,47.52-19.68,12.6-12.61,19.68-29.7,19.68-47.52V67.2Zm-22.4,309.96h0c0,11.88-4.72,23.28-13.12,31.68-8.4,8.4-19.8,13.12-31.68,13.12H67.21c-11.88,0-23.28-4.72-31.68-13.12-8.4-8.4-13.12-19.8-13.12-31.68V67.2c0-11.88,4.72-23.28,13.12-31.68s19.8-13.12,31.68-13.12h239.45c11.88,0,23.28,4.72,31.68,13.12s13.12,19.8,13.12,31.68V377.16Z"/>
  <path d="M313.77,102.87h-96.6c-6.18,0-11.2,5.02-11.2,11.2s5.02,11.2,11.2,11.2h96.6c6.19,0,11.2-5.01,11.2-11.2s-5.01-11.2-11.2-11.2Z"/>
  <path d="M313.77,170.07h-96.6c-6.18,0-11.2,5.02-11.2,11.2s5.02,11.2,11.2,11.2h96.6c6.19,0,11.2-5.02,11.2-11.2s-5.01-11.2-11.2-11.2Z"/>
  <path d="M313.77,270.87H65.97c-6.18,0-11.2,5.02-11.2,11.2s5.02,11.2,11.2,11.2h247.8c6.19,0,11.2-5.01,11.2-11.2s-5.01-11.2-11.2-11.2Z"/>
  <path d="M313.77,338.07H65.97c-6.18,0-11.2,5.02-11.2,11.2s5.02,11.2,11.2,11.2h247.8c6.19,0,11.2-5.02,11.2-11.2s-5.01-11.2-11.2-11.2Z"/>
</svg>