<?xml version="1.0" encoding="UTF-8" standalone="no" ?>
<!DOCTYPE svg PUBLIC "-//W3C//DTD SVG 1.1//EN" "http://www.w3.org/Graphics/SVG/1.1/DTD/svg11.dtd">
<svg xmlns="http://www.w3.org/2000/svg" xmlns:xlink="http://www.w3.org/1999/xlink" version="1.1" width="1080" height="1080" viewBox="0 0 1080 1080" xml:space="preserve">
<desc>Created with Fabric.js 5.2.4</desc>
<defs>
</defs>
<g transform="matrix(1 0 0 1 540 540)" id="d2a4f0fd-687b-474f-a5b6-796a2690776e"  >
</g>
<g transform="matrix(1 0 0 1 540 540)" id="0b680dcf-481f-4957-82c0-c42d2c8a85cb"  >
<rect style="stroke: none; stroke-width: 1; stroke-dasharray: none; stroke-linecap: butt; stroke-dashoffset: 0; stroke-linejoin: miter; stroke-miterlimit: 4; fill: rgb(255,255,255); fill-rule: nonzero; opacity: 1; visibility: hidden;" vector-effect="non-scaling-stroke"  x="-540" y="-540" rx="0" ry="0" width="1080" height="1080" />
</g>
<g transform="matrix(2.77 0 0 2.77 589.6 301.84)"  >
<path style="stroke: none; stroke-width: 1; stroke-dasharray: none; stroke-linecap: butt; stroke-dashoffset: 0; stroke-linejoin: miter; stroke-miterlimit: 4; fill: rgb(248,153,57); fill-rule: nonzero; opacity: 1;" vector-effect="non-scaling-stroke"  transform=" translate(-287.71, -295.04)" d="M 333.32 347.348 C 367.18899999999996 313.481 372.818 264.202 345.892 237.27800000000002 C 318.96999999999997 210.35700000000003 269.693 215.985 235.826 249.85000000000002 C 201.959 283.716 211.756 348.418 223.256 359.92 C 232.549 369.213 299.455 381.213 333.32 347.348 z" stroke-linecap="round" />
</g>
<g transform="matrix(3.71 0 0 3.71 210.94 341.58)"  >
<path style="stroke: none; stroke-width: 1; stroke-dasharray: none; stroke-linecap: butt; stroke-dashoffset: 0; stroke-linejoin: miter; stroke-miterlimit: 4; fill: rgb(52,153,205); fill-rule: nonzero; opacity: 1;" vector-effect="non-scaling-stroke"  transform=" translate(-164, -324.88)" d="M 194.35 298.411 C 174.702 278.763 146.108 275.492 130.483 291.116 C 114.86200000000001 306.738 118.128 335.336 137.78 354.981 C 157.43200000000002 374.635 194.975 368.95 201.643 362.276 C 207.039 356.889 214.004 318.06100000000004 194.35 298.411 z" stroke-linecap="round" />
</g>
<g transform="matrix(3.71 0 0 3.71 478.18 335.73)"  >
<path style="stroke: none; stroke-width: 1; stroke-dasharray: none; stroke-linecap: butt; stroke-dashoffset: 0; stroke-linejoin: miter; stroke-miterlimit: 4; fill: rgb(1,1,1); fill-rule: nonzero; opacity: 1;" vector-effect="non-scaling-stroke"  transform=" translate(-249.27, -320.62)" d="M 262.143 339.047 C 258.67199999999997 342.242 255.62699999999998 344.6 253.00999999999996 346.115 C 250.39299999999997 347.635 247.89699999999996 348.394 245.52199999999996 348.394 C 242.78999999999996 348.394 240.58599999999996 347.335 238.91499999999996 345.216 C 237.24099999999996 343.095 236.40699999999995 340.25100000000003 236.40699999999995 336.673 C 236.40699999999995 331.312 237.56899999999996 324.876 239.89299999999994 317.372 C 242.21299999999994 309.862 245.03799999999995 302.942 248.35599999999994 296.611 L 258.0849999999999 293.009 C 258.38999999999993 292.90700000000004 258.6219999999999 292.855 258.7759999999999 292.855 C 259.5139999999999 292.855 260.1239999999999 293.399 260.59199999999987 294.482 C 261.0649999999999 295.57000000000005 261.3029999999999 297.03200000000004 261.3029999999999 298.87 C 261.3029999999999 304.079 260.10399999999987 309.122 257.7009999999999 313.999 C 255.29899999999992 318.87800000000004 251.5469999999999 324.08500000000004 246.44099999999992 329.62600000000003 C 246.2359999999999 332.28200000000004 246.13399999999993 334.10600000000005 246.13399999999993 335.103 C 246.13399999999993 337.326 246.54199999999992 339.08500000000004 247.35899999999992 340.38800000000003 C 248.17699999999994 341.69300000000004 249.2609999999999 342.341 250.61499999999992 342.341 C 251.99599999999992 342.341 253.46299999999994 341.847 255.02099999999993 340.851 C 256.5759999999999 339.853 258.9509999999999 337.787 262.14199999999994 334.644 L 262.14199999999994 339.047 z M 247.47499999999997 324.074 C 250.71699999999996 320.469 253.34999999999997 316.426 255.36599999999996 311.95300000000003 C 257.38199999999995 307.478 258.38899999999995 303.629 258.38899999999995 300.40400000000005 C 258.38899999999995 299.46400000000006 258.24999999999994 298.70000000000005 257.97099999999995 298.12600000000003 C 257.68999999999994 297.55100000000004 257.3299999999999 297.26200000000006 256.89699999999993 297.26200000000006 C 255.95599999999993 297.26200000000006 254.58099999999993 299.61400000000003 252.77999999999994 304.3190000000001 C 250.97899999999996 309.0230000000001 249.21099999999996 315.6090000000001 247.47499999999994 324.07400000000007 z" stroke-linecap="round" />
</g>
<g transform="matrix(3.71 0 0 3.71 578.72 376.94)"  >
<path style="stroke: none; stroke-width: 1; stroke-dasharray: none; stroke-linecap: butt; stroke-dashoffset: 0; stroke-linejoin: miter; stroke-miterlimit: 4; fill: rgb(1,1,1); fill-rule: nonzero; opacity: 1;" vector-effect="non-scaling-stroke"  transform=" translate(-276.36, -331.71)" d="M 290.795 339.047 C 287.553 342.242 284.64300000000003 344.6 282.063 346.115 C 279.483 347.635 276.639 348.394 273.522 348.394 C 270.049 348.394 267.247 347.283 265.11199999999997 345.064 C 262.981 342.839 261.917 339.918 261.917 336.291 C 261.917 330.879 263.792 325.98199999999997 267.54999999999995 321.603 C 271.29999999999995 317.222 275.46399999999994 315.033 280.03399999999993 315.033 C 282.40899999999993 315.033 284.3089999999999 315.648 285.74099999999993 316.873 C 287.17099999999994 318.09999999999997 287.8859999999999 319.707 287.8859999999999 321.699 C 287.8859999999999 326.986 282.2689999999999 331.273 271.03399999999993 334.568 C 272.0539999999999 339.54499999999996 274.7219999999999 342.037 279.03799999999995 342.037 C 280.72399999999993 342.037 282.33099999999996 341.584 283.86199999999997 340.67999999999995 C 285.397 339.77199999999993 287.70599999999996 337.7579999999999 290.796 334.6449999999999 L 290.796 339.0469999999999 z M 270.725 331.963 C 277.26000000000005 330.12300000000005 280.53000000000003 326.72900000000004 280.53000000000003 321.77500000000003 C 280.53000000000003 319.324 279.63500000000005 318.09900000000005 277.85 318.09900000000005 C 276.16400000000004 318.09900000000005 274.557 319.38000000000005 273.026 321.94900000000007 C 271.49 324.51400000000007 270.725 327.8500000000001 270.725 331.9630000000001 z" stroke-linecap="round" />
</g>
<g transform="matrix(3.71 0 0 3.71 707.4 376.65)"  >
<path style="stroke: none; stroke-width: 1; stroke-dasharray: none; stroke-linecap: butt; stroke-dashoffset: 0; stroke-linejoin: miter; stroke-miterlimit: 4; fill: rgb(1,1,1); fill-rule: nonzero; opacity: 1;" vector-effect="non-scaling-stroke"  transform=" translate(-311.02, -331.64)" d="M 331.701 339.047 C 327.615 342.928 324.69100000000003 345.459 322.93100000000004 346.63500000000005 C 321.16900000000004 347.809 319.48400000000004 348.39500000000004 317.874 348.39500000000004 C 313.839 348.39500000000004 311.93800000000005 344.83400000000006 312.16700000000003 337.70900000000006 C 309.61400000000003 341.35900000000004 307.257 344.05300000000005 305.09900000000005 345.79300000000006 C 302.94300000000004 347.52900000000005 300.71600000000007 348.39500000000004 298.415 348.39500000000004 C 296.171 348.39500000000004 294.26300000000003 347.34400000000005 292.69 345.237 C 291.117 343.13 290.336 340.54600000000005 290.336 337.47900000000004 C 290.336 333.65100000000007 291.387 329.999 293.492 326.52400000000006 C 295.601 323.05100000000004 298.30100000000004 320.24500000000006 301.594 318.1000000000001 C 304.887 315.9550000000001 307.801 314.8810000000001 310.326 314.8810000000001 C 313.519 314.8810000000001 315.754 316.3500000000001 317.031 319.2850000000001 L 324.859 314.95900000000006 L 327.007 314.95900000000006 L 323.62600000000003 326.18000000000006 C 321.89000000000004 331.82500000000005 321.019 335.6940000000001 321.019 337.78700000000003 C 321.019 339.982 321.796 341.08000000000004 323.355 341.08000000000004 C 324.34700000000004 341.08000000000004 325.445 340.55100000000004 326.646 339.49000000000007 C 327.84700000000004 338.4290000000001 329.529 336.8140000000001 331.699 334.64400000000006 L 331.699 339.0470000000001 z M 303.66400000000004 341.156 C 306.21700000000004 341.156 308.62300000000005 338.98 310.88700000000006 334.627 C 313.14700000000005 330.272 314.27600000000007 326.254 314.27600000000007 322.57800000000003 C 314.27600000000007 321.15000000000003 313.95400000000006 320.031 313.3190000000001 319.228 C 312.67800000000005 318.421 311.8230000000001 318.021 310.7530000000001 318.021 C 308.1980000000001 318.021 305.7760000000001 320.19100000000003 303.4950000000001 324.533 C 301.2100000000001 328.875 300.0650000000001 332.87100000000004 300.0650000000001 336.519 C 300.0650000000001 337.9 300.4050000000001 339.017 301.08100000000013 339.873 C 301.7570000000001 340.729 302.6150000000001 341.156 303.66400000000016 341.156 z" stroke-linecap="round" />
</g>
<g transform="matrix(3.71 0 0 3.71 835.7 376.94)"  >
<path style="stroke: none; stroke-width: 1; stroke-dasharray: none; stroke-linecap: butt; stroke-dashoffset: 0; stroke-linejoin: miter; stroke-miterlimit: 4; fill: rgb(1,1,1); fill-rule: nonzero; opacity: 1;" vector-effect="non-scaling-stroke"  transform=" translate(-345.57, -331.71)" d="M 360.314 339.047 C 353.904 345.32800000000003 348.96200000000005 348.471 345.49 348.471 C 343.931 348.471 342.615 347.813 341.545 346.502 C 340.475 345.18600000000004 339.93600000000004 343.557 339.93600000000004 341.615 C 339.93600000000004 338.015 341.86600000000004 333.19100000000003 345.72100000000006 327.13800000000003 C 343.83000000000004 328.10900000000004 341.76400000000007 328.783 339.5160000000001 329.16700000000003 C 337.85600000000005 332.23100000000005 335.25000000000006 335.526 331.70200000000006 339.04600000000005 L 330.82300000000004 339.04600000000005 L 330.82300000000004 335.60300000000007 C 332.81300000000005 333.5350000000001 334.61400000000003 331.31200000000007 336.223 328.93700000000007 C 334.024 327.96600000000007 332.928 326.5230000000001 332.928 324.61100000000005 C 332.928 322.64200000000005 333.596 320.54300000000006 334.94 318.30600000000004 C 336.28 316.074 338.124 314.958 340.475 314.958 C 342.46700000000004 314.958 343.461 315.976 343.461 318.02000000000004 C 343.461 319.629 342.887 321.92600000000004 341.736 324.915 C 345.974 324.454 349.67699999999996 321.214 352.84499999999997 315.18600000000004 L 356.32899999999995 315.03200000000004 L 352.76699999999994 324.83700000000005 C 351.2869999999999 328.97400000000005 350.32899999999995 331.79200000000003 349.89599999999996 333.28400000000005 C 349.46299999999997 334.77600000000007 349.24399999999997 336.1 349.24399999999997 337.24700000000007 C 349.24399999999997 338.3210000000001 349.49399999999997 339.1790000000001 349.98999999999995 339.81300000000005 C 350.48799999999994 340.456 351.15999999999997 340.77200000000005 352.00199999999995 340.77200000000005 C 352.91999999999996 340.77200000000005 353.80299999999994 340.458 354.6449999999999 339.83600000000007 C 355.4869999999999 339.2050000000001 357.37699999999995 337.4770000000001 360.31499999999994 334.6430000000001 L 360.31499999999994 339.0470000000001 z" stroke-linecap="round" />
</g>
<g transform="matrix(3.71 0 0 3.71 959.55 376.81)"  >
<path style="stroke: none; stroke-width: 1; stroke-dasharray: none; stroke-linecap: butt; stroke-dashoffset: 0; stroke-linejoin: miter; stroke-miterlimit: 4; fill: rgb(1,1,1); fill-rule: nonzero; opacity: 1;" vector-effect="non-scaling-stroke"  transform=" translate(-378.93, -331.68)" d="M 397.928 339.047 C 392.03 345.281 386.971 348.39500000000004 382.76 348.39500000000004 C 381.049 348.39500000000004 379.67 347.795 378.623 346.59400000000005 C 377.574 345.39500000000004 377.051 343.78700000000003 377.051 341.77000000000004 C 377.051 339.038 378.176 334.862 380.424 329.247 C 381.623 326.233 382.22499999999997 324.315 382.22499999999997 323.50100000000003 C 382.22499999999997 322.68300000000005 381.90299999999996 322.27400000000006 381.268 322.27400000000006 C 380.91099999999994 322.27400000000006 380.436 322.45400000000006 379.84999999999997 322.8090000000001 C 379.311 323.1660000000001 378.686 323.66800000000006 377.97099999999995 324.30500000000006 C 377.33399999999995 324.8910000000001 376.61699999999996 325.60600000000005 375.82599999999996 326.4460000000001 C 375.135 327.1670000000001 374.39399999999995 327.98300000000006 373.60699999999997 328.89900000000006 L 371.45899999999995 331.3910000000001 C 370.51599999999996 332.5390000000001 369.92799999999994 333.75000000000006 369.69899999999996 335.0280000000001 C 369.31399999999996 337.1980000000001 369.05999999999995 339.19200000000006 368.931 341.00700000000006 C 368.853 342.3570000000001 368.816 344.18100000000004 368.816 346.48400000000004 L 360.351 348.47200000000004 C 360.072 345.02500000000003 359.929 342.458 359.929 340.77500000000003 C 359.929 336.66400000000004 360.40799999999996 332.769 361.36699999999996 329.093 C 362.32399999999996 325.413 363.861 321.279 365.98199999999997 316.68100000000004 L 375.32599999999996 314.88200000000006 C 373.361 320.16900000000004 372.07199999999995 324.32900000000006 371.45899999999995 327.36600000000004 C 375.64699999999993 322.694 378.9669999999999 319.46000000000004 381.42799999999994 317.65700000000004 C 383.88499999999993 315.85600000000005 386.0729999999999 314.96000000000004 387.98499999999996 314.96000000000004 C 389.28399999999993 314.96000000000004 390.36999999999995 315.45000000000005 391.23499999999996 316.43100000000004 C 392.104 317.41300000000007 392.53599999999994 318.646 392.53599999999994 320.12000000000006 C 392.53599999999994 322.5690000000001 391.43799999999993 326.60400000000004 389.24499999999995 332.22400000000005 C 387.73699999999997 336.07800000000003 386.98299999999995 338.57900000000006 386.98299999999995 339.73400000000004 C 386.98299999999995 341.271 387.60999999999996 342.03900000000004 388.8639999999999 342.03900000000004 C 390.73099999999994 342.03900000000004 393.75499999999994 339.57400000000007 397.92799999999994 334.6460000000001 z" stroke-linecap="round" />
</g>
<g transform="matrix(3.71 0 0 3.71 664.94 240.54)" style="" id="text25"  >
		<text xml:space="preserve" font-family="Helvetica" font-size="23.0795002" font-style="normal" font-weight="normal" style="stroke: none; stroke-width: 1; stroke-dasharray: none; stroke-linecap: butt; stroke-dashoffset: 0; stroke-linejoin: miter; stroke-miterlimit: 4; fill: rgb(255,255,255); fill-rule: nonzero; opacity: 1; white-space: pre;" ><tspan x="-25.64" y="7.25" >scikit</tspan></text>
</g>
</svg>